SplineFontDB: 1.0
MMCounts: 2 1
MMAxis: Weight
MMPositions: 0 1
MMWeights: 0.625 0.375
MMAxisMap: 0 2 0=>100 1=>1000
MMCDV:
{
  1 1 index sub 2 1 roll
  0 index 2 1 roll
  pop
}
EndMMSubroutine
MMNDV:
{
  100 sub 900 div 
}
EndMMSubroutine
BeginMMFonts: 3 336
FontName: CaslonThin
FullName: Caslon Thin
FamilyName: Caslon
Weight: Thin
Copyright: Created by George Williams with PfaEdit 1.0 (http://pfaedit.sf.net)
Comments: 2004-2-9: Created.
Version: 001.000
ItalicAngle: 0
UnderlinePosition: -100
UnderlineWidth: 50
Ascent: 787
Descent: 213
NeedsXUIDChange: 1
FSType: 8
PfmFamily: 17
TTFWeight: 500
TTFWidth: 5
Panose: 2 0 6 3 0 0 0 0 0 0
LineGap: 90
VLineGap: 0
ScriptLang: 2
 1 latn 1 dflt 
 1 hebr 1 dflt 
Encoding: adobestandard
UnicodeInterp: none
DisplaySize: -36
AntiAlias: 1
FitToEm: 1
WinInfo: 80 16 4
BeginChars: 336 232
StartChar: uniFFFD
Encoding: 0 65533 3682
Width: 1000
Fore
634 424 m 0x00
 631 502 592 547 473 544 c 0
 423 543 374 507 377 456 c 0
 378.874 423.186 397.222 409.161 416 409.161 c 0
 437.275 409.161 459.063 424.627 458 448 c 0
 456 475 445 484 416 484 c 1
 430 510 454 523 482 524 c 0
 526 526 564 495 565 427 c 0
 567 315 473 270 467 158 c 0
 466 139 465 127 467 108 c 1
 486 108 l 1
 487 127 488 136 490 155 c 0
 506 273 639 291 634 424 c 0x00
481.556 68.2048 m 0
 459.674 68.2048 442.125 47.9879 442.125 27.1575 c 0
 442.125 8.182 460.126 -11.7789 482.806 -11.7789 c 0
 504.841 -11.7789 522.435 8.72335 522.435 29.5417 c 0
 522.435 48.8276 505 68.2048 481.556 68.2048 c 0
500 -163 m 1
 50 288 l 1
 500 737 l 1
 950 287 l 1
 500 -163 l 1
EndSplineSet
EndChar
StartChar: exclam
Encoding: 33 33 1
Width: 205
Flags: HW
HStem: -15 57<118 120 115 117>
Fore
99 632 m 4xc0
 105 644 118 645 124 632 c 0
 158 567 177 544 177 483 c 0
 177 348 122 276 122 141 c 0
 122 109 102 110 102 141 c 0
 102 276 47 348 47 483 c 0
 47 544 70 570 99 632 c 4xc0
83 14 m 0
 83 29.6152 100.385 42 119 42 c 0
 136.616 42 149 29.6152 149 14 c 0
 149 -2.6152 134.616 -15 116 -15 c 0
 98.3848 -15 83 -2.6152 83 14 c 0
EndSplineSet
EndChar
StartChar: quotedbl
Encoding: 34 34 2
Width: 231
HStem: 641 20G<185 187 140 142 103 105 58 60>
Fore
186 661 m 1x80
 172 539 l 1
 155 539 l 1
 141 661 l 1
 186 661 l 1x80
104 661 m 1
 90 539 l 1
 73 539 l 1
 59 661 l 1
 104 661 l 1
EndSplineSet
EndChar
StartChar: numbersign
Encoding: 35 35 3
Width: 527
HStem: 213 16<283 285 387 389 387 389 278 280 262 264 123 125 107 109 -1 1 -1 1 112 114 128 130 267 269> 422 16<430 432 138 140 42 44 42 44 143 145 159 161 298 300 314 316 430 432 294 296> 422 16<310 312 154 156>
Fore
431 422 m 1x80
 311 422 l 1x80
 284 229 l 1
 388 229 l 1
 388 213 l 1
 279 213 l 1
 254 43 l 1
 238 43 l 1
 263 213 l 1
 124 213 l 1
 99 43 l 1
 83 43 l 1
 108 213 l 1
 0 213 l 1
 0 229 l 1
 113 229 l 1
 139 422 l 1x80
 43 422 l 1x80
 43 438 l 1x80
 144 438 l 1x80
 170 625 l 1x80
 186 625 l 1x80
 160 438 l 1x80
 299 438 l 1x80
 325 625 l 1x80
 341 625 l 1x80
 315 438 l 1x80
 431 438 l 1x80
 431 422 l 1x80
295 422 m 1x80
 155 422 l 1x80
 129 229 l 1
 268 229 l 1
 295 422 l 1x80
EndSplineSet
EndChar
StartChar: dollar
Encoding: 36 36 4
Width: 528
Fore
207 413 m 2xc0
 245 642 l 1
 248 657 239 657 231 657 c 0
 163 657 102 579 102 528 c 0
 102 473 141 424 190 405 c 0
 198 404 206 406 207 413 c 2xc0
315 384 m 1
 354 614 l 1
 356 625 352 633 346 636 c 0
 325 646 307 651 289 654 c 0
 278 655 273 649 271 640 c 1
 232 408 l 1
 231 398 238 391 243 388 c 0
 224.312 393.607 316.283 368.429 298 373 c 0
 301 373 314 372 315 384 c 1
256 28 m 0
 268 102 292 227 305 296 c 0
 306 304 302 313 297 314 c 0
 278 317 258 323 239 329 c 0
 233 329 222 325 219 305 c 1
 174 56 l 1
 170 40 167 46 180 39 c 0
 203 29 223 22 244 17 c 0
 249 17 255 20 256 28 c 0
330 287 m 1
 282 25 l 2
 281 19 282 11 292 12 c 0
 300 10 308 11 315 11 c 0
 384 11 450 92 450 161 c 0
 450 223 407 282 350 300 c 0
 339 302 329 294 330 287 c 1
368 701 m 1
 371 723 396 720 393 702 c 1
 390 677 l 1
 388 672 392 668 397 665 c 0
 422 658 446 647 472 631 c 0
 487 622 496 610 496 593 c 0
 496 580 482 564 468 564 c 0
 443 564 421 593 394 609 c 0
 388 613 376 590 372 576 c 1
 342 377 l 1
 339 366 347 358 354 355 c 0
 440 326 518 291 518 188 c 0
 518 82 409 5 290 -4 c 0
 281 -5 279 -10 278 -17 c 1
 265 -94 l 2
 262 -112 234 -114 238 -93 c 1
 251 -19 l 2
 252 -13 249 -6 240 -6 c 0
 219 -6 199 -6 179 -4 c 0
 169 -3 166 -8 165 -15 c 1
 151 -94 l 2
 148 -112 121 -114 125 -93 c 1
 139 -10 l 1
 140 -3 137 4 131 5 c 0
 95 13 66 25 34 52 c 0
 25 60 19 74 19 88 c 0
 19 102 32 121 50 121 c 0
 65 121 74 93 96 81 c 0
 110 75 125 67 137 62 c 0
 143 57 148 61 148 67 c 0
 161 136 186 259 196 324 c 0
 198 335 194 343 188 344 c 0
 116 372 55 401 55 498 c 0
 55 586 154 665 241 676 c 0
 247 677 251 679 252 686 c 1
 255 701 l 1
 258 723 284 720 281 702 c 1
 279 686 l 1
 278 682 281 678 285 678 c 0
 308 678 330 677 351 674 c 0
 359 673 364 677 363 681 c 1
 368 701 l 1
EndSplineSet
EndChar
StartChar: percent
Encoding: 37 37 5
Width: 1080
HStem: -5 14<721 723 721 723> 282 13<270 272 270 272> 400 17<721 723 721 723> 687 17<270 272 270 272>
Fore
208 3 m 0xff
 419 278 576 483 746 710 c 0
 763 730 794 719 774 693 c 0
 563 416 446 261 230 -14 c 0
 210 -37 190 -19 208 3 c 0xff
559 204 m 0
 559 96 654 9 722 9 c 0
 790 9 883 96 883 204 c 0
 883 312 790 400 722 400 c 0
 654 400 559 312 559 204 c 0
512 206 m 0
 512 323 607 417 722 417 c 0
 837 417 930 323 930 206 c 0
 930 89 837 -5 722 -5 c 0
 607 -5 512 89 512 206 c 0
108 491 m 0
 108 383 203 295 271 295 c 0
 339 295 432 383 432 491 c 0
 432 599 339 687 271 687 c 0
 203 687 108 599 108 491 c 0
61 493 m 0
 61 609 156 704 271 704 c 0
 386 704 478 609 478 493 c 0
 478 376 386 282 271 282 c 0
 156 282 61 376 61 493 c 0
EndSplineSet
EndChar
StartChar: ampersand
Encoding: 38 38 6
Width: 767
HStem: 0 37<244 246 223 225> 336 22<399 401 399 401 675 677> 631 23<222 224 237 239>
Fore
216 446 m 0x7c
 253 466 298 485 298 533 c 0
 298 584 275 631 223 631 c 0
 208 631 157 584 157 548 c 0
 157 509 154 484 188 453 c 0
 200 441 205 440 216 446 c 0x7c
416 135 m 0
 407 149 400 154 394 168 c 0
 374 205 352 233 330 266 c 0
 296 315 246 360 212 395 c 0
 201 405 198 403 188 400 c 0
 104 371 59 316 59 230 c 0
 59 130 125 38 245 37 c 0xfc
 294 36 357 78 413 111 c 0
 422 116 423.051 124.032 416 135 c 0
622 76 m 0
 629 87 631 100 640 100 c 0
 646 100 650 98 645 76 c 0
 638 54 623 -9 576 -9 c 0
 514.926 -9 477 41 439 100 c 1
 434 106 425 102 418 97 c 0
 335 40 313 0 224 0 c 0
 135 0 35 100 35 205 c 0
 35 317 129 394 175 412 c 0
 186.519 416.507 190 421 183 430 c 0
 166 462 143 488 143 524 c 0
 143 604 228 654 238 654 c 0
 314 654 315 607 315 528 c 0
 315 505 279 458 228 434 c 0
 216 429 218 418 224 412 c 0
 241 396 289 351 303 332 c 0
 336 294 354 273 382 230 c 0
 395 212 408 189 420 168 c 0
 425 161 440 131 448 139 c 0
 482 177 512 244 510 269 c 0
 507 314 444 336 400 336 c 0
 381 336 367 356 400 358 c 0
 465 358 600 360 676 358 c 0
 699 357 695 343 676 338 c 0
 645 333 610 307 578 275 c 0
 535 232 499 165 455 128 c 1
 450 121 452 110 456 104 c 0
 487 55 514.987 16 555 16 c 0
 596 16 609 55 622 76 c 0
EndSplineSet
EndChar
StartChar: quoteright
Encoding: 39 8217 2053
Width: 220
Fore
145 543 m 1x00
 140 530 136 520 126 508 c 0
 111 488 101 478 79 467 c 0
 66 460 64 457 49 454 c 1
 36 469 l 1
 47 472 54 476 62 483 c 0
 72 491 78 498 80 510 c 0
 81 519 83 525 78 532 c 1
 37 557 57 635 109 631 c 0
 151 629 167 573 145 543 c 1x00
EndSplineSet
EndChar
StartChar: parenleft
Encoding: 40 40 8
Width: 354
Fore
244 644 m 0x00
 118 502 81 426 81 241 c 0
 81 53 118 -20 244 -162 c 0
 277 -199 272 -206 232 -174 c 0
 127 -94 19 53 19 241 c 0
 19 427 127 574 232 656 c 0
 272 686 277 681 244 644 c 0x00
EndSplineSet
EndChar
StartChar: parenright
Encoding: 41 41 9
Width: 354
Fore
27 644 m 0x00
 -6 681 -1 686 39 656 c 0
 144 574 252 427 252 241 c 0
 252 53 144 -94 39 -174 c 0
 -1 -206 -6 -199 27 -162 c 0
 153 -20 190 53 190 241 c 0
 190 426 153 502 27 644 c 0x00
EndSplineSet
EndChar
StartChar: asterisk
Encoding: 42 42 10
Width: 462
HStem: 451 20G<223 225>
Fore
388 389 m 0xc0
 398 372 390 365 351 343 c 0
 311 319 279 313 254 297 c 1
 282 280 310 272 348 251 c 0
 384 231 394 219 384 202 c 0
 375 186 365 189 326 210 c 0
 286 234 266 258 240 273 c 1
 240 239 249 220 249 178 c 0xa0
 249 135 242 121 224 121 c 0
 206 121 203 132 203 175 c 0xc0
 203 223 212 242 211 273 c 1xa0
 184 258 162 234 122 210 c 0
 83 189 72 186 64 202 c 0
 54 220 63 231 100 251 c 0
 138 272 167 279 196 296 c 1
 170 312 142 316 102 340 c 0
 63 362 55 372 65 389 c 0
 73 403 89 404 126 381 c 0
 164 360 183 339 212 322 c 1
 213 353 203 369 203 417 c 0
 203 460 204 471 224 471 c 0
 244 471 249 457 249 414 c 0
 249 372 240 355 240 321 c 1x90
 268 338 289 360 327 381 c 0
 363 404 379 405 388 389 c 0xc0
EndSplineSet
EndChar
StartChar: plus
Encoding: 43 43 11
Width: 404
HStem: 275 18<297 299 174 176 155 157 32 34 32 34 155 157 174 176 297 299>
Fore
298 275 m 1xc0
 175 275 l 1
 175 150 l 1
 156 150 l 1
 156 275 l 1
 33 275 l 1
 33 293 l 1
 156 293 l 1
 156 413 l 1
 175 413 l 1
 175 293 l 1
 298 293 l 1
 298 275 l 1xc0
EndSplineSet
EndChar
StartChar: comma
Encoding: 44 44 12
Width: 141
Flags: H
Fore
71.622 -13.3086 m 4x00
 72.138 -9.17188 71.878 -4 68 -4 c 0
 46.2852 -4 34 6 34 28.5 c 0
 34 53 52.0976 65.814 73.296 65.814 c 0
 95.016 65.814 111.436 51.8438 111.436 14.6132 c 0
 111.436 -18.4786 83.514 -47.9532 37.4942 -53.123 c 0
 20.9472 -55.1914 24.0488 -39.6796 36.459 -40.1954 c 0
 47.3184 -40.7128 70.588 -27.7852 71.622 -13.3086 c 4x00
EndSplineSet
EndChar
StartChar: hyphen
Encoding: 45 45 13
Width: 546
HStem: 222 32<251 253 32 34 32 34 251 253>
Fore
252 222 m 1x80
 33 222 l 1
 33 254 l 1
 252 254 l 1
 252 222 l 1x80
EndSplineSet
EndChar
StartChar: period
Encoding: 46 46 14
Width: 127
Flags: W
Fore
18.5 26.5 m 0x00
 18.5 44.9922 33.5078 60 52 60 c 0
 70.4922 60 85.5 44.9922 85.5 26.5 c 0
 85.5 8.00781 70.4922 -7 52 -7 c 0
 33.5078 -7 18.5 8.00781 18.5 26.5 c 0x00
EndSplineSet
EndChar
StartChar: slash
Encoding: 47 47 15
Width: 703
Fore
524 615 m 1x00
 194 -20 l 1
 170 -20 l 1
 500 615 l 1
 524 615 l 1x00
EndSplineSet
EndChar
StartChar: zero
Encoding: 48 48 16
Width: 532
Flags: W
HStem: 0 19<266.832 268.832 266.832 268.832> 562 19<266.832 268.832 266.832 268.832>
Fore
267.832 0 m 0xc0
 -9.16797 0 -9.16797 581 267.832 581 c 0
 548.832 581 544.832 0 267.832 0 c 0xc0
267.832 19 m 0
 477.832 19 477.832 562 267.832 562 c 0
 59.832 562 59.832 19 267.832 19 c 0
EndSplineSet
EndChar
StartChar: one
Encoding: 49 49 17
Width: 251
Flags: W
HStem: 0 13<210 212 35 37 35 37 82 84 163 165 210 212>
Fore
211 0 m 1xc0
 36 0 l 1
 36 13 l 1
 83 13 l 2
 98 13 108 26 108 40 c 2
 108 529 l 1
 68 529 l 1
 68 547 l 1
 138 581 l 1
 138 40 l 2
 138 27 151 13 164 13 c 2
 211 13 l 1
 211 0 l 1xc0
EndSplineSet
EndChar
StartChar: two
Encoding: 50 50 18
Width: 415
Flags: W
HStem: 0 58<325.334 327.334 65.334 67.334 69.334 71.334 320.334 322.334>
Fore
349.334 96 m 1x80
 326.334 0 l 1
 66.334 0 l 1
 66.334 18 l 2
 66.334 155 270.334 278 279.334 439 c 0
 280.334 492 240.334 536 183.334 539 c 0
 122.334 543 84.334 488 73.334 434 c 1
 68.334 434 l 1
 74.334 511 129.334 587 214.334 581 c 0
 271.334 577 332.334 547 334.334 468 c 0
 338.334 326 112.334 187 89.334 102 c 0
 80.334 65 77.334 75 70.334 58 c 1
 321.334 58 l 1
 331.334 96 l 1
 349.334 96 l 1x80
EndSplineSet
EndChar
StartChar: three
Encoding: 51 51 19
Width: 415
Flags: HW
Fore
321.226 143 m 0x00
 321.226 230.279 230.361 299 182.226 299 c 2
 159.226 299 l 1
 159.226 328 l 1
 174.226 331 181.226 333 194.226 340 c 0
 237.002 362.753 259.899 401.246 259.899 447.937 c 0
 259.899 508.35 223.846 540.997 179.718 540.997 c 0
 135.801 540.997 90.2266 508.723 90.2266 457 c 1
 81.2266 457 l 1
 81.2266 533.359 144.755 575.15 216.729 575.15 c 0
 287.515 575.15 315.879 531.761 315.879 480.872 c 0
 315.879 427.683 290 378 251.226 353 c 1
 251.226 340 l 1
 310 312 374.319 267.382 374.319 166.979 c 0
 374.319 84.0629 308.057 2.93152 182.04 2.93152 c 0
 124.375 2.93152 68.04 41.785 68.04 98.3362 c 0
 68.04 137.407 95.2488 157.354 122.684 157.354 c 0
 144.832 157.354 165.295 143.507 165.295 115.815 c 0
 165.295 86.8258 150.598 71 117.226 71 c 1
 130.749 45.3062 153.524 19.7746 190.801 19.7746 c 0
 241.692 19.7746 321.226 61.5 321.226 143 c 0x00
EndSplineSet
EndChar
StartChar: four
Encoding: 52 52 20
Width: 492
Flags: W
HStem: 0 21G<388 390 354 356> 109 38<446 448 388 390 354 356 31 33 388 390 446 448 355 357 88 90> 561 20G<378 380 388 390>
Fore
447 109 m 1xe0
 389 109 l 1
 389 0 l 1
 355 0 l 1
 355 109 l 1
 32 109 l 1
 379 581 l 1
 389 581 l 1
 389 147 l 1
 447 147 l 1
 447 109 l 1xe0
356 147 m 1
 356 514 l 1
 89 147 l 1
 356 147 l 1
EndSplineSet
EndChar
StartChar: five
Encoding: 53 53 21
Width: 426
Flags: HW
HStem: 515 65<96.5645 98.5645 279.564 281.564 327.564 329.564 118.564 120.564>
Fore
377.564 172 m 0x80
 377.564 73 318.411 -9.91343 217.862 -9.91343 c 0
 145.692 -9.91343 71.5645 34.3333 71.5645 93 c 4
 71.5645 126 99.7726 149.45 130.109 149.45 c 0
 160.691 149.45 169.564 122.895 169.564 102 c 0
 167.564 74 146.564 60 120.564 60 c 1
 143.137 31.7834 169.778 21.2277 209.466 21.2277 c 0
 284.41 21.2277 346.564 88.6743 346.564 165 c 0
 346.564 253.231 266.57 298.428 187.637 298.428 c 0
 155.638 298.428 123.814 291 97.5645 276 c 1
 97.5645 580 l 1
 280.564 580 l 2
 292.564 580 316.564 581 323.564 594 c 2
 328.564 603 l 1
 335.564 603 l 1
 328.564 515 l 1
 119.564 515 l 1
 119.564 324 l 1
 150.854 339.901 183.459 347.515 214.546 347.515 c 0
 304.613 347.515 377.564 283.887 377.564 172 c 0x80
EndSplineSet
EndChar
StartChar: six
Encoding: 54 54 22
Width: 406
Flags: HW
HStem: 0 17<210.57 212.57 210.57 212.57> 356 20<210.57 212.57 210.57 212.57>
Fore
222 593.5 m 1xc0
 229.57 583 l 1
 176.57 539 141.57 467 122.57 413 c 0
 109.57 375 103.57 349 103.57 311 c 1
 130.57 350 167.57 376 211.57 376 c 0
 315.395 374.524 364.984 283.22 364.984 190.966 c 0
 364.984 95.9856 312.42 -0.00200653 212.362 -0.00199912 c 0
 212.098 -0.00199912 211.834 -0.00133246 211.57 0 c 0
 103.446 0.537929 55.2219 98.8821 55.2219 217.047 c 0
 55.2219 318.549 90.8043 434.676 154.57 516 c 0
 177.57 547 192.5 569.5 222 593.5 c 1xc0
211.57 17 m 0
 284.304 17 321.831 102.978 321.831 188.336 c 0
 321.831 271.97 285.805 355.01 211.57 356 c 0
 211.126 356.006 210.682 356.009 210.241 356.009 c 0
 136.305 356.009 100.919 274.317 100.919 191.137 c 0
 100.919 104.869 138.98 17 211.57 17 c 0
EndSplineSet
EndChar
StartChar: seven
Encoding: 55 55 23
Width: 367
Flags: W
HStem: 0 21G<159.666 161.666 110.666 112.666> 532 49<325.666 327.666 304.666 306.666 110.666 112.666 47.666 49.666>
Fore
326.666 581 m 1xc0
 160.666 0 l 1
 111.666 0 l 1
 305.666 532 l 1
 111.666 532 l 2
 74.666 532 50.666 537 50.666 499 c 2
 50.666 468 l 1
 47.666 480 l 1
 48.666 581 l 1
 326.666 581 l 1xc0
EndSplineSet
EndChar
StartChar: eight
Encoding: 56 56 24
Width: 415
Flags: W
HStem: -3 20<211.624 213.624 211.624 213.624>
Fore
366.624 184 m 0x80
 370.624 90 305.624 -3 212.624 -3 c 0
 105.624 -3 65.625 63 67.625 161 c 0
 68.625 236 94.624 274 147.624 306 c 1
 105.624 340 93.625 380 91.625 441 c 0
 89.625 520 131.624 583 213.624 583 c 0
 288.624 583 326.624 552 328.624 488 c 0
 330.624 414 285.624 372 227.624 339 c 1
 296.624 298 363.624 263 366.624 184 c 0x80
284.624 495 m 0
 282.624 540 258.624 564 213.624 566 c 0
 160.624 569 117.624 522 119.624 469 c 0
 121.624 413 156.624 385 206.624 353 c 1
 254.624 383 286.624 425 284.624 495 c 0
332.624 145 m 0
 330.624 208 237.624 241 167.624 292 c 1
 127.624 265 103.624 231 103.624 180 c 0
 103.624 118 105.624 17 212.624 17 c 0
 271.624 17 334.624 69 332.624 145 c 0
EndSplineSet
EndChar
StartChar: nine
Encoding: 57 57 25
Width: 433
Flags: HW
HStem: 196 20<206.614 208.614 206.614 208.614> 555 17<206.614 208.614 206.614 208.614>
Fore
315.614 261 m 1xc0
 288.614 222 251.614 196 207.614 196 c 0
 105.746 197.491 55.7327 290.59 55.7327 383.764 c 0
 55.7327 477.845 106.725 572.002 206.814 572.002 c 0
 207.614 572 l 0
 326.034 571.478 375.873 464.821 375.873 343.599 c 0
 375.873 232.449 333.972 109.053 264.614 44 c 0
 237.614 19 225 0 190 -16 c 1
 185.614 -13 l 1
 246.614 38 269.614 82 297.614 159 c 0
 309.614 197 315.614 223 315.614 261 c 1xc0
207.614 216 m 0
 208.058 215.994 208.502 215.991 208.943 215.991 c 0
 282.88 215.991 318.265 297.683 318.265 380.863 c 0
 318.265 467.131 280.204 555 207.614 555 c 0
 134.879 555 97.352 469.022 97.352 383.664 c 0
 97.352 300.03 133.379 216.99 207.614 216 c 0
EndSplineSet
EndChar
StartChar: less
Encoding: 60 60 28
Width: 690
Fore
457 100 m 1x00
 43 275 l 1
 43 279 l 1
 457 444 l 1
 457 409 l 1
 128 282 l 1
 128 270 l 1
 457 136 l 1
 457 100 l 1x00
EndSplineSet
EndChar
StartChar: equal
Encoding: 61 61 29
Width: 433
HStem: 226 20<311 313 32 34 32 34 311 313> 334 20<311 313 32 34 32 34 311 313>
Fore
312 334 m 1xc0
 33 334 l 1
 33 354 l 1
 312 354 l 1
 312 334 l 1xc0
312 226 m 1
 33 226 l 1
 33 246 l 1
 312 246 l 1
 312 226 l 1
EndSplineSet
EndChar
StartChar: greater
Encoding: 62 62 30
Width: 715
Fore
154 100 m 1x00
 154 136 l 1
 483 270 l 1
 483 282 l 1
 154 409 l 1
 154 444 l 1
 568 279 l 1
 568 275 l 1
 154 100 l 1x00
EndSplineSet
EndChar
StartChar: question
Encoding: 63 63 31
Width: 413
HStem: -6 69<116 118 116 118> 595 111<98 100 141 143>
Fore
80 29 m 0xe0
 80 47.168 96.832 63 117 63 c 0
 138.168 63 155 47.168 155 29 c 0
 155 9.832 138.168 -6 117 -6 c 0
 96.832 -6 80 9.832 80 29 c 0xe0
159 343 m 0
 149 271 148 258 136 182 c 0
 133 162 115 163 113 183 c 0
 107 251 100 301 92 379 c 0
 88 407 79 445 106 450 c 0
 196 467 312 476 312 563 c 0
 312 614 265 639 220 639 c 0
 170 639 137 595 99 595 c 0
 74 595 55 616 55 640 c 0
 55 683 100 706 142 706 c 0
 235 706 333 641 333 543 c 0
 334 456 254 404 186 377 c 0
 170 370 161 360 159 343 c 0
EndSplineSet
EndChar
StartChar: at
Encoding: 64 64 32
Width: 881
Fore
698.992 369.77 m 0x80
 698.992 524.331 571.363 698.981 419.542 698.981 c 0
 212.909 698.981 84.0785 557.801 84.0785 359.142 c 0
 84.0785 191.163 150.62 33.644 402.538 33.644 c 0
 502.971 33.644 567.001 47.1151 643 109 c 1
 695 122 l 1
 615.674 24.3682 552.708 -0.948999 418.75 -0.9491 c 0
 123.266 -0.9491 39.3685 195.99 39.3685 375.247 c 0
 39.3685 598.512 187.109 728 416 728 c 0
 604.062 728 719.272 570.334 719.272 352.511 c 0
 719.272 291.985 643.855 184.914 572.556 184.914 c 0
 536.559 184.914 503.5 213.5 487 259 c 1
 462.5 227 452.062 169.242 400.692 169.242 c 0
 261.203 169.242 219.193 265.985 219.193 365.046 c 0
 219.193 469.952 295.03 571.758 410.297 571.758 c 0
 426.387 571.758 474 550 487 524 c 1
 522 546 l 1
 522 280 l 2
 522 246.705 530.333 218.138 569.926 218.138 c 0
 620.368 218.138 698.992 293.943 698.992 369.77 c 0x80
453 264 m 1
 453 485 l 1
 429.06 505.11 411.47 518.886 384.025 518.886 c 0
 319.879 518.886 286.772 426.93 286.772 347.578 c 0
 286.772 279.753 324.271 218.188 397.366 218.188 c 0
 419.999 218.188 435.996 243.416 453 264 c 1
EndSplineSet
EndChar
StartChar: A
Encoding: 65 65 33
Width: 640
Flags: W
HStem: 0 22<610 612 433 435 433 435 475 477 170 172 209 211 209 211 0 2 0 2 34 36 594 596 610 612> 325 17<400 402 215 217 395 397 220 222>
Fore
611 0 m 1xc0
 434 0 l 1
 434 22 l 1
 476 22 l 2
 491 22 501 38 496 52 c 2
 401 325 l 1
 216 325 l 1
 124 102 l 2
 111 71 132 22 171 22 c 2
 210 22 l 1
 210 0 l 1
 1 0 l 1
 1 22 l 1
 35 22 l 2
 62 22 90 56 100 80 c 2
 309 601 l 1
 291 647 l 1
 309 686 l 1
 532 62 l 2
 540 39 572 22 595 22 c 2
 611 22 l 1
 611 0 l 1xc0
396 342 m 1
 317 575 l 1
 221 342 l 1
 396 342 l 1
EndSplineSet
MinimumDistance: x13,8 x3,19 
EndChar
StartChar: B
Encoding: 66 66 34
Width: 510
Flags: W
HStem: 0 21<274 276 40 42 40 42 93 95> 0 27<195 197 267 269> 363 23<158 160 270 272 302 304 158 160> 634 27<40 42 308 310 303 305 195 197> 640 21<93 95 40 42>
Fore
453 220 m 0xae
 450 105 376 0 275 0 c 2
 41 0 l 1
 41 21 l 1
 94 21 l 2
 112 21 129 41 129 58 c 2
 129 603 l 2
 129 620 112 640 94 640 c 2
 41 640 l 1
 41 661 l 1xb6
 309 661 l 2
 386 661 429 630 429 535 c 0
 429 462 396 412 345 382 c 1
 415 357 455 300.05 453 220 c 0xae
406 535 m 0
 406 593 360 634 304 634 c 2
 196 634 l 2
 170 634 159 606 159 584 c 2
 159 386 l 1
 271 386 l 2
 349 386 406 456 406 535 c 0
426 206 m 0
 426 279 375 363 303 363 c 2
 159 363 l 1
 159 77 l 2
 159 53 167 27 196 27 c 2x64
 268 27 l 2
 361 27 426 135 426 206 c 0
EndSplineSet
EndChar
StartChar: C
Encoding: 67 67 35
Width: 609
Flags: W
HStem: 17 34<461 463 288 290> 641 20G<508 510 514 516> 665 14<312 314 309 311>
Fore
553 228 m 1xe0
 511 14 l 1
 494 14 l 1
 492 37 481 51 462 51 c 0
 411 52 363.056 -4 302 -2 c 0
 82 7 65 201 65 323 c 0
 65 452 114 677 313 679 c 0
 415.01 680 433 621 461 617 c 0
 483.408 614 506 636 509 661 c 1
 515 661 l 1
 526 446 l 1
 518 446 l 1
 493 540 420 665 310 665 c 0
 185 665 102 506 104 336 c 0
 106 191.972 154 17 289 17 c 0
 361 17 451 65 502 143 c 0
 522 174 532 193 542 228 c 1
 553 228 l 1xe0
EndSplineSet
EndChar
StartChar: D
Encoding: 68 68 36
Width: 636
Flags: W
HStem: 0 21<271 273 40 42 40 42 93 95> 0 27<195 197 289 291> 634 27<40 42 338 340 195 197> 640 21<93 95 40 42 371 373>
Fore
587 347 m 0x9c
 587 171.994 452 0 272 0 c 2
 41 0 l 1
 41 21 l 1
 94 21 l 2
 112 21 129 41 129 58 c 2
 129 603 l 2
 129 620 112 640 94 640 c 2
 41 640 l 1
 41 661 l 1x2c
 372 661 l 2x9c
 538 661 587 487.996 587 347 c 0x9c
552 327 m 0
 552 482.698 483.85 621.838 339 634 c 1x6c
 196 634 l 2
 171 634 159 605 159 584 c 2
 159 77 l 2
 159 56 171 27 196 27 c 2
 290 27 l 2
 442.336 27 552 169.966 552 327 c 0
EndSplineSet
EndChar
StartChar: E
Encoding: 69 69 37
Width: 585
Flags: W
HStem: 0 21<468 470 40 42 40 42 93 95> 0 27<196 198 324 326> 354 20<158 160 258 260 258 260 158 160> 634 27<40 42 324 326 196 198> 640 21<93 95 40 42 476 478>
Fore
521 196 m 1xae
 469 0 l 1
 41 0 l 1
 41 21 l 1
 94 21 l 2
 112 21 129 41 129 58 c 2
 129 603 l 2
 129 620 112 640 94 640 c 2
 41 640 l 1
 41 661 l 1x36
 477 661 l 1x2e
 521 461 l 1
 504 461 l 1
 491 491 l 2
 456 571 420 634 325 634 c 2x76
 197 634 l 2
 171 634 159 607 159 584 c 2
 159 374 l 1
 259 374 l 2
 307 374 358 422 358 470 c 2
 358 488 l 1
 373 488 l 1
 373 234 l 1
 358 234 l 1
 358 252 l 2
 358 304 312 354 259 354 c 2
 159 354 l 1
 159 77 l 2
 159 54 171 27 197 27 c 2
 325 27 l 2
 415 27 458 87 491 165 c 2
 504 196 l 1
 521 196 l 1xae
EndSplineSet
EndChar
StartChar: F
Encoding: 70 70 38
Width: 525
Flags: W
HStem: 0 21<193 195 246 248 246 248 40 42 40 42 93 95> 350 21<158 160 255 257 255 257 158 160> 470 21G<479 481 467 469 354 356> 630 31<321 323 196 198 40 42> 640 21<93 95 40 42 458 460>
Fore
480 470 m 1xf6
 468 470 l 1
 461 502 l 2
 445 578 400 630 322 630 c 2
 197 630 l 2
 171 630 159 601 159 579 c 2
 159 371 l 1
 256 371 l 2
 305 371 355 421 355 470 c 2
 355 488 l 1
 370 488 l 1
 370 234 l 1
 355 234 l 1
 355 252 l 2
 355 298 308 350 256 350 c 2
 159 350 l 1
 159 58 l 2
 159 40 176 21 194 21 c 2
 247 21 l 1
 247 0 l 1
 41 0 l 1
 41 21 l 1
 94 21 l 2
 112 21 130 40 130 58 c 2
 130 603 l 2
 130 621 112 640 94 640 c 2xee
 41 640 l 1
 41 661 l 1xf6
 459 661 l 1xee
 480 470 l 1xf6
EndSplineSet
EndChar
StartChar: G
Encoding: 71 71 39
Width: 617
Flags: W
HStem: 339 15<563 565 518 520 425 427 394 396 394 396 563 565>
Fore
564 339 m 1xe0
 519 339 l 2
 496 339 489 313 489 295 c 2
 489 68 l 1
 477 82 l 1
 431 26 375.028 -9 302 -6 c 0
 134 0 63 164.994 62 332 c 0
 62 504 143.94 661 294 664 c 0
 364 665 407 642 456 596 c 1
 500 658 l 1
 520 658 l 1
 533 440 l 1
 522 440 l 1
 494 542 407 639 289 648 c 0
 164.194 658 95 455 94 324 c 0
 92 179.972 171 14 318 10 c 0
 376.066 8 427 44 459 91 c 1
 459 295 l 2
 459 316 452 339 426 339 c 2
 395 339 l 1
 395 354 l 1
 564 354 l 1
 564 339 l 1xe0
EndSplineSet
EndChar
StartChar: H
Encoding: 72 72 40
Width: 644
Flags: W
HStem: 0 21<593 595 387 389 387 389 440 442 193 195 245 247 245 247 40 42 40 42 93 95 540 542 593 595> 338 17<475 477 158 160 158 160 475 477> 640 21<93 95 40 42 40 42 245 247 245 247 193 195 440 442 387 389 387 389 593 595 593 595 540 542>
Fore
594 0 m 1xf8
 388 0 l 1
 388 21 l 1
 441 21 l 2
 459 21 476 41 476 58 c 2
 476 338 l 1
 159 338 l 1
 159 58 l 2
 159 39 175 21 194 21 c 2
 246 21 l 1
 246 0 l 1
 41 0 l 1
 41 21 l 1
 94 21 l 2
 112 21 129 41 129 58 c 2
 129 603 l 2
 129 620 112 640 94 640 c 2
 41 640 l 1
 41 661 l 1
 246 661 l 1
 246 640 l 1
 194 640 l 2
 175 640 159 622 159 603 c 2
 159 355 l 1
 476 355 l 1
 476 603 l 2
 476 620 459 640 441 640 c 2
 388 640 l 1
 388 661 l 1
 594 661 l 1
 594 640 l 1
 541 640 l 2
 522 640 506 622 506 603 c 2
 506 58 l 2
 506 39 522 21 541 21 c 2
 594 21 l 1
 594 0 l 1xf8
EndSplineSet
EndChar
StartChar: I
Encoding: 73 73 41
Width: 296
Flags: W
HStem: 0 21<245 247 40 42 40 42 93 95 193 195 245 247> 640 21<93 95 40 42 40 42 245 247 245 247 193 195>
Fore
246 0 m 1xe0
 41 0 l 1
 41 21 l 1
 94 21 l 2
 112 21 129 41 129 58 c 2
 129 603 l 2
 129 620 112 640 94 640 c 2
 41 640 l 1
 41 661 l 1
 246 661 l 1
 246 640 l 1
 194 640 l 2
 175 640 159 622 159 603 c 2
 159 58 l 2
 159 39 175 21 194 21 c 2
 246 21 l 1
 246 0 l 1xe0
EndSplineSet
EndChar
StartChar: J
Encoding: 74 74 42
Width: 342
Flags: W
HStem: -106 114<87 89 49 51> 640 21<291 293 238 240 138 140 85 87 85 87 291 293>
Fore
292 640 m 1xf0
 239 640 l 2
 220 640 204 622 204 603 c 2
 204 133 l 2
 204 49 197 -106 88 -106 c 0
 40 -106 12 -84 12 -36 c 0
 12 -12 25 8 50 8 c 0
 77 8 88 -12 88 -30 c 0
 88 -59 80 -76 57 -82 c 1
 64 -88 81.4746 -87 99 -91 c 0
 132 -104 174 11 174 71 c 2
 174 603 l 2
 174 620 157 640 139 640 c 2
 86 640 l 1
 86 661 l 1
 292 661 l 1
 292 640 l 1xf0
EndSplineSet
EndChar
StartChar: K
Encoding: 75 75 43
Width: 623
Flags: W
HStem: 0 21<570 572 400 402 192 194 245 247 245 247 40 42 40 42 92 94> 640 21<92 94 40 42 40 42 245 247 245 247 192 194 330 332 572 574>
Fore
571 0 m 1xe0
 401 0 l 1
 401 22 l 1
 431 22 l 2
 456 22 445 49 437 62 c 1
 239 360 l 1
 159 280 l 1
 159 58 l 2
 159 40 174 21 193 21 c 2
 246 21 l 1
 246 0 l 1
 41 0 l 1
 41 21 l 1
 93 21 l 2
 112 21 129 40 129 58 c 2
 129 603 l 2
 129 621 112 640 93 640 c 2
 41 640 l 1
 41 661 l 1
 246 661 l 1
 246 640 l 1
 193 640 l 2
 174 640 159 621 159 603 c 2
 159 305 l 1
 355 514 l 2
 386 548 443 639 350 639 c 2
 331 639 l 1
 331 661 l 1
 573 661 l 1
 573 639 l 1
 446 612 347 476 263 384 c 1
 482 60 l 2
 490 48 518 22 534 22 c 2
 571 22 l 1
 571 0 l 1xe0
EndSplineSet
MinimumDistance: x3,32 
EndChar
StartChar: L
Encoding: 76 76 44
Width: 557
Flags: W
HStem: 0 21<467 469 40 42 40 42 93 95> 640 21<93 95 40 42 40 42 246 248 246 248 193 195>
Fore
518 179 m 1xe0
 468 0 l 1
 41 0 l 1
 41 21 l 1
 94 21 l 2
 122 21 130 50 130 73 c 2
 130 603 l 2
 130 621 112 640 94 640 c 2
 41 640 l 1
 41 661 l 1
 247 661 l 1
 247 640 l 1
 194 640 l 2
 175 640 160 621 160 603 c 2
 160 70 l 2
 160 47 172 20 198 20 c 2
 318 20 l 2
 407 20 482 97 506 179 c 1
 518 179 l 1xe0
EndSplineSet
EndChar
StartChar: M
Encoding: 77 77 45
Width: 794
Flags: W
HStem: 0 22<743 745 537 539 395 397 394 396 225 227 262 264 262 264 30 32 30 32 79 81> 640 21<108 110 55 57 55 57 172 174 637 639 743 745 743 745 690 692>
Fore
744 0 m 1xf0
 538 0 l 1
 538 21 l 1
 591 21 l 2
 609 21 627 40 627 58 c 2
 627 607 l 1
 396 0 l 1
 395 0 l 1
 161 594 l 1
 161 114 l 2
 161 78 182 22 226 22 c 2
 263 22 l 1
 263 0 l 1
 31 0 l 1
 31 22 l 1
 80 22 l 2
 123 22 144 79 144 114 c 2
 144 603 l 2
 144 620 127 640 109 640 c 2
 56 640 l 1
 56 661 l 1
 173 661 l 1
 409 62 l 1
 638 661 l 1
 744 661 l 1
 744 640 l 1
 691 640 l 2
 672 640 657 621 657 603 c 2
 657 58 l 2
 657 40 672 21 691 21 c 2
 744 21 l 1
 744 0 l 1xf0
EndSplineSet
EndChar
StartChar: N
Encoding: 78 78 46
Width: 720
Flags: W
HStem: 0 22<556 558 548 550 225 227 263 265 263 265 30 32 30 32 79 81> 640 21<108 110 56 58 56 58 156 158 437 439 669 671>
Fore
670 639 m 1xf0
 622 639 l 2
 577 639 557 584 557 547 c 2
 557 0 l 1
 549 0 l 1
 161 598 l 1
 161 114 l 2
 161 79 183 22 226 22 c 2
 264 22 l 1
 264 0 l 1
 31 0 l 1
 31 22 l 1
 80 22 l 2
 123 22 145 79 145 114 c 2
 145 603 l 2
 145 621 127 640 109 640 c 2
 57 640 l 1
 57 661 l 1
 157 661 l 1
 540 80 l 1
 540 547 l 2
 540 584 522 639 476 639 c 2
 438 639 l 1
 438 661 l 1
 670 661 l 1
 670 639 l 1xf0
EndSplineSet
EndChar
StartChar: O
Encoding: 79 79 47
Width: 658
HStem: -21 21<330 332 329 331> 650 21<329 331 330 332>
Fore
331 -21 m 0xc0
 148.125 -21 61.625 171.806 61.625 332.709 c 0
 61.625 503.812 154.375 671 330 671 c 0
 507.75 671 600.5 506.39 600.5 337.584 c 0
 600.5 160.389 519.25 -21 331 -21 c 0xc0
330 0 m 0
 489.626 0 567.875 165.748 567.875 329.381 c 0
 567.875 480.754 489.876 650 331 650 c 0
 171.749 650 90.751 487.988 90.751 324.231 c 0
 90.751 166.551 164 0 330 0 c 0
EndSplineSet
EndChar
StartChar: P
Encoding: 80 80 48
Width: 448
Flags: W
HStem: 0 21<194 196 246 248 246 248 41 43 41 43 94 96> 369 14<267 269 159 161 159 161 258 260> 641 20<41 43 259 261 159 161> 647 14<94 96 41 43 282 284>
Fore
406.334 511.666 m 0xd8
 397.334 454.622 353.596 369 268 369 c 2
 160 369 l 1
 160 58 l 2
 160 39 176 21 195 21 c 2
 247 21 l 1
 247 0 l 1
 42 0 l 1
 42 21 l 1
 95 21 l 2
 113 21 130 41 130 58 c 2
 130 609 l 2
 130 627 114 647 95 647 c 2
 42 647 l 1
 42 661 l 1xe8
 283 661 l 2xd8
 366.26 661 413.334 564 406.334 511.666 c 0xd8
380 519.666 m 0
 380 582 327.028 641 260 641 c 2xe8
 160 641 l 1
 160 383 l 1
 259 383 l 2
 336.754 383 379 470.216 380 519.666 c 0
EndSplineSet
EndChar
StartChar: Q
Encoding: 81 81 49
Width: 665
Flags: W
HStem: 645 21<334 336 334 336>
Fore
554 27 m 1x80
 554 -38 513.06 -90 446 -88 c 0
 363 -85 294 -5 230 -7 c 0
 206.956 -8 187 -22 178 -35 c 1
 223 16 252 -99 184 -99 c 0
 163 -99 153 -80 153 -61 c 0
 153 -26 174 -4 206 6 c 1
 105.191 67.8555 62.5098 187.189 62.5098 310 c 0
 62.5098 486.002 159.804 666 335 666 c 0
 520.888 666 607.643 486.738 607.643 307 c 0
 607.643 154.998 532.784 10.2314 398 -15 c 1
 421 -22 445 -27 473 -27 c 0
 504 -27 546 -8 546 27 c 1
 554 27 l 1x80
351 2 m 1
 496.779 12.2842 571.815 164.269 571.815 318.5 c 0
 571.815 479.725 493.593 645 335 645 c 0
 174.649 645 101.548 473.294 101.548 311 c 0
 101.548 184.7 155.043 61.3535 254 17 c 1
 283 22 324 10 351 2 c 1
EndSplineSet
EndChar
StartChar: R
Encoding: 82 82 50
Width: 595
Flags: W
HStem: 0 12<565 567 552 554 565 567> 0 21<526 528 193 195 245 247 245 247 40 42 40 42 93 95> 369 21<265 267 158 160 158 160 272 274> 634 27<40 42 273 275 158 160> 640 21<93 95 40 42 308 310>
Fore
566 0 m 1xa4
 527 0 l 2x6c
 484 0 462 22 442 57 c 2
 266 369 l 1
 159 369 l 1
 159 58 l 2
 159 39 175 21 194 21 c 2
 246 21 l 1
 246 0 l 1
 41 0 l 1
 41 21 l 1
 94 21 l 2
 112 21 129 41 129 58 c 2
 129 602 l 2
 129 620 113 640 94 640 c 2
 41 640 l 1
 41 661 l 1x34
 309 661 l 2xac
 393.362 661 439.334 576 432.334 507.666 c 0
 424.334 455.458 369.888 379.18 299 371 c 1
 472 72 l 2
 481 58 531 12 553 12 c 2
 566 12 l 1
 566 0 l 1xa4
395 520.334 m 0
 395 586 340.876 634 274 634 c 2x34
 159 634 l 1
 159 390 l 1
 273 390 l 2
 350.934 390 394 474.37 395 520.334 c 0
EndSplineSet
EndChar
StartChar: S
Encoding: 83 83 51
Width: 534
Flags: W
HStem: -10 20<285 287 271 273> 660 14<253 255 248 250>
Fore
477 174 m 0xf0
 477 97 432 -10 286 -10 c 0
 204 -10 182 45 157 40 c 0
 138 39 116 7 109 -2 c 1
 101 -2 l 1
 90 215 l 1
 101 215 l 1
 124 131 169 10 272 10 c 0
 344 10 452 51 452 131 c 0
 452 380 71 288.996 72 490 c 0
 73 590 149 674 254 674 c 0
 362 674 344 629 385 624 c 0
 399.072 623 425 655 433 667 c 1
 441 667 l 1
 452 452 l 1
 441 452 l 1
 418 542 355 660 249 660 c 0
 177 660 105 599 105 525 c 0
 105 326.978 477 383 477 174 c 0xf0
EndSplineSet
EndChar
StartChar: T
Encoding: 84 84 52
Width: 661
Flags: W
HStem: 0 21<369 371 422 424 422 424 216 218 216 218 269 271> 633 28<451 453 371 373 267 269 226 228 73 75 590 592>
Fore
648 493 m 1xe0
 631 492 l 1
 610 574 533 633 452 633 c 2
 372 633 l 2
 347 633 335 604 335 583 c 2
 335 58 l 2
 335 39 351 21 370 21 c 2
 423 21 l 1
 423 0 l 1
 217 0 l 1
 217 21 l 1
 270 21 l 2
 288 21 305 41 305 58 c 2
 305 583 l 2
 305 606 294 633 268 633 c 2
 227 633 l 2
 137 633 54 588 35 492 c 1
 16 493 l 1
 74 661 l 1
 591 661 l 1
 648 493 l 1xe0
EndSplineSet
EndChar
StartChar: U
Encoding: 85 85 53
Width: 625
Flags: W
HStem: -11 16<324 326 321 323> 640 21<574 576 521 523 67 69 14 16 14 16 220 222 220 222 167 169 439 441 387 389 387 389 574 576>
Fore
575 640 m 1xf0
 522 640 l 2
 503 640 487 622 487 603 c 2
 487 220 l 2
 487 104 445 -10 325 -11 c 0
 178.972 -13 103 20 103 181 c 2
 103 603 l 2
 103 620 86 640 68 640 c 2
 15 640 l 1
 15 661 l 1
 221 661 l 1
 221 640 l 1
 168 640 l 2
 149 640 133 622 133 603 c 2
 133 132 l 2
 133 54 239 5 322 5 c 0
 420 5 476 107 476 209 c 2
 476 603 l 2
 476 621 459 640 440 640 c 2
 388 640 l 1
 388 661 l 1
 575 661 l 1
 575 640 l 1xf0
EndSplineSet
EndChar
StartChar: V
Encoding: 86 86 54
Width: 634
Flags: HMW
HStem: 0 21G<266.001 268.001 262.332 264.332> 639 22<583 585 571 573 -1 1 -14 -12 -14 -12 148 150 148 150 103 105 392 394 367 369 367 369 583 585>
Fore
584 639 m 1xc0
 572 639 l 2
 519 639 464 562 449 517 c 1
 267.001 0 l 1
 263.332 0 l 1
 55 592 l 1
 46 618 29 639 0 639 c 2
 -13 639 l 1
 -13 661 l 1
 149 661 l 1
 149 639 l 1
 104 639 l 2
 75 639 82 608 88 590 c 1
 273 73 l 5
 431 509 l 2
 452 566 482 639 393 639 c 2
 368 639 l 1
 368 661 l 1
 584 661 l 1
 584 639 l 1xc0
EndSplineSet
EndChar
StartChar: W
Encoding: 87 87 55
Width: 932
Flags: HW
HStem: 0 21G<557 559 562 564 262 264 266 268> 639 22<881 883 862 864 -1 1 -14 -12 -14 -12 152 154 152 154 107 109 294 296 281 283 281 283 444 446 444 446 406 408 687 689 662 664 662 664 881 883>
Fore
882 639 m 1xc0
 863 639 l 2
 802 639 767 573 748 522 c 2
 563.5 0 l 1
 556.5 0 l 1
 556.5 0 407 423 408 423 c 1
 267.5 0 l 1
 261.5 0 l 1
 55 592 l 1
 46 618 29 639 0 639 c 2
 -13 639 l 1
 -13 661 l 1
 153 661 l 1
 153 639 l 1
 108 639 l 2
 79 639 86 608 92 590 c 1
 274 79 l 1
 403 448 l 1
 351 592 l 2
 342 618 323 639 295 639 c 2
 282 639 l 1
 282 661 l 1
 445 661 l 1
 445 639 l 1
 407 639 l 2
 379 639 376 611 384 590 c 2
 571 82 l 1
 726 509 l 2
 740 548 753 639 688 639 c 2
 663 639 l 1
 663 661 l 1
 882 661 l 1
 882 639 l 1xc0
EndSplineSet
MinimumDistance: x19,24 x28,1 x9,14 
EndChar
StartChar: X
Encoding: 88 88 56
Width: 637
Flags: W
HStem: 0 28<588 590> 0 28<406 408 406 408 451 453 216 218 265 267 265 267 25 27 25 27 41 43> 0 31<554 556 588 590> 639 22<586 588 565 567 69 71 231 233 231 233 186 188 395 397 370 372 370 372 586 588>
Fore
587 639 m 1x30
 566 639 l 2
 506 639 453.418 577.744 428 531 c 2
 326 348 l 1
 327 348 499 72 499 72 c 2
 505.75 61.8438 540 31 555 31 c 2
 589 31 l 1x30
 589 0 l 1x90
 407 0 l 1x50
 407 28 l 1
 452 28 l 2
 475 28 470.906 64.9414 463 78 c 2
 315 319 l 1
 222 151 l 2
 219.484 143.698 152 28 217 28 c 2
 266 28 l 1
 266 0 l 1
 26 0 l 1
 26 28 l 1
 42 28 l 2
 101 28 161.29 88.4277 187 136 c 2
 300 344 l 1
 151 594 l 2
 140.532 610.72 120 636 97 636 c 2
 70 636 l 1
 70 661 l 1
 232 661 l 1
 232 639 l 1
 187 639 l 2
 156 639 171.522 604.708 180 590 c 2
 314 372 l 1
 387 510 l 2
 388.506 517.704 463 639 396 639 c 2
 371 639 l 1
 371 661 l 1
 587 661 l 1
 587 639 l 1x30
EndSplineSet
EndChar
StartChar: Y
Encoding: 89 89 57
Width: 575
Flags: W
HStem: 0 21<266 268 319 321 319 321 113 115 113 115 166 168> 639 22<524 526 489 491 -22 -20 143 145 143 145 114 116 332 334 306 308 306 308 524 526>
Fore
525 639 m 1xe0
 490 639 l 2
 450 639 386.624 560.271 366 531 c 2
 233 341 l 1
 233 58 l 2
 233 40 248 21 267 21 c 2
 320 21 l 1
 320 0 l 1
 114 0 l 1
 114 21 l 1
 167 21 l 2
 185 21 203 40 203 58 c 2
 203 334 l 1
 54 594 l 2
 41.3662 616.214 14 636 -13 636 c 2
 -21 636 l 1
 -21 661 l 1
 144 661 l 1
 144 639 l 1
 115 639 l 2
 79 639 72.3115 621.182 90 590 c 2
 222 357 l 1
 325 510 l 2
 341.226 534.846 411 639 333 639 c 2
 307 639 l 1
 307 661 l 1
 525 661 l 1
 525 639 l 1xe0
EndSplineSet
EndChar
StartChar: Z
Encoding: 90 90 58
Width: 564
Flags: W
HStem: 0 22<451 453 49 51 105 107 289 291> 469 21G<94 96 73 75> 639 22<448 450 278 280 118 120 496 498>
Fore
511 206 m 1xe0
 452 0 l 1
 50 0 l 1
 50 21 l 1
 449 639 l 1
 279 639 l 2
 217 639 125 577 108 515 c 2
 95 469 l 1
 74 469 l 1
 119 661 l 1
 497 661 l 1
 497 639 l 1
 106 22 l 1
 290 22 l 2
 362 22 443 92 473 157 c 2
 495 204 l 1
 511 206 l 1xe0
EndSplineSet
EndChar
StartChar: bracketleft
Encoding: 91 91 59
Width: 451
HStem: -210 27<239 241 74 76 105 107 239 241> 643 27<74 76 239 241 239 241 105 107>
Fore
240 -210 m 1xe0
 75 -210 l 1
 75 670 l 1
 240 670 l 1
 240 643 l 1
 106 643 l 1
 106 -183 l 1
 240 -183 l 1
 240 -210 l 1xe0
EndSplineSet
EndChar
StartChar: backslash
Encoding: 92 92 60
Width: 508
HStem: 561 20G<37 39 72 74>
Fore
385 -19 m 1x80
 350 -19 l 1
 38 581 l 1
 73 581 l 1
 385 -19 l 1x80
EndSplineSet
EndChar
StartChar: bracketright
Encoding: 93 93 61
Width: 378
HStem: -210 27<238 240 73 75 73 75 202 204> 643 27<202 204 73 75 73 75 238 240>
Fore
239 -210 m 1xe0
 74 -210 l 1
 74 -183 l 1
 203 -183 l 1
 203 643 l 1
 74 643 l 1
 74 670 l 1
 239 670 l 1
 239 -210 l 1xe0
EndSplineSet
EndChar
StartChar: asciicircum
Encoding: 94 94 62
Width: 430
Fore
352 368 m 1x00
 324 368 l 1
 202 492 l 1
 191 492 l 1
 70 368 l 1
 38 368 l 1
 183 555 l 1
 208 555 l 1
 352 368 l 1x00
EndSplineSet
EndChar
StartChar: underscore
Encoding: 95 95 63
Width: 668
HStem: -200 40<494 496 -1 1 -1 1 494 496>
Fore
495 -200 m 1x80
 0 -200 l 1
 0 -160 l 1
 495 -160 l 1
 495 -200 l 1x80
EndSplineSet
EndChar
StartChar: quoteleft
Encoding: 96 8216 2052
Width: 220
Fore
21 539 m 1x00
 26 551 30 560 39 572 c 0
 52 591 63 601 83 611 c 0
 96 617 98 620 112 624 c 1
 124 609 l 1
 113 606 107 602 99 595 c 0
 91 587 84 582 83 570 c 0
 81 562 81 555 85 549 c 1
 123 524 105 452 55 456 c 0
 10 459 0 510 21 539 c 1x00
EndSplineSet
EndChar
StartChar: a
Encoding: 97 97 65
Width: 416
Flags: W
HStem: -9 35<328 330 155 157 327 329 186 188>
Fore
367 43 m 2xc0
 367 25 349.174 -12 329 -9 c 0
 269 -4 269 18 266 72 c 1
 247 33 202 -9 156 -9 c 0
 88 -9 71 25.8848 68 104 c 0
 63 212 192 239 266 280 c 1
 266 386 l 2
 266 422 232 442 199 442 c 0
 177 442 147 438 127 426 c 1
 130 408 131 397 127 379 c 0
 119 346 110 309 77 309 c 0
 43 309 86 469 208 472 c 0
 234 472 297 456 297 389 c 2
 297 65 l 2
 297 46 304 27 328 26 c 0
 345.058 25 361 53 367 68 c 1
 367 43 l 2xc0
266 103 m 1
 266 260 l 1
 198 258 93 196 99 134 c 0
 106 38.4854 132 26 187 26 c 0
 230 26 249 70 266 103 c 1
EndSplineSet
EndChar
StartChar: b
Encoding: 98 98 66
Width: 463
Flags: W
Fore
417 243 m 0x80
 414 95 348 -11 246 -9 c 0
 196.98 -8 161 3 128 32 c 0
 127 32 94 -9 94 -9 c 1
 94 602 l 1
 49 611 l 1
 49 619 l 1
 125 683 l 1
 125 428 l 1
 156 456 195 474 246 472 c 0
 368.132 468 420 413 417 243 c 0x80
372 239 m 0
 372 401 285.666 454 251.994 459 c 0
 160.126 472 125 386 125 322 c 2
 125 120 l 1
 134 58 163.952 6 246 4 c 0
 321 2 372 123 372 239 c 0
EndSplineSet
EndChar
StartChar: c
Encoding: 99 99 67
Width: 424
Flags: W
HStem: 472 21G<233 235>
Fore
372 113 m 1x80
 345 53 286 -9 217 -9 c 0
 81 -9 51 107.992 51 226 c 0
 51 343 129 472 234 472 c 0
 372 472 389.338 307 325 312 c 0
 286 314 272 365 281 402 c 0
 284 415 285 422 293 432 c 1
 272 453 263.034 455 234 454 c 0
 158 451 91 355 94 276 c 0
 98 168.85 137 48 228 53 c 0
 296.132 56 342 102 372 157 c 1
 372 113 l 1x80
EndSplineSet
EndChar
StartChar: d
Encoding: 100 100 68
Width: 466
Flags: W
Fore
397 45 m 1x80
 343 -9 l 1
 343 21 l 1
 310 1 267.024 -10 225 -9 c 0
 92 -5 47 107.885 51 228 c 0
 55 324 106 473 225 472 c 0
 272.022 471 312 459 343 432 c 1
 343 598 l 1
 295 608 l 1
 298 621 l 1
 374 680 l 1
 374 73 l 1
 397 63 l 1
 397 45 l 1x80
343 118 m 1
 343 301 l 2
 343 428 322 457 225 457 c 0
 129 458 96 336 99 239 c 0
 101 134.914 124 14 227 5 c 0
 293 -1 333 42 343 118 c 1
EndSplineSet
EndChar
StartChar: e
Encoding: 101 101 69
Width: 436
Flags: W
HStem: -9 40<217 219 224 226> 290 28<381 383 99 101 334 336 104 106> 456 16<230 232 230 232>
Fore
382 290 m 1xf0
 100 290 l 1
 98 276 92 261 92 246 c 0
 92 135 128 31 218 31 c 0
 289 31 347 72 378 133 c 1
 378 95 l 1
 342 23 305 -9 225 -9 c 0
 102 -9 59 79.8457 53 242 c 0
 49 359 105 472 231 472 c 0
 326 472 382 367 382 290 c 1xf0
335 318 m 1
 335 376 299 456 231 456 c 0
 158 456 121 392 105 318 c 1
 335 318 l 1
EndSplineSet
EndChar
StartChar: f
Encoding: 102 102 70
Width: 286
Flags: W
HStem: 0 15<171 173 216 218 216 218 45 47 45 47 89 91> 421 12<146 148 199 201 199 201 146 148 115 117 70 72 70 72 115 117> 665 21G<192 194>
Fore
232 615 m 0xf0
 233 584 174 593 174 628 c 0
 174 636 176 642 180 649 c 1
 159 658 147 640 147 619 c 2
 147 433 l 1
 200 433 l 1
 200 421 l 1
 147 421 l 1
 147 42 l 2
 147 29 158 15 172 15 c 2
 217 15 l 1
 217 0 l 1
 46 0 l 1
 46 15 l 1
 90 15 l 2
 103 15 116 29 116 42 c 2
 116 421 l 1
 71 421 l 1
 71 433 l 1
 116 433 l 1
 116 570 l 2
 116 624 139 665 193 665 c 0
 221 665 231 647 232 615 c 0xf0
EndSplineSet
EndChar
StartChar: g
Encoding: 103 103 71
Width: 474
Flags: W
HStem: -212 13<232 234 232 234> 158 18<219 221 219 221> 453 13<219 221 219 221>
Fore
440 -30 m 0xf8
 440 -136.01 346 -212 233 -212 c 0
 139 -212 42 -163.042 40 -67 c 0
 39 -21 84 40 131 62 c 1
 93 75 68 77 68 106 c 0
 68 151 110 167 157 172 c 1
 113.475 209.262 98.3252 258.173 98.3252 307 c 0
 98.3252 376.632 143.946 466 220 466 c 0
 250 466 291 448 315 419 c 1
 315 405.779 315 446 315 446 c 2
 313.968 447.134 314.232 478.235 341.334 478.235 c 0
 364.319 478.235 376.666 463.253 376.666 441.668 c 0
 376.666 439.666 369.834 416.168 344.332 416.168 c 0
 335.649 416.168 327.666 423 318 430.67 c 1
 318 430.67 318 414 318 413 c 0
 340.489 380.758 347.106 351.343 347.106 303.5 c 0
 347.106 235.201 297.026 158 220 158 c 0
 214 158 208 158 202 159 c 1
 163 156 108 158 108 131 c 0
 108 55 440 92 440 -30 c 0xf8
220 176 m 0
 280.37 176 316 236.688 316 301.5 c 0
 316 364.25 284.536 453 220 453 c 0
 158.2 453 131.501 368.584 131.501 306 c 0
 131.501 239.629 162.819 176 220 176 c 0
396 -64 m 0
 396 21 242 31 145 58 c 1
 102 28 76 -19 75 -67 c 0
 74 -143.014 158 -199 233 -199 c 0
 310 -199 396 -141 396 -64 c 0
EndSplineSet
EndChar
StartChar: h
Encoding: 104 104 72
Width: 493
Flags: W
HStem: 0 15<454 456 283 285 283 285 328 330 170 172 215 217 215 217 44 46 44 46 88 90 409 411 454 456>
Fore
455 0 m 1xe0
 284 0 l 1
 284 15 l 1
 329 15 l 2
 342 15 354 29 354 42 c 2
 354 370 l 2
 354 413 319 447 274 449 c 0
 224.918 451 172 408 146 378 c 1
 146 42 l 2
 146 29 157 15 171 15 c 2
 216 15 l 1
 216 0 l 1
 45 0 l 1
 45 15 l 1
 89 15 l 2
 102 15 115 29 115 42 c 2
 115 570 l 1
 60 586 l 1
 60 598 l 1
 146 665 l 1
 146 402 l 1
 177 435 232.836 475 288 472 c 0
 349 468 385 468 385 402 c 2
 385 42 l 2
 385 30 397 15 410 15 c 2
 455 15 l 1
 455 0 l 1xe0
EndSplineSet
EndChar
StartChar: i
Encoding: 105 105 73
Width: 254
Flags: W
HStem: 0 15<214 216 42 44 42 44 87 89 169 171 214 216>
Fore
128.833 596.292 m 0xc0
 138.146 596.292 141.1 584.739 141.1 583 c 0
 141.1 580.216 137.411 568.899 127.733 568.899 c 0
 117.933 568.899 114 580.056 114 583 c 0
 114 585.888 118.658 596.292 128.833 596.292 c 0xc0
215 0 m 1
 43 0 l 1
 43 15 l 1
 88 15 l 2
 101 15 114 29 114 42 c 2
 114 378 l 1
 61 396 l 1
 61 407 l 1
 144 474 l 1
 144 42 l 2
 144 29 157 15 170 15 c 2
 215 15 l 1
 215 0 l 1
EndSplineSet
EndChar
StartChar: j
Encoding: 106 106 74
Width: 215
Flags: W
HStem: -144 12<56 58 51 53>
Fore
117.833 606.292 m 0xc0
 127.146 606.292 130.1 594.739 130.1 593 c 0
 130.1 590.216 126.411 578.899 116.733 578.899 c 0
 106.933 578.899 103 590.056 103 593 c 0
 103 595.888 107.658 606.292 117.833 606.292 c 0xc0
134 -35 m 2
 134 -82 112.072 -144 57 -144 c 0
 13.8711 -144 6.63086 -116.011 6.63086 -101.891 c 0
 6.63086 -85.3428 16.5303 -66.0146 34.9961 -66.0146 c 0
 61.6094 -66.0146 72.2344 -80.3613 72.2344 -96.6797 c 0
 72.2344 -113.411 61.9131 -125.811 52 -132 c 1
 63 -132 63 -130 73 -125 c 0
 95 -113 103 -94 103 -69 c 2
 103 404 l 1
 63 417 l 1
 63 417 l 1
 134 474 l 1
 134 -35 l 2
EndSplineSet
EndChar
StartChar: k
Encoding: 107 107 75
Width: 513
Flags: W
HStem: 0 14<463 465 283 285 283 285 328 330 171 173 216 218 216 218 45 47 45 47 89 91 417 419 463 465> 450 13<272 274 243 245 243 245 443 445 443 445>
Fore
464 0 m 1xe0
 284 0 l 1
 284 14 l 1
 329 14 l 2
 344 14 337 27 333 34 c 2
 196 264 l 1
 147 214 l 1
 147 41 l 2
 147 28 158 14 172 14 c 2
 217 14 l 1
 217 0 l 1
 46 0 l 1
 46 14 l 1
 90 14 l 2
 103 14 116 28 116 41 c 2
 116 575 l 1
 61 590 l 1
 61 603 l 1
 147 670 l 1
 147 217 l 1
 277 340 l 2
 306 367 334 450 273 450 c 2
 244 450 l 1
 244 463 l 1
 444 463 l 1
 444 450 l 1
 395 444 361 424 325 392 c 2
 224 297 l 1
 385 34 l 1
 389 24 407 14 418 14 c 2
 464 14 l 1
 464 0 l 1xe0
EndSplineSet
MinimumDistance: x3,29 x3,29 x3,29 x3,29 
EndChar
StartChar: l
Encoding: 108 108 76
Width: 260
Flags: W
HStem: 0 15<216 218 45 47 45 47 90 92 171 173 216 218>
Fore
217 0 m 1xc0
 46 0 l 1
 46 15 l 1
 91 15 l 2
 104 15 116 30 116 42 c 2
 116 575 l 1
 61 590 l 1
 61 603 l 1
 147 670 l 1
 147 42 l 2
 147 29 159 15 172 15 c 2
 217 15 l 1
 217 0 l 1xc0
EndSplineSet
EndChar
StartChar: m
Encoding: 109 109 77
Width: 728
Flags: HW
HStem: 0 15<691 693 520 522 520 522 564 566 406 408 451 453 451 453 280 282 280 282 325 327 167 169 211 213 211 213 40 42 40 42 85 87 646 648 691 693>
VStem: 111 31<378 380 41 43 41 43 378 380 473 475 402 404> 351 31<379 381 41 43 41 43 368 370 403 405> 591 31<41 43 368 370 396 398 41 43>
Fore
692 0 m 1xf0
 521 0 l 1
 521 15 l 1
 565 15 l 2
 578 15 591 29 591 42 c 2
 591 369 l 2
 591 412 566.5 448 511 448 c 0
 464.5 448 410 409 382 380 c 1
 382 42 l 2
 382 30 394 15 407 15 c 2
 452 15 l 1
 452 0 l 1
 281 0 l 1
 281 15 l 1
 326 15 l 2
 339 15 351 29 351 42 c 2
 351 369 l 2
 351 412 315.044 448 270 448 c 0
 221.5 448 169 408 142 379 c 1
 142 42 l 2
 142 29 155 15 168 15 c 2
 212 15 l 1
 212 0 l 1
 41 0 l 1
 41 15 l 1
 86 15 l 2
 100 15 111 29 111 42 c 2
 111 379 l 1
 57 394 l 1
 57 407 l 1
 142 474 l 1
 142 403 l 1
 174 435 228.566 472 284 472 c 4
 332.5 472 370.5 449.5 382 404 c 5
 414 436 470.751 472 525 472 c 0
 558.5 472 622 446 622 386.5 c 2
 622 42 l 2
 622 29 634 15 647 15 c 2
 692 15 l 1
 692 0 l 1xf0
EndSplineSet
EndChar
StartChar: n
Encoding: 110 110 78
Width: 487
Flags: W
HStem: 0 15<450 452 279 281 279 281 324 326 167 169 211 213 211 213 40 42 40 42 85 87 405 407 450 452>
Fore
451 0 m 1xe0
 280 0 l 1
 280 15 l 1
 325 15 l 2
 338 15 350 29 350 42 c 2
 350 369 l 2
 350 412 315 446 270 448 c 0
 220.918 450 169 408 142 379 c 1
 142 42 l 2
 142 29 155 15 168 15 c 2
 212 15 l 1
 212 0 l 1
 41 0 l 1
 41 15 l 1
 86 15 l 2
 100 15 111 29 111 42 c 2
 111 379 l 1
 57 394 l 1
 57 407 l 1
 142 474 l 1
 142 403 l 1
 174 435 228.836 475 284 472 c 0
 341 468 381 463 381 397 c 2
 381 42 l 2
 381 30 393 15 406 15 c 2
 451 15 l 1
 451 0 l 1xe0
EndSplineSet
EndChar
StartChar: o
Encoding: 111 111 79
Width: 414
Flags: W
HStem: -9 15<211 213 211 213> 455 17<211 213 211 213>
Fore
212 -9 m 0xc0
 104.727 -9 50.875 110.786 50.875 230.806 c 0
 50.875 348.454 103.773 472 212 472 c 0
 317.44 472 371.25 350.25 371.25 234.5 c 0
 371.25 113.252 319.56 -9 212 -9 c 0xc0
212 6 m 0
 300.28 6 342.75 120.252 342.75 233.5 c 0
 342.75 345.25 298.72 455 212 455 c 0
 123.738 455 80 339.25 80 229.5 c 0
 80 117.584 124.262 6 212 6 c 0
EndSplineSet
EndChar
StartChar: p
Encoding: 112 112 80
Width: 464
Flags: W
HStem: -147 15<149 151 194 196 194 196 23 25 23 25 68 70> 455 17<244 246 265 267>
Fore
416 243 m 0xe0
 413 108.932 343 -11 245 -9 c 0
 198.978 -8 157 2 125 28 c 1
 125 -105 l 2
 125 -118 137 -132 150 -132 c 2
 195 -132 l 1
 195 -147 l 1
 24 -147 l 1
 24 -132 l 1
 69 -132 l 2
 82 -132 94 -117 94 -105 c 2
 94 369 l 1
 51 392 l 1
 51 405 l 1
 125 465 l 1
 125 424 l 1
 155 461 197.957 472 245 472 c 0
 372 472 419 414 416 243 c 0xe0
371 239 m 0
 371 399 336.623 455 266 455 c 0
 162 455 125 391 125 331 c 2
 125 116 l 1
 135 55 164.95 7 245 5 c 0
 322 3 371 123 371 239 c 0
EndSplineSet
EndChar
StartChar: q
Encoding: 113 113 81
Width: 463
Flags: HW
HStem: -165 15<443 445 342 344 398 400 443 445>
Fore
444 -165 m 1xc0
 343 -165 l 1
 343 -165 343 -61 343 21 c 1
 311 1 268.036 -9 226 -9 c 0
 104 -9 52 82 52 228 c 0
 52 366.033 112 472 226 472 c 0
 274.03 472 301 458 333 429 c 1
 374 474 l 1
 374 -123 l 2
 374 -136 385 -150 399 -150 c 2
 444 -150 l 1
 444 -165 l 1xc0
343 115 m 0
 343 116 343 316 343 316 c 2
 343 408 320 457 226 457 c 0
 134 457 100 336.063 100 239 c 0
 100 132 123.92 4 228 4 c 0
 302.727 4 343 52 343 115 c 0
EndSplineSet
EndChar
StartChar: r
Encoding: 114 114 82
Width: 291
Flags: W
HStem: 0 15<151 153 196 198 196 198 25 27 25 27 70 72>
Fore
265.5 433.5 m 0xc0
 263.5 404.5 233.474 404.5 224 401.5 c 0
 204 400.5 169.5 407.5 183.5 428 c 0
 187.5 429.648 185.842 429.842 188 429 c 1
 161 424 143 400 127 380 c 1
 127 42 l 2
 127 30 139 15 152 15 c 2
 197 15 l 1
 197 0 l 1
 26 0 l 1
 26 15 l 1
 71 15 l 2
 84 15 96 29 96 42 c 2
 96 393 l 1
 56 409 l 1
 56 412 l 1
 127 469 l 1
 127 402 l 1
 153.508 431.134 155.13 471 227 470 c 0
 248 469 268.5 449.068 265.5 433.5 c 0xc0
EndSplineSet
EndChar
StartChar: s
Encoding: 115 115 83
Width: 387
Flags: W
Fore
332 119 m 0x00
 332 43 283 -16 207 -9 c 0
 166.61 -5 117 11 79 26 c 1
 79 136 l 1
 78 133 l 1
 86 71 143 18 214 6 c 0
 262.352 -2 296 51.9795 297 100 c 0
 299 227 56 212 58 347 c 0
 59 420.014 108.676 477 186 472 c 0
 233 469 268 457 304 440 c 1
 304 330 l 1
 306 333 l 1
 296 389 263 455 193 455 c 0
 146 455 92 429.196 95 383 c 0
 102 236 332 262 332 119 c 0x00
EndSplineSet
EndChar
StartChar: t
Encoding: 116 116 84
Width: 245
Flags: W
HStem: 420 36<87 89 31 33 118 120 193 195 180 182 118 120>
Fore
184 64 m 1xc0
 177 42 173 -9 114 -9 c 0
 69 -9 88 35 88 73 c 2
 88 420 l 1
 32 420 l 1
 32 435 l 1
 114 560 l 1
 119 546 l 1
 119 456 l 1
 194 456 l 1
 181 420 l 1
 119 420 l 1
 119 65 l 2
 119 48 132.942 37 150 36 c 0
 163 33 174 70 182 83 c 1
 184 64 l 1xc0
EndSplineSet
EndChar
StartChar: u
Encoding: 117 117 85
Width: 469
Flags: W
HStem: 448 15<61 63 16 18 16 18 117 119 314 316 269 271 269 271 370 372>
Fore
429 69 m 1xe0
 340 -9 l 1
 340 65 l 1
 310 28 263 -9 188 -9 c 0
 128 -9 87 59 87 110 c 2
 87 421 l 2
 87 433 75 448 62 448 c 2
 17 448 l 1
 17 463 l 1
 118 463 l 1
 118 105 l 2
 118 47 156.804 24 203 21 c 0
 260 18 312 61 340 93 c 1
 340 421 l 2
 340 433 328 448 315 448 c 2
 270 448 l 1
 270 463 l 1
 371 463 l 1
 371 99 l 1
 429 83 l 1
 429 69 l 1xe0
EndSplineSet
EndChar
StartChar: v
Encoding: 118 118 86
Width: 431
Flags: HW
HStem: 448 15<408 410 381 383 32 34 6 8 6 8 132 134 132 134 104 106 269 271 245 247 245 247 408 410>
Fore
409 448 m 1x80
 382 448 l 2
 356 448 328 420 320 397 c 2
 199.5 0 l 1
 189 21 l 1
 64 424 l 2
 61 434 44 448 33 448 c 2
 7 448 l 1
 7 463 l 1
 133 463 l 1
 133 448 l 1
 105 448 l 2
 89 448 82 432 87 418 c 1
 203 65 l 5
 297 363 l 1
 306 390 316 448 270 448 c 2
 246 448 l 1
 246 463 l 1
 409 463 l 1
 409 448 l 1x80
EndSplineSet
MinimumDistance: x15,1 x6,11 
EndChar
StartChar: w
Encoding: 119 119 87
Width: 607
Flags: HW
HStem: 448 15<584 586 557 559 31 33 6 8 6 8 140 142 140 142 111 113 205 207 180 182 180 182 305 307 305 307 278 280 442 444 419 421 419 421 584 586>
Fore
585 448 m 1x80
 558 448 l 2
 531 448 504 421 495 397 c 1
 380 0 l 1
 370 6 l 1
 370 6 286 260 286 261 c 1
 210 0 l 1
 196 6 l 1
 63 424 l 2
 59 436 46 448 32 448 c 2
 7 448 l 1
 7 463 l 1
 141 463 l 1
 141 448 l 1
 112 448 l 2
 94 448 90 432 94 418 c 1
 210 46 l 1
 280 288 l 1
 238 424 l 2
 235 434 217 448 206 448 c 2
 181 448 l 1
 181 463 l 1
 306 463 l 1
 306 448 l 1
 279 448 l 2
 263 448 256 432 261 418 c 1
 381 50 l 5
 470 363 l 1
 480 390 491 448 443 448 c 2
 420 448 l 1
 420 463 l 1
 585 463 l 1
 585 448 l 1x80
EndSplineSet
MinimumDistance: x19,24 x9,14 x28,1 
Back
585 448 m 1x80
 558 448 l 2
 531 448 504 421 495 397 c 1
 382 8 l 1
 370 6 l 1
 370 6 286 260 286 261 c 1
 210 0 l 5
 196 6 l 1
 63 424 l 2
 59 436 46 448 32 448 c 2
 7 448 l 1
 7 463 l 1
 141 463 l 1
 141 448 l 1
 112 448 l 2
 94 448 90 432 94 418 c 1
 197 87 l 1
 280 288 l 1
 238 424 l 2
 235 434 217 448 206 448 c 2
 181 448 l 1
 181 463 l 1
 306 463 l 1
 306 448 l 1
 279 448 l 2
 263 448 256 432 261 418 c 1
 372 78 l 1
 470 363 l 1
 480 390 491 448 443 448 c 2
 420 448 l 1
 420 463 l 1
 585 463 l 1
 585 448 l 1x80
EndSplineSet
EndChar
StartChar: x
Encoding: 120 120 88
Width: 466
Flags: W
HStem: 1 13<211 213 22 24 22 24 52 54> 448 15<80 82 55 57 55 57 200 202 200 202 172 174 268 270 244 246 244 246 411 413 411 413 385 387>
Fore
423 0 m 1xc0
 288 0 l 1
 288 15 l 1
 312 15 l 2
 328 15 322 44 318 52 c 1
 318 52 227 216 227 217 c 1
 156 88 l 2
 136 53 154 15 197 15 c 2
 212 15 l 1
 212 1 l 1
 23 1 l 1
 23 14 l 1
 53 14 l 2
 86 14 110 46 126 71 c 2
 126 71 218 232 219 232 c 1
 113 424 l 2
 107 435 95 448 81 448 c 2
 56 448 l 1
 56 463 l 1
 201 463 l 1
 201 448 l 1
 173 448 l 2
 158 448 148 431 155 418 c 2
 231 278 l 1
 230 278 283 372 283 372 c 2
 294 395 310 448 269 448 c 2
 245 448 l 1
 245 463 l 1
 412 463 l 1
 412 448 l 1
 386 448 l 2
 364 448 328 418 318 400 c 2
 240 262 l 1
 339 82 l 2
 349 65 378 15 402 15 c 2
 423 15 l 1
 423 0 l 1xc0
EndSplineSet
MinimumDistance: x16,21 
EndChar
StartChar: y
Encoding: 121 121 89
Width: 449
Flags: W
HStem: 448 15<426 428 407 409 46 48 21 23 21 23 155 157 155 157 127 129 282 284 259 261 259 261 426 428>
Fore
427 448 m 1x80
 408 448 l 2
 383 448 363.01 432.088 345 393 c 2
 129 -67 l 2
 115.936 -94.7656 114.5 -88.5 85 -88.5 c 0
 69.5967 -88.5 61.7412 -68.2783 61.7412 -47.5674 c 0
 61.7412 -25.5879 74.9092 -1 96 -1 c 0
 122.912 -1 136.759 -17.3291 136.759 -38.8145 c 0
 136.759 -50.9043 126.248 -65.2793 115 -68 c 1
 126 -68 121 -55 124 -49 c 2
 183 77 l 1
 179 79 l 1
 79 424 l 2
 76 435 59 448 47 448 c 2
 22 448 l 1
 22 463 l 1
 156 463 l 1
 156 448 l 1
 128 448 l 2
 110.665 448 106.623 431.104 110 418 c 2
 200 122 l 1
 310 363 l 2
 320.342 388.634 326.655 448 283 448 c 2
 260 448 l 1
 260 463 l 1
 427 463 l 1
 427 448 l 1x80
EndSplineSet
MinimumDistance: x22,1 x13,18 
EndChar
StartChar: z
Encoding: 122 122 90
Width: 391
Flags: W
HStem: -2 17<83 85 195 197 294 296 29 31> 448 15<356 358 299 301 178 180 93 95>
Fore
357 463 m 1xc0
 84 15 l 1
 196 15 l 2
 248 15 304 85 321 132 c 1
 333 125 l 1
 295 -2 l 1
 30 -2 l 1
 300 448 l 1
 179 448 l 2
 127 448 90 366 84 321 c 1
 71 331 l 1
 94 463 l 1
 357 463 l 1xc0
EndSplineSet
EndChar
StartChar: braceleft
Encoding: 123 123 91
Width: 407
HStem: 650 20<242 244 264 266 264 266 222 224>
Fore
265 -213 m 1xc0
 248 -213 l 2
 212 -213 188 -206 161 -182 c 0
 131 -156 118 -131 118 -91 c 2
 118 105 l 2
 118 147 100 197 90 209 c 0
 78.2382 221.078 65 222 47 223 c 1
 47 243 l 1
 65 249 72.4356 253.538 87 267 c 0
 103 284 118 335 118 380 c 2
 118 552 l 2
 118 590 132 615 161 639 c 0
 187 662 209 670 243 670 c 2
 265 670 l 1
 265 650 l 1
 223 650 l 2
 201 650 185.062 646.062 171 629 c 0
 159 613 148 567 148 525 c 2
 148 359 l 2
 148 320 136 272 126 262 c 0
 112.296 246.584 104 238 84 229 c 1
 102 226 112.146 221.276 126 208 c 0
 135 199 148 157 148 123 c 2
 148 -67 l 2
 148 -110 163 -160 181 -172 c 0
 196.02 -182.668 206 -190 228 -191 c 2
 265 -192 l 1
 265 -213 l 1xc0
EndSplineSet
EndChar
StartChar: bar
Encoding: 124 124 92
Width: 143
Fore
76 -209 m 1x80
 47 -209 l 1
 47 723 l 1
 76 723 l 1
 76 -209 l 1x80
EndSplineSet
EndChar
StartChar: braceright
Encoding: 125 125 93
Width: 417
HStem: 650 20<5 7 27 29>
Fore
6 -213 m 1xc0
 6 -192 l 1
 43 -191 l 2
 65 -190 74.981 -182.668 90 -172 c 0
 108 -160 123 -110 123 -67 c 2
 123 123 l 2
 123 157 136 199 145 208 c 0
 158.854 221.276 169 226 187 229 c 1
 167 238 158.704 246.584 145 262 c 0
 135 272 123 320 123 359 c 2
 123 525 l 2
 123 567 112 613 100 629 c 0
 85.9376 646.062 70 650 48 650 c 2
 6 650 l 1
 6 670 l 1
 28 670 l 2
 62 670 85 662 110 639 c 0
 140 615 153 590 153 552 c 2
 153 380 l 2
 153 335 168 284 184 267 c 0
 198.564 253.538 206 249 224 243 c 1
 224 223 l 1
 206 222 193.762 221.078 181 209 c 0
 172 197 153 147 153 105 c 2
 153 -91 l 2
 153 -131 141 -156 110 -182 c 0
 83 -206 59 -213 23 -213 c 2
 6 -213 l 1xc0
EndSplineSet
EndChar
StartChar: asciitilde
Encoding: 126 126 94
Width: 486
HStem: 560 20G<333 335 331 333>
Fore
334 580 m 1x80
 331 531 304.02 481 254 480 c 0
 196 478 193 529 151 530 c 0
 113.972 531 81 509 59 477 c 1
 52 477 l 1
 53 535 103.98 583 155 582 c 0
 194 581 219 536 251 534 c 0
 284.122 532 312 553 332 580 c 1
 334 580 l 1x80
EndSplineSet
EndChar
StartChar: exclamdown
Encoding: 161 161 96
Width: 152
HStem: 637 57<110 112 107 109>
Fore
126 47 m 0x80
 120 36 107 33 101 47 c 0
 62 115 47 135 47 196 c 0x80
 47 331 102 403 102 538 c 0x80
 102 571 122 568 122 538 c 0x80
 122 403 177 331 177 196 c 0
 177 135 150 106 126 47 c 0x80
141 665 m 0
 141 649.384 128.616 637 111 637 c 0
 92.3848 637 75 649.384 75 665 c 0
 75 681.616 90.3848 694 108 694 c 0
 126.616 694 141 681.616 141 665 c 0
EndSplineSet
EndChar
StartChar: cent
Encoding: 162 162 97
Width: 483
HStem: 0 42<206 208 243 245> 435 30<206 208 220 222>
Fore
207 435 m 0xe0
 138 435 66 345 66 263 c 0
 66 180 95 119 152 69 c 0
 159 64 172 61 174 72 c 0
 190 181 209 324 223 416 c 0
 223 422 217 435 207 435 c 0xe0
371 153 m 0
 381 175 404 185 395 151 c 0
 372 60 301 0 207 0 c 0
 199 0 191 1 183 3 c 1
 178 -24 174 -50 169 -77 c 0
 167 -86 142 -91 146 -69 c 1
 159 9 l 1
 78 38 8 135 8 236 c 0
 8 294 51 397 128 432 c 0
 165 448 180 456 221 465 c 0
 222 465 229 468 230 468 c 1
 235 498 l 1
 238 518 268 518 264 497 c 1
 259 466 l 1
 291 461 336 446 367 415 c 0
 378 404 381 393 379 378 c 0
 376 358 361 341 340 341 c 0
 314 341 305 367 292 386 c 0
 285 397 279 411 270 413 c 0
 266 413 252 420 249 407 c 0
 232 304 213 168 196 66 c 0
 196 57 202 49 211 46 c 0
 222 42 232 42 244 42 c 0
 283 42 347 102 371 153 c 0
EndSplineSet
EndChar
StartChar: sterling
Encoding: 163 163 98
Width: 602
HStem: 0 41<450 452 399 401> 0 120<86 88 242 244> 88 32<217 219> 242 31<162 164 139 141 139 141 185 187 265 267 309 311 306 308 259 261>
Fore
218 88 m 0x38
 207 88 193 87 182 86 c 1
 170 69 156 52 140 35 c 0
 122 16 106 0 87 0 c 0x58
 74 0 64 11 64 24 c 0
 64 63 107 75 144 94 c 0
 153 99 162 103 171 107 c 1
 180 135 187 172 196 215 c 0
 199 234 176 242 163 242 c 2
 140 242 l 2
 132 242 124 249 124 257 c 0
 124 266 133 273 140 273 c 2
 186 273 l 2
 206 273 209 284 211 295 c 0
 227 379 249 471 284 545 c 0
 303 585 318 610 356 633 c 0
 387 651 408 659 440 668 c 0
 449 671 468 669 483 662 c 0
 506 652 527 640 527 615 c 0
 527 596 512 579 493 579 c 0
 475 579 467 588 458 610 c 0
 446 640 403 653 379 625 c 0
 337 574 313 458 282 352 c 0
 275 329 269 307 262 286 c 0
 260 280 260 273 266 273 c 2
 310 273 l 2
 319 273 334 269 334 257 c 0
 334 246 318 242 307 242 c 2
 260 242 l 2
 249 242 245 236 242 227 c 0
 226 189 227 153 204 117 c 1
 215 119 230 120 243 120 c 0
 323 120 382 41 451 41 c 0xb8
 468 41 488 48 488 70 c 0
 488 76 487 85 479 91 c 1
 463 100 451 112 451 131 c 0
 451 150 469 163 488 163 c 0
 514 163 532 137 532 110 c 0
 532 60 456 0 400 0 c 0
 319 0 269 88 218 88 c 0x38
EndSplineSet
EndChar
StartChar: fraction
Encoding: 164 8260 2088
Width: 200
HStem: 0 21G<19 21 -11 -9> 645 20G<84 86 119 121>
Fore
85 665 m 1xc0
 120 665 l 1
 20 0 l 1
 -10 0 l 1
 85 665 l 1xc0
EndSplineSet
EndChar
StartChar: yen
Encoding: 165 165 100
Width: 647
HStem: 0 24<378 380 430 432 430 432 223 225 223 225 276 278> 331 38<360 362 639 641 639 641 343 345 311 313 77 79 77 79 292 294 327 329 341 343> 449 38<445 447 639 641 639 641 418 420 245 247 77 79 77 79 223 225 258 260 421 423 395 397 280 282> 636 25<634 636 599 601 88 90 254 256 254 256 226 228 443 445 418 420 418 420 634 636>
Fore
635 636 m 1xf8
 600 636 l 2
 558 636 497.936 558.046 476 528 c 2
 446 487 l 1
 640 487 l 1
 640 449 l 1
 419 449 l 1
 361 369 l 1
 362 369 640 369 640 369 c 1
 640 331 l 1
 344 331 l 1
 344 61 l 2
 344 42 360 24 379 24 c 2
 431 24 l 1
 431 0 l 1
 224 0 l 1
 224 24 l 1
 277 24 l 2
 295 24 312 44 312 61 c 2
 312 331 l 1
 78 331 l 1
 78 369 l 1
 293 369 l 1
 246 449 l 1
 78 449 l 1
 78 487 l 1
 224 487 l 1
 163 591 l 2
 150.142 613.084 123 633 96 633 c 2
 89 633 l 1
 89 661 l 1
 255 661 l 1
 255 636 l 1
 227 636 l 2
 191 636 184.498 618.286 202 587 c 2
 259 487 l 1
 422 487 l 1
 436 507 l 2
 453.674 531.536 522 636 444 636 c 2
 419 636 l 1
 419 661 l 1
 635 661 l 1
 635 636 l 1xf8
396 449 m 2
 281 449 l 1
 328 369 l 1
 342 369 l 1
 342 369 397 449 396 449 c 2
EndSplineSet
EndChar
StartChar: florin
Encoding: 166 402 337
Width: 272
HStem: 418 13<113 115 166 168 166 168 113 115 82 84 37 39 37 39 82 84> 665 21G<157 159>
Fore
216 615 m 0xe0
 217 581 152 593 152 628 c 0
 152 636 154 642 158 649 c 1
 136 658 114 644 114 619 c 2
 114 431 l 1
 167 431 l 1
 167 418 l 1
 114 418 l 1
 114 -60 l 2
 114 -114 93 -155 39 -155 c 0
 0 -155 -18 -137 -19 -105 c 0
 -20 -71 45 -82 45 -118 c 0
 45 -126 43 -132 39 -139 c 1
 61 -148 83 -134 83 -109 c 2
 83 418 l 1
 38 418 l 1
 38 431 l 1
 83 431 l 1
 83 570 l 2
 83 624 104 665 158 665 c 0
 197 665 215 647 216 615 c 0xe0
EndSplineSet
EndChar
StartChar: section
Encoding: 167 167 102
Width: 359
Fore
314 613 m 0x00
 308 563 238 571 243 613 c 0
 244 629 250 643 272 643 c 0
 276 643 280 644 283 643 c 1
 280 659 276 672 259 678 c 0
 247 683 231 687 213 687 c 0
 162 688 118 650 111 600 c 0
 96 486 238 462 238 462 c 1
 313 423 320 274 209 236 c 1
 256 229 314 182 302 104 c 0
 293 45 244 18 226 12 c 0
 198 3 169 -4 119 4 c 0
 69 12 36 45 41 92 c 0
 47 139 117 137 113 92 c 0
 112 76 105 61 83 61 c 0
 79 61 76 61 71 61 c 1
 76 46 79 32 96 26 c 0
 108 21 124 17 142 17 c 0
 192 17 241 54 246 104 c 0
 255 187 188 224 109 246 c 1
 27 294 31 438 132 471 c 1
 94 485 40 523 53 601 c 0
 62 660 112 687 129 694 c 1
 157 702 187 708 237 700 c 0
 287 692 319 660 314 613 c 0x00
178 453 m 0
 83 454 58 264 164 255 c 0
 271 246 265 452 178 453 c 0
EndSplineSet
EndChar
StartChar: currency
Encoding: 168 164 99
Width: 544
HStem: 115 35<224 226 224 226> 480 35<224 226 224 226>
Fore
437 134 m 1xc0
 409 106 l 1
 357 159 l 1
 324 132 280 115 225 115 c 0
 172 115 130 131 98 156 c 1
 49 106 l 1
 22 134 l 1
 22 134 71 183 70 183 c 1
 9 255 10 372 69 445 c 0
 69 446 22 492 22 492 c 1
 49 520 l 1
 96 472 l 1
 128 498 172 515 225 515 c 0
 281 515 326 498 358 469 c 1
 409 520 l 1
 437 492 l 1
 385 441 l 1
 439 369 439 259 383 187 c 1
 437 134 l 1xc0
225 150 m 0
 445 150 445 480 225 480 c 0
 5 480 5 150 225 150 c 0
EndSplineSet
EndChar
StartChar: quotesingle
Encoding: 169 39 7
Width: 243
Fore
146 543 m 1x00
 131 502 98 472 54 463 c 1
 42 476 l 1
 64 482 95 514 80 533 c 1
 43 556 56 626 111 622 c 0
 156 620 166 570 146 543 c 1x00
EndSplineSet
EndChar
StartChar: guillemotleft
Encoding: 171 171 106
Width: 827
Fore
38 312 m 1x00
 38 350 l 1
 453 565 l 1
 453 502 l 1
 123 338 l 1
 123 322 l 1
 453 148 l 1
 453 84 l 1
 38 312 l 1x00
321 312 m 1
 321 350 l 1
 736 565 l 1
 736 502 l 1
 406 338 l 1
 406 322 l 1
 736 148 l 1
 736 84 l 1
 321 312 l 1
EndSplineSet
EndChar
StartChar: guilsinglleft
Encoding: 172 8249 2077
Width: 524
Fore
457 566 m 1x00
 457 503 l 1
 128 338 l 1
 128 323 l 1
 457 149 l 1
 457 85 l 1
 43 313 l 1
 43 351 l 1
 457 566 l 1x00
EndSplineSet
EndChar
StartChar: guilsinglright
Encoding: 173 8250 2078
Width: 572
Fore
80 565 m 1x00
 495 350 l 1
 495 312 l 1
 80 84 l 1
 80 148 l 1
 410 322 l 1
 410 338 l 1
 80 502 l 1
 80 565 l 1x00
EndSplineSet
EndChar
StartChar: fi
Encoding: 174 64257 3464
Width: 383
Flags: W
HStem: 0 15<348 350 11 13 11 13 56 58 303 305 348 350 137 139 224 226> 419 14<81 83 36 38 36 38 81 83 112 114 196 198 249 251 112 114> 671 21G<190 192>
Fore
349 0 m 1xf8
 12 0 l 1
 12 15 l 1
 57 15 l 2
 70 15 82 30 82 42 c 2
 82 419 l 1
 37 419 l 1
 37 433 l 1
 82 433 l 1
 82 575 l 2
 82 650 137 671 191 671 c 0
 231 671 281 656 282 620 c 0
 282.464 606.553 270.242 601.59 257 601.59 c 4
 241.623 601.59 225 614.083 225 635 c 0
 225 643 226 648 230 656 c 1
 214 659 205 661 188 659 c 0
 154 656 113 646 113 611 c 2
 113 433 l 1
 197 433 l 1
 279 474 l 1
 279 42 l 2
 279 30 291 15 304 15 c 2
 349 15 l 1
 349 0 l 1xf8
250 42 m 2
 250 419 l 1
 113 419 l 1
 113 42 l 2
 113 29 125 15 138 15 c 2
 225 15 l 2
 238 15 250 29 250 42 c 2
EndSplineSet
EndChar
StartChar: fl
Encoding: 175 64258 3465
Width: 404
Flags: W
HStem: 0 16<340 342 11 13 11 13 56 58 296 298 340 342 137 139 214 216> 418 13<81 83 36 38 36 38 81 83 239 241 112 114 239 241 112 114> 671 21G<191 193>
Fore
341 0 m 1xf8
 12 0 l 1
 12 16 l 1
 57 16 l 2
 70 16 82 31 82 43 c 2
 82 418 l 1
 37 418 l 1
 37 431 l 1
 82 431 l 1
 82 575 l 2
 82 650 137 671 192 671 c 0
 217 671 241 670 265 661 c 1
 271 665 l 1
 271 43 l 2
 271 30 284 16 297 16 c 2
 341 16 l 1
 341 0 l 1xf8
240 431 m 1
 240 602 l 1
 224 615 221 638 230 656 c 1
 214 659 205 661 188 659 c 0
 154 656 113 648 113 613 c 2
 113 431 l 1
 240 431 l 1
240 43 m 2
 240 418 l 1
 113 418 l 1
 113 43 l 2
 113 31 125 16 138 16 c 2
 215 16 l 2
 229 16 240 30 240 43 c 2
EndSplineSet
EndChar
StartChar: endash
Encoding: 177 8211 2047
Width: 501
HStem: 215 39<-1 1 454 456 454 456 -1 1>
Fore
0 254 m 1x80
 455 254 l 1
 455 215 l 1
 0 215 l 1
 0 254 l 1x80
EndSplineSet
EndChar
StartChar: dagger
Encoding: 178 8224 2060
Width: 373
Fore
185 487 m 1x80
 180 538 135 654 192 654 c 0
 247 654 206 536 200 487 c 1
 263 492 352 525 354 480 c 0
 358 433 262 469 199 473 c 1
 201 402 212 358 212 287 c 0
 212 229 210 -13 194 -13 c 0
 193 -13 194 -13 190 -13 c 0
 174 -13 175 235 175 293 c 0
 175 364 183 406 185 473 c 1
 122 470 25 433 29 480 c 0
 31 525 122 491 185 487 c 1x80
EndSplineSet
EndChar
StartChar: daggerdbl
Encoding: 179 8225 2061
Width: 373
Fore
184 109 m 1x00
 180 161 128 276 191 276 c 0
 254 276 206 158 200 109 c 1
 263 114 353 160 354 102 c 0
 356 43 262 91 199 95 c 1
 203 20 256 -72 191 -72 c 0
 127 -72 181 24 185 95 c 1
 122 92 30 44 31 102 c 0
 33 161 122 113 184 109 c 1x00
184 487 m 1
 180 539 128 654 191 654 c 0
 254 654 206 536 200 487 c 1
 263 492 353 538 354 480 c 0
 356 421 262 469 199 473 c 1
 203 398 256 306 191 306 c 0
 127 306 181 402 185 473 c 1
 122 470 30 422 31 480 c 0
 33 539 122 491 184 487 c 1
EndSplineSet
EndChar
StartChar: periodcentered
Encoding: 180 183 118
Width: 217
Fore
76 256 m 0x00
 76 280.288 95.712 300 120 300 c 0
 144.288 300 164 280.288 164 256 c 0
 164 231.712 144.288 212 120 212 c 0
 95.712 212 76 231.712 76 256 c 0x00
EndSplineSet
EndChar
StartChar: paragraph
Encoding: 182 182 117
Width: 537
HStem: 636 25<412 414 376 378 340 342 316 318 459 461 459 461>
Fore
413 636 m 1xe0
 413 -69 l 1
 377 -69 l 1
 377 636 l 1
 341 636 l 1
 341 -69 l 1
 306 -69 l 1
 306 354 l 1
 333 354 l 2
 236 354 143 403 152 527 c 0
 159 624 234 661 317 661 c 2
 460 661 l 1
 460 636 l 1
 413 636 l 1xe0
EndSplineSet
EndChar
StartChar: bullet
Encoding: 183 8226 2062
Width: 208
Fore
104 305 m 0x00
 189 310 198 182 113 177 c 0
 28 172 19 300 104 305 c 0x00
EndSplineSet
EndChar
StartChar: quotesinglbase
Encoding: 184 8218 2054
Width: 203
Fore
146 5 m 1x00
 142 -9 137 -18 128 -31 c 0
 113 -50 102 -61 80 -72 c 0
 67 -79 59 -82 44 -85 c 1
 31 -69 l 1
 43 -66 49 -62 57 -55 c 0
 67 -47 73 -41 75 -28 c 0
 76 -20 78 -13 73 -6 c 1
 32 19 46 96 107 92 c 0
 157 89 169 35 146 5 c 1x00
EndSplineSet
EndChar
StartChar: quotedblright
Encoding: 186 8221 2057
Width: 315
Fore
151 543 m 1x00
 146 530 142 520 132 508 c 0
 117 488 107 478 85 467 c 0
 72 460 64 457 49 454 c 1
 36 469 l 1
 47 472 54 476 62 483 c 0
 72 491 78 498 80 510 c 0
 81 519 83 525 78 532 c 1
 37 557 51 635 112 631 c 0
 162 628 173 573 151 543 c 1x00
274 543 m 1
 269 530 265 520 255 508 c 0
 240 488 230 478 208 467 c 0
 194 460 187 457 172 454 c 1
 159 469 l 1
 170 472 176 476 185 483 c 0
 194 491 201 498 202 510 c 0
 204 519 206 525 201 532 c 1
 160 557 174 635 235 631 c 0
 285 628 296 573 274 543 c 1
EndSplineSet
EndChar
StartChar: guillemotright
Encoding: 187 187 122
Width: 827
Fore
736 312 m 1x00
 321 84 l 1
 321 148 l 1
 651 322 l 1
 651 338 l 1
 321 502 l 1
 321 565 l 1
 736 350 l 1
 736 312 l 1x00
453 312 m 1
 38 84 l 1
 38 148 l 1
 368 322 l 1
 368 338 l 1
 38 502 l 1
 38 565 l 1
 453 350 l 1
 453 312 l 1
EndSplineSet
EndChar
StartChar: ellipsis
Encoding: 188 8230 2066
Width: 371
Flags: W
Fore
844 16 m 0x00
 844 32.168 861.832 45 881 45 c 0
 899.168 45 912 32.168 912 16 c 0
 912 -1.168 897.168 -14 878 -14 c 0
 859.832 -14 844 -1.168 844 16 c 0x00
189 16 m 0
 189 32.168 206.832 45 225 45 c 0
 244.168 45 257 32.168 257 16 c 0
 257 -1.168 241.168 -14 223 -14 c 0
 203.832 -14 189 -1.168 189 16 c 0
-470 16 m 0
 -470 32.168 -452.168 45 -433 45 c 0
 -414.832 45 -402 32.168 -402 16 c 0
 -402 -1.168 -416.832 -14 -436 -14 c 0
 -454.168 -14 -470 -1.168 -470 16 c 0
EndSplineSet
EndChar
StartChar: perthousand
Encoding: 189 8240 2068
Width: 1436
HStem: -5 14<1162 1164 1162 1164 721 723 721 723> 282 13<270 272 270 272> 400 17<1162 1164 1162 1164 721 723 721 723> 687 17<270 272 270 272>
Fore
1000 204 m 0xffc0
 1000 96 1095 9 1163 9 c 0
 1231 9 1324 96 1324 204 c 0
 1324 312 1231 400 1163 400 c 0
 1095 400 1000 312 1000 204 c 0xffc0
953 206 m 0
 953 323 1048 417 1163 417 c 0
 1278 417 1370 323 1370 206 c 0
 1370 89 1278 -5 1163 -5 c 0
 1048 -5 953 89 953 206 c 0
208 3 m 0
 419 278 576 483 746 710 c 0
 763 730 794 719 774 693 c 0
 564 416 446 261 230 -14 c 0
 210 -37 190 -19 208 3 c 0
559 204 m 0
 559 96 654 9 722 9 c 0
 790 9 883 96 883 204 c 0
 883 312 790 400 722 400 c 0
 654 400 559 312 559 204 c 0
513 206 m 0
 513 323 607 417 722 417 c 0
 837 417 930 323 930 206 c 0
 930 89 837 -5 722 -5 c 0
 607 -5 513 89 513 206 c 0
108 491 m 0
 108 383 203 295 271 295 c 0
 339 295 432 383 432 491 c 0
 432 599 339 687 271 687 c 0
 203 687 108 599 108 491 c 0
61 493 m 0
 61 609 156 704 271 704 c 0
 386 704 478 609 478 493 c 0
 478 376 386 282 271 282 c 0
 156 282 61 376 61 493 c 0
EndSplineSet
EndChar
StartChar: questiondown
Encoding: 191 191 126
Width: 413
HStem: 20 111<269 271 226 228> 663 69<250 252 250 252>
Fore
289 697 m 0xe0
 289 677.832 272.168 663 251 663 c 0
 230.832 663 214 677.832 214 697 c 0
 214 716.168 230.832 732 251 732 c 0
 272.168 732 289 716.168 289 697 c 0xe0
210 383 m 0
 220 455 220 468 233 544 c 0
 236 564 254 563 256 543 c 0
 262 475 269 425 276 347 c 0
 281 319 290 281 262 276 c 0
 172 259 56 250 56 163 c 0
 56 112 104 86 149 86 c 0
 199 86 232 131 270 131 c 0
 294 131 313 110 313 86 c 0
 313 43 268 20 227 20 c 0
 134 20 36 85 36 183 c 0
 34 270 115 322 182 348 c 0
 199 356 208 366 210 383 c 0
EndSplineSet
EndChar
StartChar: grave
Encoding: 193 96 64
Width: 435
Fore
222 628 m 1x00
 196 628 l 1
 68 737 l 1
 137 737 l 1
 222 628 l 1x00
EndSplineSet
EndChar
StartChar: acute
Encoding: 194 180 115
Width: 550
Fore
218 737 m 1x00
 90 628 l 1
 66 628 l 1
 151 737 l 1
 218 737 l 1x00
EndSplineSet
EndChar
StartChar: circumflex
Encoding: 195 710 613
Width: 994
Fore
106.6 429.602 m 1x00
 192.6 539 l 1
 199.6 539 l 1
 282.4 429.602 l 1
 273.6 429.602 l 1
 194.4 514.602 l 1
 198.2 514.602 l 1
 118.2 429.602 l 1
 106.6 429.602 l 1x00
EndSplineSet
EndChar
StartChar: tilde
Encoding: 196 732 635
Width: 732
Fore
283 710 m 1x00
 284 752 321 785 358 786 c 0
 386 787 408 750 427 752 c 0
 451 754 469 763 483 782 c 1
 486 782 l 1
 489 746 465 709 429 710 c 0
 387 711 381 745 355 745 c 0
 328 744 306 733 291 710 c 1
 283 710 l 1x00
EndSplineSet
EndChar
StartChar: macron
Encoding: 197 175 110
Width: 630
HStem: 585 41<249 251 34 36 34 36 249 251>
Fore
250 585 m 1x80
 35 585 l 1
 35 626 l 1
 250 626 l 1
 250 585 l 1x80
EndSplineSet
EndChar
StartChar: breve
Encoding: 198 728 631
Width: 574
Fore
359 787 m 1x00
 352 730 312 693 258 693 c 0
 203 693 162 731 156 787 c 1
 178 787 l 1
 187 757 212 742 258 742 c 0
 296 742 324 759 337 787 c 1
 359 787 l 1x00
EndSplineSet
EndChar
StartChar: dotaccent
Encoding: 199 729 632
Width: 262
Fore
162 583 m 0x00
 162 538 95 538 95 583 c 0
 95 629 162 629 162 583 c 0x00
EndSplineSet
EndChar
StartChar: dieresis
Encoding: 200 168 103
Width: 0
Flags: W
Fore
242.004 601 m 0x00
 255.956 601 276.004 587.952 276.004 567 c 0
 276.004 546.048 255.956 533 242.004 533 c 0
 227.552 533 207.254 546.048 207.254 567 c 0
 207.254 587.952 227.552 601 242.004 601 c 0x00
102 601 m 0
 115.952 601 136 587.952 136 567 c 0
 136 546.048 115.952 533 102 533 c 0
 87.5488 533 67.25 546.048 67.25 567 c 0
 67.25 587.952 87.5488 601 102 601 c 0
EndSplineSet
EndChar
StartChar: ring
Encoding: 202 730 633
Width: 488
Fore
83 636 m 0x00
 178 633 176 496 81 493 c 0
 -14 490 -11 636 83 636 c 0x00
83 609 m 0
 26 610 25 524 82 524 c 0
 139 524 139 609 83 609 c 0
EndSplineSet
EndChar
StartChar: cedilla
Encoding: 203 184 119
Width: 0
Fore
355 -96 m 0x80
 359 -192 309 -210 228 -212 c 2
 176 -213 l 1
 176 -179 l 1
 233 -174 l 2
 269 -171 307 -161 307 -117 c 0
 307 -87 275 -72 246 -72 c 2
 208 -72 l 1
 208 23 l 1
 235 13 l 1
 235 -25 l 1
 263 -25 l 2
 308 -25 354 -56 355 -96 c 0x80
EndSplineSet
EndChar
StartChar: ogonek
Encoding: 206 731 634
Width: -158
HStem: -20 20G<122 124 162 164>
Fore
123 0 m 1x80
 163 0 l 1
 127 -6 109 -43 113 -80 c 0
 117 -109 150 -122 180 -127 c 0
 217 -133 245 -120 266 -91 c 1
 285 -115 l 1
 261 -154 230 -171 185 -170 c 0
 130 -169 75 -135 75 -80 c 0
 75 -44 91 -17 123 0 c 1x80
EndSplineSet
EndChar
StartChar: caron
Encoding: 207 711 614
Width: 784
HStem: 580 21G<136 138 144 146>
Fore
36 638 m 1x80
 61 638 l 1
 137 580 l 1
 145 580 l 1
 221 638 l 1
 244 638 l 1
 149 544 l 1
 132 544 l 1
 36 638 l 1x80
EndSplineSet
EndChar
StartChar: emdash
Encoding: 208 8212 2048
Width: 1000
HStem: 215 39<34 36 900 902 900 902 34 36>
Fore
35 254 m 1x80
 901 254 l 1
 901 215 l 1
 35 215 l 1
 35 254 l 1x80
EndSplineSet
EndChar
StartChar: AE
Encoding: 225 198 133
Width: 888
HStem: 0 22<743 745 315 317 210 212 248 250 248 250 36 38 36 38 74 76> 0 27<471 473 599 601> 354 20<433 435 533 535 533 535 433 435> 356 12<403 405 271 273 403 405 278 280> 634 27<324 326 599 601 471 473> 640 21<378 380 324 326 752 754>
Fore
797 196 m 1x96
 744 0 l 1
 316 0 l 1
 316 21 l 1
 369 21 l 2
 387 21 404 41 404 58 c 2
 404 356 l 1x95
 272 356 l 1
 170 115 l 2
 157 85 172 22 211 22 c 2
 249 22 l 1
 249 0 l 1
 37 0 l 1
 37 22 l 1
 75 22 l 2
 96 22 129 63 135 80 c 1
 379 640 l 1
 325 640 l 1
 325 661 l 1x0a80
 753 661 l 1x0680
 797 461 l 1
 779 461 l 1
 766 491 l 2
 733 566 690 634 600 634 c 2x6a80
 472 634 l 2
 446 634 434 607 434 584 c 2
 434 374 l 1
 534 374 l 2
 582 374 633 422 633 470 c 2
 633 488 l 1
 648 488 l 1x61
 648 234 l 1
 633 234 l 1x6280
 633 252 l 2
 633 304 587 354 534 354 c 2
 434 354 l 1
 434 77 l 2
 434 54 446 27 472 27 c 2
 600 27 l 2
 684 27 735 92 766 165 c 2
 779 196 l 1
 797 196 l 1x96
404 368 m 1x12
 404 603 l 2x11
 404 613 398 624 391 631 c 1
 279 368 l 1
 404 368 l 1x12
EndSplineSet
MinimumDistance: x14,9 
EndChar
StartChar: ordfeminine
Encoding: 227 170 105
Width: 300
Flags: W
HStem: 138 32<262 264 -1 1 -1 1 262 264> 197 21<240 242 105 107 127 129> 421 120<128 130> 525 16<132 134>
Fore
261 230 m 2xd8
 261 222 254 199 241 197 c 0
 203 193 185 216 183 254 c 1
 170 226 137 197 106 197 c 0
 59 197 21 222 23 277 c 0
 26 363 123 367 183 398 c 1
 183 472 l 2
 183 498 156 525 133 525 c 0
 115 525 77 522 58 496 c 1
 61 487 65 484.153 65 471 c 0
 65 446 55 421 38 421 c 0xe8
 25.325 421 19.1875 434 19.1875 451 c 0
 19.1875 486.357 68 541 129 541 c 0
 153 541 212 515 212 469 c 2
 212 252 l 2
 212 238 220 224 234 224 c 0
 245 224 258 244 261 254 c 1
 261 230 l 2xd8
263 138 m 1
 0 138 l 1
 0 170 l 1
 263 170 l 1
 263 138 l 1
183 274 m 1
 183 389 l 1
 141 378 64 346 61 297 c 0
 54 211 83 218 128 218 c 0
 158 218 171 251 183 274 c 1
EndSplineSet
EndChar
StartChar: Lslash
Encoding: 232 321 256
Width: 551
HStem: 0 21<457 459 27 29 27 29 80 82> 640 21<80 82 27 29 27 29 233 235 233 235 180 182>
Fore
508 179 m 1xe0
 458 0 l 1
 28 0 l 1
 28 21 l 1
 81 21 l 2
 109 21 117 50 117 73 c 2
 117 432 l 1
 45 414 l 1
 45 445 l 1
 117 463 l 1
 117 603 l 2
 117 621 99 640 81 640 c 2
 28 640 l 1
 28 661 l 1
 234 661 l 1
 234 640 l 1
 181 640 l 2
 162 640 147 621 147 603 c 2
 147 472 l 1
 219 488 l 1
 219 457 l 1
 147 441 l 1
 147 70 l 2
 147 47 159 20 185 20 c 2
 305 20 l 2
 391 20 470 99 493 179 c 1
 508 179 l 1xe0
EndSplineSet
EndChar
StartChar: Oslash
Encoding: 233 216 151
Width: 686
HStem: -21 21<358 360 357 359> 650 21<357 359 358 360>
Fore
597 679 m 1xc0
 540 598 l 1
 598.248 530.013 628.016 428.594 628.498 326.786 c 0
 629.242 153.351 538.952 -21 359 -21 c 0
 272 -21 204 12 154 66 c 1
 99 -10 l 1
 75 -10 l 1
 146 89 l 1
 106.837 157.391 89.7843 245.546 89.7843 332.942 c 0
 89.7843 503.956 182.046 671 358 671 c 0
 427 671 484 651 530 617 c 1
 573 679 l 1
 597 679 l 1xc0
521 573 m 1
 178 99 l 1
 220 38 279 0 358 0 c 0
 521.269 0 598.343 169.69 598.343 335.573 c 0
 598.343 427.253 569.985 512.539 521 573 c 1
511 591 m 1
 471 628 419 650 359 650 c 0
 194.25 650 120.63 476.363 120.63 308.877 c 0
 120.63 240.499 140.809 173.398 171 119 c 1
 511 591 l 1
EndSplineSet
EndChar
StartChar: OE
Encoding: 234 338 273
Width: 957
Flags: W
HStem: 0 28<836.625 838.625 566.625 568.625 692.625 694.625> 354 20<528.625 530.625 626.625 628.625 626.625 628.625 528.625 530.625> 633 28<361.625 363.625 692.625 694.625 564.625 566.625> 648 13<845.625 847.625 364.625 366.625>
Fore
890.625 196 m 1xe0
 837.625 0 l 1
 666.625 0 530.625 -2 362.625 -2 c 0
 160.923 -2 60 164.084 60 330 c 0
 60 495.583 160.828 661 362.625 661 c 2
 846.625 661 l 1xd0
 890.625 461 l 1
 872.625 461 l 1
 858.625 491 l 2
 822.625 569 787.625 633 693.625 633 c 2xe0
 565.625 633 l 2
 539.625 633 529.625 606 529.625 583 c 2
 529.625 374 l 1
 627.625 374 l 2
 675.625 374 725.625 421 725.625 470 c 2
 725.625 488 l 1
 745.625 488 l 1
 745.625 236 l 1
 725.625 236 l 1
 725.625 254 l 2
 725.625 304 677.625 354 627.625 354 c 2
 529.625 354 l 1
 529.625 261 529.625 70 529.625 70 c 1
 530.625 50 545.625 28 567.625 28 c 2
 693.625 28 l 2
 783.625 28 824.625 89 858.625 165 c 2
 872.625 196 l 1
 890.625 196 l 1xe0
501.625 85 m 1
 501.625 574 l 1
 469.625 616 419.625 648 365.625 648 c 0xd0
 190.264 648 95.1416 484.887 95.1416 324 c 0
 95.1416 167.439 179.657 13 362.625 13 c 0
 382.625 13 402.625 18 419.625 22 c 1
 452.625 34 479.625 56 501.625 85 c 1
EndSplineSet
EndChar
StartChar: ordmasculine
Encoding: 235 186 121
Width: 390
HStem: 135 35<299 301 41 43 41 43 299 301> 197 11<164 166 164 166> 522 12<164 166 164 166>
Fore
165 197 m 0xe0
 86.0255 197 44.9813 283.368 44.9813 368.658 c 0
 44.9813 451.842 84.0245 534 165 534 c 0
 243 534 282 449.75 282 365.5 c 0
 282 281.25 243 197 165 197 c 0xe0
300 135 m 1
 42 135 l 1
 42 170 l 1
 300 170 l 1
 300 135 l 1
165 208 m 0
 226 208 256.5 286.5 256.5 365 c 0
 256.5 443.5 226 522 165 522 c 0
 104 522 73.5 443.5 73.5 365 c 0
 73.5 286.5 104 208 165 208 c 0
EndSplineSet
EndChar
StartChar: ae
Encoding: 241 230 165
Width: 627
HStem: -9 39<111 113 142 144> -9 47<382 384 389 391> 293 25<550 552 245 247 490 492 250 252> 459 13<180 182 402 404 402 404>
Fore
551 293 m 1x78
 246 293 l 1
 244 279 243 250 243 235 c 0
 245 138 316 38 383 38 c 0
 449.008 38 526 99 555 153 c 1
 555 94 l 1
 522 27 464 -9 390 -9 c 0
 318 -9 262 24 230 87 c 1
 212 43 162 -9 112 -9 c 0xb8
 54 -9 19 37.8045 19 107 c 0
 19 254 181.5 244 199 265 c 1x72
 199 386 l 2
 199 423 166 442 132 442 c 0
 102 442 83 440 62 427 c 1
 65 409 64 399 60 381 c 0
 52 348 43 307 10 308 c 0
 -2.57651 308.262 -6.56088 319.43 -6.56088 336 c 0
 -6.56088 382.466 59.2318 470.524 181 472 c 0
 206 472 252 459 260 406 c 1
 295 446 343 472 403 472 c 0
 495 472 560 374 551 293 c 1x78
491 318 m 1
 493 371 458 459 403 459 c 0
 331 459 267 392 251 318 c 1
 491 318 l 1
218 114 m 1
 207 145 201 185 199 212 c 1xb4
 199 212 199 164 199 250 c 1xb6
 190 247 181 243 169 238 c 0
 117 214 62 193 65 134 c 0
 67 81.9232 86 31 143 30 c 0
 189 29 206 78 218 114 c 1
EndSplineSet
EndChar
StartChar: dotlessi
Encoding: 245 305 240
Width: 254
Flags: W
HStem: 0 15<202 204 30 32 30 32 75 77 157 159 202 204>
Fore
203 0 m 1xc0
 31 0 l 1
 31 15 l 1
 76 15 l 2
 89 15 102 29 102 42 c 2
 102 378 l 1
 49 396 l 1
 49 407 l 1
 132 474 l 1
 132 42 l 2
 132 29 145 15 158 15 c 2
 203 15 l 1
 203 0 l 1xc0
EndSplineSet
EndChar
StartChar: lslash
Encoding: 248 322 257
Width: 285
HStem: 0 15<156 158 201 203 201 203 30 32 30 32 75 77>
Fore
203 464 m 1xc0
 132 445 l 1
 132 42 l 2
 132 29 144 15 157 15 c 2
 202 15 l 1
 202 0 l 1
 31 0 l 1
 31 15 l 1
 76 15 l 2
 89 15 101 30 101 42 c 2
 101 432 l 1
 31 414 l 1
 31 445 l 1
 101 463 l 1
 101 575 l 1
 46 590 l 1
 46 603 l 1
 132 670 l 1
 132 476 l 1
 203 495 l 1
 203 464 l 1xc0
EndSplineSet
EndChar
StartChar: oslash
Encoding: 249 248 183
Width: 537
HStem: -9 15<233 235 233 235> 455 17<233 235 233 235>
Fore
375 416 m 1xc0
 357 403 l 1
 381.664 355.688 392.966 293.483 392.966 230.622 c 0
 392.966 110.69 339.572 -9 234 -9 c 0
 174 -9 127 17 93 58 c 1
 69 34 l 1
 41 34 l 1
 87 89 l 1
 74.9851 135.785 70.7983 187.645 70.7983 238.75 c 0
 70.7983 358.487 128.965 472 234 472 c 0
 281 472 318 457 346 429 c 1
 347 416 l 1
 375 416 l 1xc0
326 402 m 1
 304 434 273 455 234 455 c 0
 148.874 455 102.645 351.104 102.645 239.214 c 0
 102.645 199.434 105.343 159.163 115 123 c 1
 326 402 l 1
336 380 m 1
 119 95 l 1
 144 42 182 6 234 6 c 0
 321.625 6 365.277 118.222 365.277 230.259 c 0
 365.277 283.748 356.205 338.59 336 380 c 1
EndSplineSet
EndChar
StartChar: oe
Encoding: 250 339 274
Width: 777
Flags: W
HStem: -9 15<220.228 222.228 220.228 222.228> -9 43<541.228 543.228 548.228 550.228> 290 28<724.228 726.228 413.228 415.228 665.228 667.228 418.228 420.228> 455 17<220.228 222.228 570.228 572.228 220.228 222.228>
Fore
725.228 290 m 1x70
 414.228 290 l 1
 413.228 276 412.228 261 412.228 246 c 0
 413.228 149 453 34 542.228 34 c 0
 618.234 34 679.228 65 714.228 132 c 1
 714.228 97 l 1
 681.228 30 623.228 -9 549.228 -9 c 4
 458.552 -9 409.228 47 378.228 115 c 1
 347.228 54 297.228 -9 221.228 -9 c 0xb0
 113.285 -9 57 108.928 57 228 c 0
 57 349.412 110.16 472 221.228 472 c 0
 300.228 472 356.228 406 386.228 342 c 1
 419.228 406 490.228 472 571.228 472 c 0
 655.228 472 735.228 370 725.228 290 c 1x70
666.228 318 m 1
 666.228 374 637.228 456 571.228 456 c 0
 498.228 456 444.228 390 419.228 318 c 1
 666.228 318 l 1
221.228 6 m 0
 311.196 6 355.373 124.646 355.373 240 c 0
 355.373 348.996 306.258 455 221.228 455 c 0
 133.358 455 89.2275 343.083 89.2275 231 c 0
 89.2275 118.584 133.097 6 221.228 6 c 0
EndSplineSet
EndChar
StartChar: germandbls
Encoding: 251 223 158
Width: 495
HStem: 0 15<121 123 20 22 20 22 65 67> 419 11<90 92 45 47 45 47 90 92> 647 22<202 204 235 237>
Fore
397 143 m 0xf4
 397 212 322 299 242 299 c 1
 242 328 l 1
 307 343 364 403.972 364 474 c 0
 364 564 320 647 203 647 c 0
 160 647 122 613 122 570 c 2
 122 0 l 1
 21 0 l 1
 21 15 l 1
 66 15 l 2
 79 15 91 29 91 42 c 2xec
 91 419 l 1
 46 419 l 1
 46 430 l 1
 91 430 l 1
 91 534 l 2
 91 622 129.985 669 236 669 c 0
 344 669 398 574 398 492 c 0
 398 429.688 356.503 349.046 294 331 c 1
 296 318 l 1
 382 288 428 235.945 428 162 c 0
 428 71.7578 385.832 3 269 3 c 0
 237.644 3 154 17.8883 154 90 c 0
 154 113 161.788 150.947 204 150.947 c 0
 224 150.947 245 140 245 113 c 0
 245 81.9517 224 70 200 70 c 1
 215.6 41.9293 235.544 13.6377 273 13.6377 c 0
 366.874 13.6377 397 61.8801 397 143 c 0xf4
EndSplineSet
EndChar
StartChar: Euro
Encoding: 256 8364 159
Width: 658
Flags: W
HStem: -10 28<382 384 382 384> 284 30<127 129 518 520 503 505 130 132 96 98 37 39 52 54 94 96> 366 30<131 133 558 560 543 545 128 130 95 97 37 39 52 54 98 100> 652 27<382 384 382 384>
Fore
593 591 m 1xf0
 558.99 569.825 566 572 566 572 c 1
 520 628 457 652 383 652 c 0
 245 652 147 558 132 396 c 1
 559 396 l 1
 544 366 l 1
 129 366 l 1
 128 349 128 331 128 314 c 1
 519 314 l 1
 504 284 l 1
 131 284 l 1
 147 108 248 18 383 18 c 0
 466 18 538 52 581 111 c 1
 598 97 603 91 603 91 c 1
 553 30 480 -10 383 -10 c 0
 216 -10 112 136 97 284 c 1
 38 284 l 1
 53 314 l 1
 95 314 l 1
 94 331 94 349 96 366 c 1
 38 366 l 1
 53 396 l 1
 99 396 l 1
 120 545 206 679 383 679 c 0
 473 679 543 644 593 591 c 1xf0
EndSplineSet
EndChar
StartChar: brokenbar
Encoding: 257 166 101
Width: 201
Fore
78 398 m 1x80
 47 398 l 1
 47 723 l 1
 78 723 l 1
 78 398 l 1x80
78 -19 m 1
 47 -19 l 1
 47 331 l 1
 78 331 l 1
 78 -19 l 1
EndSplineSet
EndChar
StartChar: multiply
Encoding: 260 215 150
Width: 281
Fore
238 221 m 1x00
 209 192 l 1
 149 251 l 1
 88 191 l 1
 59 220 l 1
 120 279 l 1
 59 340 l 1
 88 369 l 1
 149 308 l 1
 209 367 l 1
 238 340 l 1
 178 278 l 1
 238 221 l 1x00
EndSplineSet
EndChar
StartChar: mu
Encoding: 263 181 116
Width: 671
HStem: 2 14<205 207 201 203>
Fore
517 150 m 1x80
 485 87 444 -16 353 2 c 0
 326 7 311 28 300 68 c 1
 273 31 251 2 206 2 c 0
 141 2 116 46 101 75 c 1
 74 -109 l 1
 66 -159 27 -150 33 -109 c 1
 113 416 l 1
 125 496 156 453 150 406 c 1
 117 188 l 1
 116 137 l 1
 115 79 144 17 202 16 c 0
 247 15 269 49 303 94 c 1
 343 425 l 1
 351 482 391 461 385 416 c 1
 337 117 l 1
 332 87 356 67 383 55 c 0
 439 31 477 132 493 164 c 1
 517 150 l 1x80
EndSplineSet
EndChar
StartChar: thorn
Encoding: 265 254 189
Width: 487
HStem: -147 15<159 161 204 206 204 206 33 35 33 35 78 80> 553 15<78 80 33 35 33 35 204 206 204 206 159 161>
Fore
426 243 m 0xe0
 423 108.932 344 -11 244 -9 c 0
 197.978 -8 167 2 135 28 c 1
 135 -105 l 2
 135 -118 147 -132 160 -132 c 2
 205 -132 l 1
 205 -147 l 1
 34 -147 l 1
 34 -132 l 1
 79 -132 l 2
 92 -132 104 -117 104 -105 c 2
 104 526 l 2
 104 538 92 553 79 553 c 2
 34 553 l 1
 34 568 l 1
 205 568 l 1
 205 553 l 1
 160 553 l 2
 147 553 135 539 135 526 c 2
 135 424 l 1
 164 459 200 474 244 472 c 0
 366 468 429 420 426 243 c 0xe0
381 239 m 0
 381 385 346 452.5 245.5 457.5 c 0
 201 469.5 135 392.352 135 334 c 2
 135 113 l 6
 135 60 163.95 7 244 5 c 0
 325 3 381 123 381 239 c 0
EndSplineSet
EndChar
StartChar: eth
Encoding: 266 240 175
Width: 439
HStem: 493 43<380 382 315 317 284 286 206 208 207 209 266 268 298 300 380 382>
Fore
381 493 m 1x80
 316 493 l 1
 347 388 327 252 297 167 c 0
 269 90 174 1 132 3 c 0
 78 7 74 189 109 280 c 0
 141 362 236 482 302 395 c 1
 304 445 298 457 285 493 c 1
 282 493 207 493 207 493 c 1
 208 536 l 1
 267 536 l 1
 255 576 177 635 134 616 c 2
 110 605 l 1
 115 631 l 1
 148 641 l 2
 220 663 282 598 299 536 c 1
 381 536 l 1
 381 493 l 1x80
267 386 m 0
 164 413 51 51 127 35 c 0
 222 15 378 357 267 386 c 0
EndSplineSet
EndChar
StartChar: logicalnot
Encoding: 274 172 107
Width: 638
HStem: 210 30<534 536 34 36 34 36 564 566>
Fore
565 40 m 1xc0
 535 40 l 1
 535 210 l 1
 35 210 l 1
 35 240 l 1
 565 240 l 1
 565 40 l 1xc0
EndSplineSet
EndChar
StartChar: Thorn
Encoding: 276 222 157
Width: 446
Flags: W
HStem: -213 21<182 184 234 236 234 236 29 31 29 31 82 84> 127 19<244 246 147 149 147 149 246 248> 391 24<147 149 259 261 247 249 147 149> 641 21<82 84 29 31 29 31 234 236 234 236 182 184>
Fore
407 294 m 0xf8
 416 170 337 127 245 127 c 2
 148 127 l 1
 148 -155 l 2
 148 -174 164 -192 183 -192 c 2
 235 -192 l 1
 235 -213 l 1
 30 -213 l 1
 30 -192 l 1
 83 -192 l 2
 101 -192 118 -172 118 -155 c 0
 118 -3 118 546 118 604 c 0
 118 621 101 641 83 641 c 2
 30 641 l 1
 30 662 l 1
 235 662 l 1
 235 641 l 1
 183 641 l 2
 164 641 148 623 148 604 c 2
 148 415 l 1
 260 415 l 2
 335 415 400 393 407 294 c 0xf8
368 292 m 0
 368 355 309 391 248 391 c 2
 148 391 l 1
 148 146 l 1
 247 146 l 2
 329 146 369 192 368 292 c 0
EndSplineSet
EndChar
StartChar: onequarter
Encoding: 277 188 123
Width: 401
HStem: 0 21G<135 137 105 107> 58 18<379 381 350 352 334 336 171 173 350 352 379 381 334 336 201 203> 406 6<131 133 44 46 44 46 66 68 107 109 131 133> 645 20G<200 202 235 237> 651 20G<80 82 60 62>
Fore
132 406 m 1xee
 45 406 l 1
 45 412 l 1
 67 412 l 2
 74 412 81 419 81 427 c 2
 81 671 l 1
 61 671 l 1
 61 680 l 1
 95 697 l 1
 95 427 l 2
 95 421 102 412 108 412 c 2
 132 412 l 1
 132 406 l 1xee
380 58 m 1
 351 58 l 1
 351 3 l 1
 335 3 l 1
 335 58 l 1
 172 58 l 1
 347 294 l 1
 351 294 l 1
 351 76 l 1
 380 76 l 1
 380 58 l 1
335 76 m 1
 335 260 l 1
 202 76 l 1
 335 76 l 1
201 665 m 1xf6
 236 665 l 1
 136 0 l 1
 106 0 l 1
 201 665 l 1xf6
EndSplineSet
EndChar
StartChar: threequarters
Encoding: 280 190 125
Width: 488
HStem: 0 21G<173 175 143 145> 58 18<415 417 386 388 370 372 208 210 386 388 415 417 371 373 237 239> 645 20G<238 240 273 275>
Fore
169 476 m 0xf0
 173 517 125 554 101 554 c 2
 88 554 l 1
 88 569 l 1
 97 570 99 571 107 575 c 0
 129 587 142 609 138 636 c 0
 135 696 55 681 55 633 c 1
 49 633 l 1
 49 672 85 694 122 692 c 0
 181 690 175 620 149 599 c 0
 142 595 141 591 133 588 c 1
 134 582 l 1
 138 580 139 577 140 576 c 0
 212 549 230 411 103 407 c 0
 71 406 42 426 44 457 c 0
 45 490 94 493 91 461 c 0
 92 447 84 436 68 441 c 1
 73 430 79 426 86 420 c 1
 107 404 167 424 169 476 c 0xf0
416 58 m 1
 387 58 l 1
 387 3 l 1
 371 3 l 1
 371 58 l 1
 209 58 l 1
 383 294 l 1
 387 294 l 1
 387 76 l 1
 416 76 l 1
 416 58 l 1
372 76 m 1
 372 260 l 1
 238 76 l 1
 372 76 l 1
239 665 m 1
 274 665 l 1
 174 0 l 1
 144 0 l 1
 239 665 l 1
EndSplineSet
EndChar
StartChar: degree
Encoding: 286 176 111
Width: 222
Fore
83 701 m 0x00
 176 699 174 565 81 562 c 0
 -12 559 -9 702 83 701 c 0x00
83 680 m 0
 20 682 19 586 82 587 c 0
 145 587 145 681 83 680 c 0
EndSplineSet
EndChar
StartChar: onehalf
Encoding: 287 189 124
Width: 385
HStem: 0 21G<132 134 102 104> 1 29<316 318 178 180 188 190 312 314> 406 6<134 136 47 49 47 49 69 71 110 112 134 136> 645 20G<197 199 232 234> 651 20G<83 85 63 65>
Fore
135 406 m 1x2c
 48 406 l 1
 48 412 l 1
 70 412 l 2
 77 412 84 419 84 427 c 2
 84 671 l 1
 64 671 l 1
 64 680 l 1
 98 697 l 1
 98 427 l 2
 98 421 105 412 111 412 c 2
 135 412 l 1
 135 406 l 1x2c
327 49 m 1
 317 1 l 1x64
 179 1 l 1
 179 10 l 2
 179 78 289 140 293 220 c 0
 294 247 274 269 244 270 c 0
 214 272 195 244 190 218 c 1
 187 218 l 1
 190 256 217 295 260 291 c 0
 288 289 319 274 321 235 c 0
 323 164 212 84 197 52 c 4
 189.174 35.3042 191 38 189 30 c 1
 313 30 l 1
 318 49 l 1
 327 49 l 1
198 665 m 1xb4
 233 665 l 1
 133 0 l 1
 103 0 l 1
 198 665 l 1xb4
EndSplineSet
EndChar
StartChar: minus
Encoding: 288 8722 2387
Width: 400
HStem: 222 26<311 313 32 34 32 34 311 313>
Fore
312 222 m 1x80
 33 222 l 1
 33 248 l 1
 312 248 l 1
 312 222 l 1x80
EndSplineSet
EndChar
StartChar: twosuperior
Encoding: 290 178 113
Width: 272
HStem: 406 29<161 163 21.5 23.5 31 33 158 160>
Fore
173 454 m 1xc0
 162 406 l 1
 22.5 406 l 1
 22.5 415 l 2
 22.5 484 135 545 137 626 c 0
 140 652 117 674 90 676 c 0
 59 678 40 651 36 623 c 1
 32 623 l 1
 35 662 63 699 105 697 c 0
 134 693 164 680 166 640 c 0
 166 569 67 492.5 43 457 c 0
 32.1253 440.915 37 444 32 435 c 1
 159 435 l 1
 164 454 l 1
 173 454 l 1xc0
EndSplineSet
EndChar
StartChar: registered
Encoding: 292 174 109
Width: 529
HStem: 318 10<250 252 250 252> 387 5<368 370 323 325 364 366 368 370> 387 8<342 344 227 229 246 248 246 248 158 160 158 160 177 179> 520 9<247 249 215 217 269 271 215 217 251 253> 618 9<177 179 158 160 158 160 206 208 270 272> 674 9<253 255 253 255>
Fore
254 683 m 0x9e
 497 681 494 317 251 318 c 0
 8 320 11 684 254 683 c 0x9e
254 674 m 0
 24 676 20 330 251 328 c 0
 482 326 485 672 254 674 c 0
369 387 m 1xde
 343 387 l 2xbe
 335 387 330 387 324 392 c 0xde
 318 397 316 401 313 407 c 2
 248 520 l 1
 216 520 l 1
 216 409 l 2
 216 405 217 402 220 399 c 0
 222 397 224 395 228 395 c 2xbe
 247 395 l 1
 247 387 l 1
 159 387 l 1
 159 395 l 1
 178 395 l 2
 182 395 185 397 187 399 c 0
 190 402 191 405 191 409 c 2
 191 604 l 2
 191 608 190 610 187 613 c 0
 185 616 182 618 178 618 c 2
 159 618 l 1
 159 627 l 1
 207 627 l 1
 271 627 l 2
 298 627 318 617 321 581 c 0
 324 541 298 524 270 520 c 1
 336 413 l 2
 342 405 351 398 353 397 c 1
 354 395 362 392 365 392 c 2xde
 369 392 l 1
 369 387 l 1xde
296 580 m 0
 296 604 274 616 252 616 c 2
 216 616 l 1
 216 529 l 1
 252 529 l 2
 282 529 296 544 296 580 c 0
EndSplineSet
EndChar
StartChar: copyright
Encoding: 293 169 104
Width: 539
HStem: 318 10<248 250 248 250> 383 11<307 309 241 243> 445 20G<342 344 338 340> 631 5<250 252 325 327 329 331 249 251> 674 9<251 253 251 253>
Fore
252 683 m 0xf8
 495 681 492 317 249 318 c 0
 6 320 9 684 252 683 c 0xf8
252 674 m 0
 21 676 18 330 249 328 c 0
 480 326 483 672 252 674 c 0
343 465 m 1
 327 380 l 1
 320 380 l 1
 320 383 320 385 318 388 c 0
 316 392 312 394 308 394 c 0
 286 394 270 377 246 376 c 0
 164 372 149 436 145 500 c 0
 142 560 171 637 251 636 c 0
 290 636 296 613 308 614 c 0
 312 615 313 618 317 620 c 1
 320 624 323 627 326 631 c 1
 330 631 l 1
 335 547 l 1
 329 547 l 1
 328 554 327 557 324 562 c 0
 309 598 287 631 250 631 c 0
 202 631 172 566 171 506 c 0
 170 450 190 383 242 383 c 0
 269 383 304 402 323 431 c 0
 331 443 335 450 339 465 c 1
 343 465 l 1
EndSplineSet
EndChar
StartChar: trademark
Encoding: 295 8482 2195
Width: 699
HStem: 445 20G<494 496 514 516 554 556 575 577> 458 9<146 148 167 169 167 169 85 87 85 87 106 108 575 577 494 496 436 438 437 439 369 371 384 386 384 386 291 293 291 293 310 312> 711 12<179 181 147 149 105 107 89 91 27 29 235 237>
Fore
257 655 m 1x7c
 251 655 l 1
 243 688 212 711 180 711 c 2
 148 711 l 2
 138 711 133 700 133 691 c 2
 133 482 l 2
 133 473 139 467 147 467 c 2
 168 467 l 1
 168 458 l 1
 86 458 l 1
 86 467 l 1
 107 467 l 2
 114 467 121 475 121 482 c 2
 121 691 l 2
 121 700 117 711 106 711 c 2
 90 711 l 2
 54 711 21 693 13 655 c 1
 5 655 l 1
 28 723 l 1
 236 723 l 1
 257 655 l 1x7c
576 458 m 1
 495 458 l 1
 495 465 l 1x9c
 515 465 l 2
 524 465 531 474 531 481 c 2
 531 701 l 1
 437 458 l 1x5c
 438 458 l 1
 344 695 l 1
 344 504 l 2
 344 489 351 467 370 467 c 2
 385 467 l 1
 385 458 l 1
 292 458 l 1
 292 467 l 1
 311 467 l 2
 329 467 337 488 337 504 c 2
 337 699 l 2
 337 707 330 715 323 715 c 2
 302 715 l 1
 302 722 l 1
 349 722 l 1
 443 483 l 1
 535 722 l 1
 576 722 l 1
 576 715 l 1
 555 715 l 2
 549 715 543 706 543 699 c 2
 543 481 l 2
 543 474 549 465 555 465 c 2x9c
 576 465 l 1
 576 458 l 1
EndSplineSet
EndChar
StartChar: plusminus
Encoding: 296 177 112
Width: 338
Flags: W
HStem: 233 23<300 302 32 34 32 34 153 155 175 177 300 302> 331 23<153 155 32 34 32 34 153 155 175 177 300 302 300 302 175 177>
Fore
301 233 m 1xe0
 33 233 l 1
 33 256 l 1
 154 256 l 1
 154 331 l 1
 33 331 l 1
 33 354 l 1
 154 354 l 1
 154 456 l 1
 176 456 l 1
 176 354 l 1
 301 354 l 1
 301 331 l 1
 176 331 l 1
 176 256 l 1
 301 256 l 1
 301 233 l 1xe0
EndSplineSet
EndChar
StartChar: Eth
Encoding: 297 208 143
Width: 596
HStem: 0 21<199 201 22 24 22 24 75 77> 0 27<177 179 271 273> 308 35<110 112 32 34 32 34 110 112 140 142 228 230 228 230 140 142> 634 27<22 24 320 322 177 179> 634 27<299 301> 640 21<75 77 22 24>
Fore
569 347 m 4xa7
 568 128 444 2.13312e-05 200 0 c 6
 23 0 l 1
 23 21 l 1
 76 21 l 2
 94 21 111 41 111 58 c 2
 111 308 l 1
 33 308 l 1
 33 343 l 1
 111 343 l 1
 111 603 l 2
 111 620 94 640 76 640 c 2
 23 640 l 1
 23 661 l 1x33
 300 661 l 2xab
 476 661 570 572 569 347 c 4xa7
532 359 m 4
 532 486 455 634 321 634 c 2x73
 178 634 l 2
 153 634 141 605 141 584 c 2
 141 343 l 1
 229 343 l 1
 229 308 l 1
 141 308 l 1
 141 77 l 2
 141 56 153 27 178 27 c 2
 272 27 l 2
 435 27 532 195.083 532 359 c 4
EndSplineSet
EndChar
StartChar: Aring
Encoding: 299 197 132
Width: 640
Flags: W
HStem: 0 22<610 612 433 435 433 435 475 477 170 172 209 211 209 211 0 2 0 2 34 36 594 596 610 612> 325 17<400 402 215 217 395 397 220 222> 747 21<334 336 332 334>
Fore
611 0 m 1xe0
 434 0 l 1
 434 22 l 1
 476 22 l 2
 491 22 501 38 496 52 c 2
 401 325 l 1
 216 325 l 1
 124 102 l 1
 111 69 134 22 171 22 c 2
 210 22 l 1
 210 0 l 1
 1 0 l 1
 1 22 l 1
 35 22 l 2
 62 22 90 56 100 80 c 2
 309 601 l 1
 297 634 l 1
 243 666 257 768 335 768 c 0
 431 767 428 627 333 617 c 1
 532 62 l 2
 540 39 572 22 595 22 c 2
 611 22 l 1
 611 0 l 1xe0
333 747 m 0
 270 748 269 653 332 653 c 0
 395 654 395 747 333 747 c 0
396 342 m 1
 317 575 l 1
 221 342 l 1
 396 342 l 1
EndSplineSet
MinimumDistance: x13,8 x3,20 
EndChar
StartChar: divide
Encoding: 301 247 182
Width: 364
HStem: 263 27<311 313 32 34 32 34 311 313>
Fore
164.738 456.851 m 0x80
 179.87 456.851 198.942 442.005 198.942 421.001 c 0
 198.942 399.143 178.399 385.084 162.109 385.084 c 0
 146.998 385.084 127.09 398.764 127.09 420.808 c 0
 127.09 442.697 147.66 456.851 164.738 456.851 c 0x80
312 263 m 1
 33 263 l 1
 33 290 l 1
 312 290 l 1
 312 263 l 1
170 180 m 0
 185.9 180 206.75 165.9 206.75 144 c 0
 206.75 122.1 185.9 108 170 108 c 0
 154.6 108 134 122.1 134 144 c 0
 134 165.9 154.6 180 170 180 c 0
EndSplineSet
EndChar
StartChar: onesuperior
Encoding: 302 185 120
Width: 227
HStem: 406 6<108 110 21 23 21 23 43 45 84 86 108 110> 651 20G<57 59 37 39>
Fore
109 406 m 1xe0
 22 406 l 1
 22 412 l 1
 44 412 l 2
 51 412 58 420 58 427 c 2
 58 671 l 1
 38 671 l 1
 38 680 l 1
 72 697 l 1
 72 427 l 2
 72 419 79 412 85 412 c 2
 109 412 l 1
 109 406 l 1xe0
EndSplineSet
EndChar
StartChar: threesuperior
Encoding: 303 179 114
Width: 267
HStem: 554 15<112 114 100 102 100 102>
Fore
182 476 m 0x80
 185 517 138 554 113 554 c 2
 101 554 l 1
 101 569 l 1
 109 570 112 571 119 575 c 0
 142 587 153 609 151 636 c 0
 145 696 67 681 67 633 c 1
 62 633 l 1
 62 672 97 694 134 692 c 0
 193 690 186 620 161 599 c 0
 155 595 153 591 146 588 c 1
 147 582 l 1
 150 580 150 577 153 576 c 0
 224 549 243 411 115 407 c 0
 84 406 54 426 56 457 c 0
 58 490 106 493 104 461 c 0
 103 447 95 436 81 441 c 1
 86 430 91 426 99 420 c 0
 119 404 179 424 182 476 c 0x80
EndSplineSet
EndChar
StartChar: uniFFFD
Encoding: 0 65533 3682
Width: 1000
Fore
634 424 m 0x00
 631 502 592 547 473 544 c 0
 423 543 374 507 377 456 c 0
 378.976 421.437 399.223 409.185 419 409.185 c 0
 439.285 409.185 459.012 425.725 458 448 c 0
 456 475 445 484 416 484 c 1
 430 510 454 523 482 524 c 0
 526 526 564 495 565 427 c 0
 567 315 473 270 467 158 c 0
 466 139 465 127 467 108 c 1
 486 108 l 1
 487 127 488 136 490 155 c 0
 506 273 639 291 634 424 c 0x00
481.556 68.2048 m 0
 459.674 68.2048 442.125 47.9879 442.125 27.1575 c 0
 442.125 8.182 460.126 -11.7789 482.806 -11.7789 c 0
 504.841 -11.7789 522.435 8.72335 522.435 29.5417 c 0
 522.435 48.8276 509.5 68.2048 481.556 68.2048 c 0
500 -163 m 1
 50 288 l 1
 500 737 l 1
 950 287 l 1
 500 -163 l 1
EndSplineSet
EndChar
StartChar: exclam
Encoding: 33 33 1
Width: 283
Flags: HW
HStem: 0 210<103 105 109 111>
Fore
99 740 m 4xc0
 105 752 118 753 124 740 c 0
 158 675 177 652 177 591 c 0
 177 456 122 384 122 249 c 0
 122 217 102 218 102 249 c 0
 102 384 47 456 47 591 c 0
 47 652 70 678 99 740 c 4xc0
14 104 m 0
 14 162.192 51.8076 210 104 210 c 0
 158.192 210 206 162.192 206 104 c 0
 206 47.8076 162.192 0 110 0 c 0
 55.8076 0 14 47.8076 14 104 c 0
EndSplineSet
EndChar
StartChar: quotedbl
Encoding: 34 34 2
Width: 270
HStem: 641 20G<206 208 140 142 103 105 37 39>
Fore
207 661 m 1x80
 193 539 l 1
 155 539 l 1
 141 661 l 1
 207 661 l 1x80
104 661 m 1
 90 539 l 1
 52 539 l 1
 38 661 l 1
 104 661 l 1
EndSplineSet
EndChar
StartChar: numbersign
Encoding: 35 35 3
Width: 440
HStem: 213 58<367 369 471 473 471 473 362 364 304 306 165 167 107 109 -1 1 -1 1 112 114 170 172 309 311> 422 58<514 516 138 140 42 44 42 44 143 145 201 203 340 342 398 400 514 516 336 338> 422 203<394 396 196 198>
Fore
515 422 m 1x80
 395 422 l 1x80
 368 271 l 1
 472 271 l 1
 472 213 l 1
 363 213 l 1
 338 43 l 1
 280 43 l 1
 305 213 l 1
 166 213 l 1
 141 43 l 1
 83 43 l 1
 108 213 l 1
 0 213 l 1
 0 271 l 1
 113 271 l 1
 139 422 l 1x80
 43 422 l 1x80
 43 480 l 1x80
 144 480 l 1x80
 170 625 l 1x80
 228 625 l 1x80
 202 480 l 1x80
 341 480 l 1x80
 367 625 l 1x80
 425 625 l 1x80
 399 480 l 1x80
 515 480 l 1x80
 515 422 l 1x80
337 422 m 1x80
 197 422 l 1x80
 171 271 l 1
 310 271 l 1
 337 422 l 1x80
EndSplineSet
EndChar
StartChar: dollar
Encoding: 36 36 4
Width: 663
Fore
207 410 m 2xc0
 230 561 l 1
 233 576 224 576 216 576 c 0
 148 576 96 546 96 495 c 0
 96 440 138 421 190 402 c 0
 195 398 206 403 207 410 c 2xc0
315 381 m 1
 339 533 l 1
 341 544 337 552 331 555 c 0
 310 565 295 570 274 573 c 0
 263 574 258 568 256 559 c 1
 232 405 l 1
 231 395 238 385 243 385 c 0
 280.376 373.786 258.434 379.142 295 370 c 0
 301 367 314 369 315 381 c 1
262 49 m 0
 274 123 280 164 290 233 c 0
 291 241 287 250 282 251 c 0
 263 257 243 260 224 266 c 0
 218 269 207 262 204 245 c 1
 180 77 l 1
 179 64 176 67 186 63 c 0
 209 53 229 46 250 41 c 0
 258 38 261 41 262 49 c 0
315 227 m 1
 288 46 l 2
 287 40 288 35 298 33 c 0
 306 34 314 32 324 32 c 0
 393 32 447 74 447 143 c 0
 447 202 392 219 335 237 c 0
 324 242 317 231 315 227 c 1
356 638 m 1
 359 660 387 657 384 639 c 1
 378 611 l 1
 379 606 380 602 385 602 c 0
 410 595 434 584 460 568 c 0
 475 559 484 547 484 530 c 0
 484 517 470 501 456 501 c 0
 434 501 406 512 379 528 c 0
 373 532 367 542 366 528 c 1
 339 374 l 1
 339 363 347 355 354 352 c 0
 440 323 512 273 512 167 c 0
 512 64 409 5 290 -4 c 0
 281 -5 279 -10 278 -17 c 1
 265 -94 l 2
 262 -112 234 -114 238 -93 c 1
 251 -19 l 2
 252 -13 249 -6 240 -6 c 0
 219 -6 199 -6 179 -4 c 0
 169 -3 166 -8 165 -15 c 1
 151 -94 l 2
 148 -112 121 -114 125 -93 c 1
 139 -10 l 1
 140 -3 137 4 131 5 c 0
 95 13 66 25 34 52 c 0
 25 60 19 74 19 88 c 0
 19 102 32 121 50 121 c 0
 65 121 83 117 102 105 c 0
 116 96 131 91 143 83 c 0
 149 81 154 82 157 91 c 0
 167 160 171 196 181 264 c 0
 183 272 179 280 173 284 c 0
 101 312 49 365 49 462 c 0
 49 553 145 602 229 613 c 0
 235 614 239 616 240 623 c 1
 243 638 l 1
 246 660 272 657 269 639 c 1
 267 623 l 1
 266 619 269 615 273 615 c 0
 299 615 321 614 342 611 c 0
 347 610 352 611 354 618 c 1
 356 638 l 1
EndSplineSet
EndChar
StartChar: percent
Encoding: 37 37 5
Width: 891
HStem: -5 14<700 702 700 702> 282 13<162 164 162 164> 400 17<700 702 700 702> 687 17<162 164 162 164>
Fore
160 3 m 0xff
 371 278 528 483 701 710 c 0
 715 730 746 719 726 693 c 0
 518 416 398 261 182 -14 c 0
 165 -37 145 -19 160 3 c 0xff
598 204 m 0
 598 96 633 9 701 9 c 0
 769 9 805 96 805 204 c 0
 805 312 769 400 701 400 c 0
 633 400 598 312 598 204 c 0
494 206 m 0
 494 323 586 417 701 417 c 0
 816 417 909 323 909 206 c 0
 909 89 816 -5 701 -5 c 0
 586 -5 494 89 494 206 c 0
60 491 m 0
 60 383 95 295 163 295 c 0
 231 295 267 383 267 491 c 0
 267 599 231 687 163 687 c 0
 95 687 60 599 60 491 c 0
-44 493 m 0
 -44 609 48 704 163 704 c 0
 278 704 373 609 373 493 c 0
 373 376 278 282 163 282 c 0
 48 282 -44 376 -44 493 c 0
EndSplineSet
EndChar
StartChar: ampersand
Encoding: 38 38 6
Width: 1166
HStem: 0 74<409 411 319 321> 387 24<699 701 699 701 975 977> 682 23<525 527 498 500>
Fore
552 470 m 0x7c
 589 490 601 539 601 584 c 0
 601 635 578 682 526 682 c 0
 472 682 460 653 460 602 c 0
 460 560 490 508 524 477 c 0
 536 468 541 464 552 470 c 0x7c
568 158 m 0
 561 171 559.789 181.54 550 195 c 0
 526 228 519 237 495 266 c 0
 458.032 310.67 426 345 392 380 c 0
 384 390 378 388 368 385 c 0
 284 356 224 316 224 230 c 0
 224 130 293 75 410 74 c 0xfc
 459 73 509 101 565 134 c 0
 574 139 575 147 568 158 c 0
1045 184 m 0
 1052 195 1054 208 1063 208 c 0
 1072 208 1073 203 1068 184 c 0
 1034 42 879 -13 774 -9 c 0
 692 -6 636 38 598 97 c 1
 593 103 590 102 583 97 c 0
 500 40 409 0 320 0 c 0
 145 0 53 61 53 205 c 0
 53 323 156 373 340 412 c 0
 352 415 355 421 351 430 c 0
 331 462 326 488 326 524 c 0
 326 631 375 705 499 705 c 4
 612 705 687 658 687 579 c 0
 687 493 627 470 576 443 c 0
 567 438 569 427 575 421 c 0
 589 405 589 402 606 386 c 0
 639 348 657 324 685 284 c 0
 698 263 711 240 723 222 c 0
 728 212 730 211 738 219 c 0
 775 254 796 292 794 317 c 0
 791 362 747 387 700 387 c 0
 681 387 670 412 700 411 c 0
 765 414 903 416 976 411 c 0
 1002 410 998 394 979 392 c 0
 948 387 913 358 878 326 c 0
 835 286 795 242 751 202 c 1
 743 198 743 187 747 181 c 0
 778 132 809 114 885 118 c 0
 953 122 1020 139 1045 184 c 0
EndSplineSet
EndChar
StartChar: quoteright
Encoding: 39 8217 2053
Width: 220
Fore
163 543 m 1x00
 158 530 154 520 144 508 c 0
 129 488 119 478 97 467 c 0
 84 460 64 457 49 454 c 1
 36 469 l 1
 47 472 54 476 62 483 c 0
 72 491 78 498 80 510 c 0
 81 519 83 525 78 532 c 1
 37 557 39 635 118 631 c 0
 184 626 185 573 163 543 c 1x00
EndSplineSet
EndChar
StartChar: parenleft
Encoding: 40 40 8
Width: 354
Fore
244 650 m 0x00
 118 508 123 351 123 247 c 0
 123 149 118 -14 244 -156 c 0
 277 -193 272 -197 232 -168 c 0
 127 -88 19 62 19 247 c 0
 19 433 127 583 232 662 c 0
 272 692 277 687 244 650 c 0x00
EndSplineSet
EndChar
StartChar: parenright
Encoding: 41 41 9
Width: 354
Fore
66 650 m 0x00
 33 687 38 692 78 662 c 0
 183 583 291 433 291 247 c 0
 291 62 183 -88 78 -168 c 0
 38 -197 33 -193 66 -156 c 0
 192 -14 187 149 187 247 c 0
 187 351 192 508 66 650 c 0x00
EndSplineSet
EndChar
StartChar: asterisk
Encoding: 42 42 10
Width: 462
HStem: 468 21G<226 228>
Fore
391 386 m 0xc0
 401 369 399 350 363 328 c 0
 320 304 285 310 257 294 c 1
 288 277 322 284 357 263 c 0
 396 240 397 216 387 199 c 0
 378 183 359 174 323 195 c 0
 280 219 272 255 243 270 c 1
 243 236 267 217 267 175 c 0xa0
 267 132 245 118 227 118 c 0
 209 118 191 129 191 172 c 0xc0
 191 220 215 239 214 270 c 1xa0
 187 255 174 219 131 195 c 0
 95 174 78 183 67 199 c 0
 57 217 60 240 97 263 c 0
 132 284 170 276 199 293 c 1
 173 309 139 301 96 325 c 0
 60 347 58 369 68 386 c 0
 76 400 101 413 138 393 c 0
 173 372 186 336 215 319 c 1
 216 350 191 366 191 414 c 0
 191 457 207 468 227 468 c 0
 247 468 267 454 267 411 c 0
 267 369 243 352 243 318 c 1x90
 274 335 286 372 321 393 c 0
 360 413 382 402 391 386 c 0xc0
EndSplineSet
EndChar
StartChar: plus
Encoding: 43 43 11
Width: 254
HStem: 230 63<339 341 216 218 155 157 32 34 32 34 155 157 216 218 339 341>
Fore
340 230 m 1xc0
 217 230 l 1
 217 105 l 1
 156 105 l 1
 156 230 l 1
 33 230 l 1
 33 293 l 1
 156 293 l 1
 156 413 l 1
 217 413 l 1
 217 293 l 1
 340 293 l 1
 340 230 l 1xc0
EndSplineSet
EndChar
StartChar: comma
Encoding: 44 44 12
Width: 378
Fore
169.689 -20.3457 m 0x00
 170.931 -10.4141 170.311 2 161 2 c 0
 108.857 2 73 17 73 84 c 4
 73 138.625 116.451 172.593 167.352 172.593 c 0
 219.492 172.593 265.282 136.078 265.282 46.6934 c 0
 265.282 -32.7607 198.243 -103.523 87.7529 -115.938 c 0
 48.0264 -120.904 55.4756 -83.6602 85.2705 -84.9023 c 0
 111.341 -86.1436 167.206 -55.1074 169.689 -20.3457 c 0x00
EndSplineSet
EndChar
StartChar: hyphen
Encoding: 45 45 13
Width: 81
HStem: 183 71<251 253 32 34 32 34 251 253>
Fore
252 183 m 1x80
 33 183 l 1
 33 254 l 1
 252 254 l 1
 252 183 l 1x80
EndSplineSet
EndChar
StartChar: period
Encoding: 46 46 14
Width: 468
Fore
44 100 m 0x00
 44 158.512 91.488 206 150 206 c 0
 208.512 206 256 158.512 256 100 c 0
 256 41.488 208.512 -6 150 -6 c 0
 91.488 -6 44 41.488 44 100 c 0x00
EndSplineSet
EndChar
StartChar: slash
Encoding: 47 47 15
Width: 202
Fore
332 615 m 1x00
 2 -20 l 1
 -85 -20 l 1
 245 615 l 1
 332 615 l 1x00
EndSplineSet
EndChar
StartChar: zero
Encoding: 48 48 16
Width: 643
Flags: W
HStem: 0 19<324.584 326.584 324.584 326.584> 562 19<324.584 326.584 324.584 326.584>
Fore
325.584 0 m 0xc0
 48.584 0 48.584 581 325.584 581 c 0
 606.584 581 602.584 0 325.584 0 c 0xc0
325.584 19 m 0
 442.584 19 442.584 562 325.584 562 c 0
 207.584 562 207.584 19 325.584 19 c 0
EndSplineSet
EndChar
StartChar: one
Encoding: 49 49 17
Width: 446
Flags: W
HStem: 0 22<345 347 95 97 95 97 142 144 298 300 345 347>
Fore
346 0 m 1xc0
 96 0 l 1
 96 22 l 1
 143 22 l 2
 158 22 168 35 168 49 c 2
 168 529 l 1
 128 529 l 1
 128 547 l 1
 273 581 l 1
 273 49 l 2
 273 36 286 22 299 22 c 2
 346 22 l 1
 346 0 l 1xc0
EndSplineSet
EndChar
StartChar: two
Encoding: 50 50 18
Width: 616
Flags: W
HStem: 0 124<470.333 472.333 135.333 137.333 214.333 216.333 465.333 467.333>
Fore
494.333 162 m 1x80
 471.333 0 l 1
 136.333 0 l 1
 136.333 84 l 2
 136.333 221 343.333 278 349.333 439 c 0
 353.333 492 319.333 536 262.333 539 c 0
 198.333 543 154.333 491 143.333 434 c 1
 120.333 434 l 1
 126.333 523 196.333 578 284.333 581 c 0
 380.333 583 480.333 547 479.333 450 c 0
 477.333 278 293.333 241 234.333 168 c 0
 210.333 140 222.333 141 215.333 124 c 1
 466.333 124 l 1
 476.333 162 l 1
 494.333 162 l 1x80
EndSplineSet
EndChar
StartChar: three
Encoding: 51 51 19
Width: 602
Flags: HW
Fore
384.887 143 m 0x00
 384.887 231 294.022 299 245.887 299 c 2
 222.887 299 l 1
 222.887 328 l 1
 237.887 331 244.887 333 257.887 340 c 0
 300.663 362.753 323.56 401.246 323.56 447.937 c 0
 323.56 503.746 286.129 522.556 239.84 522.556 c 0
 197.096 522.556 153.887 500.249 153.887 457 c 1
 132.887 457 l 1
 132.887 536.073 210.067 575.161 280.138 575.161 c 0
 361.38 575.161 434.823 530.078 434.823 473.569 c 4
 434.823 409 396.156 378.124 356.887 360 c 1
 356.887 347 l 1
 420 327 500.826 266.094 500.826 185.885 c 0
 500.826 64 416.108 -6.05689 246.408 -6.0569 c 0
 188.498 -6.0569 131.7 41.0107 131.7 98.3105 c 0
 131.7 142.413 158.468 170.77 185.771 170.77 c 0
 210.759 170.77 234.954 150.389 234.954 116.14 c 0
 234.954 82.072 220.733 68 183.887 68 c 1
 197.13 42.8374 218.406 19.7746 254.462 19.7746 c 0
 305.353 19.7746 384.887 61.7706 384.887 143 c 0x00
EndSplineSet
EndChar
StartChar: four
Encoding: 52 52 20
Width: 679
Flags: MW
HStem: 0 21G<516 518 407 409> 109 107<574 576 516 518 407 409 84 86 516 518 574 576 405 407 231 233> 561 20G<431 433 516 518>
Fore
575 109 m 1xe0
 517 109 l 1
 517 0 l 1
 408 0 l 1
 408 109 l 1
 85 109 l 1
 432 581 l 1
 517 581 l 1
 517 216 l 1
 575 216 l 1
 575 109 l 1xe0
406 216 m 1
 406 454 l 1
 232 216 l 1
 406 216 l 1
EndSplineSet
EndChar
StartChar: five
Encoding: 53 53 21
Width: 620
Flags: HW
HStem: 515 65<156.718 158.718 414.718 416.718 462.718 464.718 217.718 219.718>
Fore
512.718 172 m 0x80
 512.718 75.5 408 -12.8872 275.143 -12.8872 c 0
 198.074 -12.8872 132.771 34.0149 131.718 93 c 0
 131.718 146.846 157.431 161.732 186.16 161.732 c 0
 216.98 161.732 236.755 144.98 236.755 114.026 c 0
 236.755 78.5361 206.593 60 180.718 60 c 1
 203.098 32.0248 228.269 21.2277 269.62 21.2277 c 0
 344.564 21.2277 406.718 88.6743 406.718 165 c 0
 406.718 253.231 326.724 298.428 247.791 298.428 c 0
 215.792 298.428 183.968 291 157.718 276 c 1
 157.718 580 l 5
 415.718 580 l 2
 427.718 580 451.718 581 458.718 594 c 2
 463.718 603 l 1
 470.718 603 l 1
 463.718 515 l 1
 218.718 515 l 5
 218.718 381 l 1
 244.643 394.736 271.766 400.949 298.609 400.949 c 0
 416 400.949 512.718 314 512.718 172 c 0x80
EndSplineSet
EndChar
StartChar: six
Encoding: 54 54 22
Width: 683
Flags: HW
HStem: 0 17<353.715 355.715 353.715 355.715> 356 20<353.715 355.715 353.715 355.715>
Fore
379.715 581 m 1xc0
 384.715 541 l 1
 320 508 299.715 509 265.715 413 c 0
 252.715 375 246.715 349 246.715 311 c 1
 273.715 350 310.715 376 354.715 376 c 0
 514.831 374.508 584 281.283 584 188.045 c 0
 584 94.0273 513.507 -0.00200732 355.975 -0.00200402 c 0
 355.556 -0.00200402 355.136 -0.00133732 354.715 0 c 0
 181.266 0.45169 120.292 99.6508 120.292 214.381 c 0
 120.292 353.653 210.142 515.812 297.715 552 c 0
 334.03 567.007 346.715 573 379.715 581 c 1xc0
354.715 17 m 0
 427.449 17 464.976 102.978 464.976 188.336 c 0
 464.976 271.97 428.95 355.01 354.715 356 c 0
 354.271 356.006 353.827 356.009 353.386 356.009 c 0
 279.449 356.009 244.064 274.317 244.064 191.137 c 0
 244.064 104.869 282.125 17 354.715 17 c 0
EndSplineSet
EndChar
StartChar: seven
Encoding: 55 55 23
Width: 619
Flags: W
HStem: 0 21G<357.667 359.667 233.667 235.667> 475 106<523.667 525.667 400.667 402.667 206.667 208.667 104.667 106.667>
Fore
524.667 581 m 1xc0
 358.667 0 l 1
 234.667 0 l 1
 401.667 475 l 1
 207.667 475 l 2
 179.667 475 146.667 480 146.667 442 c 2
 146.667 411 l 1
 107.667 423 l 1
 105.667 581 l 1
 524.667 581 l 1xc0
EndSplineSet
EndChar
StartChar: eight
Encoding: 56 56 24
Width: 639
Flags: HW
HStem: -3 20<342.688 344.688 342.688 344.688>
Fore
530.688 148 m 0x80
 534.688 54 436.688 -3 343.688 -3 c 0
 188.688 -3 117.688 48 117.688 161 c 0
 117.688 236.007 196 278 260.688 303 c 1
 218.688 337 141.688 379.967 141.688 441 c 0
 141.688 534 212 583 341.688 583 c 0
 452 583 490.688 516 492.688 452 c 0
 494.688 378 431.688 351 373.688 318 c 1
 442.688 277 527.688 227 530.688 148 c 0x80
448.688 459 m 0
 446.688 504 408 566 341.688 566 c 0
 288.603 566 245.688 522 247.688 469 c 0
 249.688 413 302.688 364 352.688 332 c 1
 400.688 362 450.688 389 448.688 459 c 0
424.688 145 m 0
 424.688 208.032 350.688 238 280.688 289 c 1
 240.688 262 195.688 215 195.688 164 c 0
 195.688 102 222 17 326 17 c 0
 390 17 424.688 60 424.688 145 c 0
EndSplineSet
EndChar
StartChar: nine
Encoding: 57 57 25
Width: 679
Flags: HW
HStem: 196 20<348.193 350.193 348.193 350.193> 555 17<348.193 350.193 348.193 350.193>
Fore
457.193 261 m 1xc0
 430.193 222 393.193 196 349.193 196 c 0
 185.168 197.473 134 288.422 134 380.49 c 4
 134 475.647 190.485 572.002 347.949 572.002 c 0
 349.193 572 l 0
 506.166 571.527 563.883 480.517 563.883 371.9 c 0
 563.883 250.79 492.125 107.79 406.193 44 c 0
 376.193 22 359.193 7 324.193 -9 c 1
 327.193 35 l 1
 367.193 68 420.193 109 436.193 159 c 0
 451.193 197 457.193 223 457.193 261 c 1xc0
349.193 216 m 0
 349.637 215.994 350.081 215.991 350.522 215.991 c 0
 424.458 215.991 459.844 297.683 459.844 380.863 c 0
 459.844 467.131 421.783 555 349.193 555 c 0
 276.459 555 238.932 469.022 238.932 383.664 c 0
 238.932 300.03 274.958 216.99 349.193 216 c 0
EndSplineSet
EndChar
StartChar: less
Encoding: 60 60 28
Width: 393
Fore
457 61 m 1x00
 43 236 l 1
 43 318 l 1
 457 483 l 1
 457 409 l 1
 128 282 l 1
 128 270 l 1
 457 136 l 1
 457 61 l 1x00
EndSplineSet
EndChar
StartChar: equal
Encoding: 61 61 29
Width: 310
HStem: 187 59<311 313 32 34 32 34 311 313> 295 59<311 313 32 34 32 34 311 313>
Fore
312 295 m 1xc0
 33 295 l 1
 33 354 l 1
 312 354 l 1
 312 295 l 1xc0
312 187 m 1
 33 187 l 1
 33 246 l 1
 312 246 l 1
 312 187 l 1
EndSplineSet
EndChar
StartChar: greater
Encoding: 62 62 30
Width: 328
Fore
-68 61 m 1x00
 -68 136 l 1
 261 270 l 1
 261 282 l 1
 -68 409 l 1
 -68 483 l 1
 346 318 l 1
 346 236 l 1
 -68 61 l 1x00
EndSplineSet
EndChar
StartChar: question
Encoding: 63 63 31
Width: 431
HStem: -44 184<131 133 131 133> 595 111<98 100 141 143>
Fore
40 48 m 0xe0
 40 98.784 81.216 140 132 140 c 0
 182.784 140 224 98.784 224 48 c 0
 224 -2.784 182.784 -44 132 -44 c 0
 81.216 -44 40 -2.784 40 48 c 0xe0
159 343 m 0
 149 271 148 258 136 182 c 0
 133 162 115 163 113 183 c 0
 107 251 100 301 92 379 c 0
 88 407 79 445 106 450 c 0
 196 467 312 476 312 563 c 0
 312 614 265 639 220 639 c 0
 170 639 137 595 99 595 c 0
 74 595 55 616 55 640 c 0
 55 683 100 706 142 706 c 0
 235 706 333 641 333 543 c 0
 334 456 254 404 186 377 c 0
 170 370 161 360 159 343 c 0
EndSplineSet
EndChar
StartChar: at
Encoding: 64 64 32
Width: 662
Fore
657.016 379.46 m 0x80
 657.016 610.338 579.274 699.038 408.916 699.038 c 0
 210.182 699.038 77.843 498.398 77.843 337.716 c 0
 77.843 181.674 238.76 31.712 469.924 31.712 c 0
 536.058 31.712 584.998 61.7698 643 109 c 1
 737 140 l 1
 661.652 47.2636 550.584 -25.102 437.5 -25.1018 c 0
 173.522 -25.1018 11.263 130.986 11.263 311.506 c 0
 11.263 500.976 168.428 755 416 755 c 0
 604.074 755 727.456 605.332 727.456 416.978 c 0
 727.456 278.62 710.29 176.172 624.888 176.172 c 0
 564.882 176.172 523 209 508 259 c 1
 494 218 454.969 159.516 362.616 159.516 c 0
 224.312 159.516 155.614 244.253 155.614 337.908 c 0
 155.614 452.096 239.194 581.484 379.406 581.484 c 0
 446.409 581.484 474 541 487 524 c 1
 561 558 l 1
 561 271 l 2
 561 235.59 589.334 217.724 621.148 217.724 c 0
 661.264 217.724 657.016 306.114 657.016 379.46 c 0x80
453 264 m 1
 453 485 l 1
 425.88 507.78 410.252 519.228 371.95 519.228 c 0
 313.432 519.228 278.456 448.14 278.456 372.844 c 0
 278.456 295.824 307.678 217.624 378.268 217.624 c 0
 423.203 217.624 430.008 236.168 453 264 c 1
EndSplineSet
EndChar
StartChar: A
Encoding: 65 65 33
Width: 845
Flags: W
HStem: 0 31<769 771 517 519 517 519 556 558 257 259 293 295 293 295 48 50 48 50 85 87 750 752 769 771> 310 32<490 492 290 292 479 481 304 306>
Fore
770 0 m 1xc0
 518 0 l 1
 518 31 l 1
 557 31 l 2
 572 31 582 47 577 61 c 2
 491 310 l 1
 291 310 l 1
 211 111 l 2
 198 77 222 31 258 31 c 2
 294 31 l 1
 294 0 l 1
 49 0 l 1
 49 31 l 1
 86 31 l 2
 116 31 141 65 151 89 c 2
 381 625 l 1
 375 647 l 1
 468 686 l 1
 688 71 l 2
 696 48 728 31 751 31 c 2
 770 31 l 1
 770 0 l 1xc0
480 342 m 1
 401 575 l 1
 305 342 l 1
 480 342 l 1
EndSplineSet
MinimumDistance: x13,8 x3,19 
EndChar
StartChar: B
Encoding: 66 66 34
Width: 772
Flags: W
HStem: 0 30<407 409 98 100 98 100 151 153> 0 36<328 330 400 402> 357 35<291 293 403 405 435 437 291 293> 625 36<98 100 441 443 436 438 328 330> 631 30<151 153 98 100>
Fore
661 220 m 0xae
 667 102 554 0 408 0 c 2
 99 0 l 1
 99 30 l 1
 152 30 l 2
 170 30 187 50 187 67 c 2
 187 594 l 2
 187 611 170 631 152 631 c 2
 99 631 l 1
 99 661 l 1xb6
 442 661 l 2
 549 661 637 630 637 535 c 0
 637 462 604 412 553 382 c 1
 623 357 657 299.975 661 220 c 0xae
539 535 m 0
 539 593 493 625 437 625 c 2
 329 625 l 2
 303 625 292 597 292 575 c 2
 292 392 l 1
 404 392 l 2
 482 392 539 456 539 535 c 0
559 206 m 0
 559 279 508 357 436 357 c 2
 292 357 l 1
 292 86 l 2
 292 62 300 36 329 36 c 2x64
 401 36 l 2
 494 36 559 135 559 206 c 0
EndSplineSet
EndChar
StartChar: C
Encoding: 67 67 35
Width: 809
Flags: W
HStem: 17 19<587 589 417 419> 653 20G<637 639 661 663> 665 14<441 443 438 440>
Fore
691 228 m 1xe0
 646 -1 l 1
 620 -1 l 1
 624 16 607 36 588 36 c 0
 531 34 491.972 2 431 -2 c 0
 199 -20 119 150 119 323 c 0
 119 488 213 683 442 679 c 0
 543.995 677 559 621 590 629 c 0
 611.796 635 623 660 638 673 c 1
 662 673 l 1
 673 446 l 1
 647 446 l 1
 622 540 549 665 439 665 c 0
 314 665 237 488 233 336 c 0
 229 192.014 283 17 418 17 c 0
 490 17 580 65 631 143 c 0
 651 174 661 193 671 228 c 1
 691 228 l 1xe0
EndSplineSet
EndChar
StartChar: D
Encoding: 68 68 36
Width: 907
Flags: W
HStem: 0 30<404 406 98 100 98 100 151 153> 0 36<328 330 422 424> 625 36<98 100 471 473 328 330> 631 30<151 153 98 100 504 506>
Fore
795 347 m 0x9c
 795 172.003 633 0 405 0 c 2
 99 0 l 1
 99 30 l 1
 152 30 l 2
 170 30 187 50 187 67 c 2
 187 594 l 2
 187 611 170 631 152 631 c 2
 99 631 l 1
 99 661 l 1x2c
 505 661 l 2x9c
 713 661 795 482.008 795 347 c 0x9c
682 375 m 0
 682 498.604 600.575 631.081 472 625 c 1x6c
 329 625 l 2
 304 625 292 596 292 575 c 2
 292 86 l 2
 292 65 304 36 329 36 c 2
 423 36 l 2
 591.332 36 682 200.017 682 375 c 0
EndSplineSet
EndChar
StartChar: E
Encoding: 69 69 37
Width: 785
Flags: W
HStem: 0 30<610 612 98 100 98 100 151 153> 0 36<329 331 457 459> 348 32<291 293 391 393 391 393 291 293> 625 36<98 100 457 459 329 331> 631 30<151 153 98 100 618 620>
Fore
663 196 m 1xae
 611 0 l 1
 99 0 l 1
 99 30 l 1
 152 30 l 2
 170 30 187 50 187 67 c 2
 187 594 l 2
 187 611 170 631 152 631 c 2
 99 631 l 1
 99 661 l 1x36
 619 661 l 1x2e
 663 461 l 1
 637 461 l 1
 624 491 l 2
 592 565 544 625 458 625 c 2x76
 330 625 l 2
 304 625 292 598 292 575 c 2
 292 380 l 1
 392 380 l 2
 440 380 491 419 491 470 c 2
 491 488 l 1
 515 488 l 1
 515 234 l 1
 491 234 l 1
 491 252 l 2
 491 301 439 348 392 348 c 2
 292 348 l 1
 292 86 l 2
 292 63 304 36 330 36 c 2
 458 36 l 2
 539 36 594 93 624 165 c 2
 637 196 l 1
 663 196 l 1xae
EndSplineSet
EndChar
StartChar: F
Encoding: 70 70 38
Width: 720
Flags: W
HStem: 0 30<326 328 379 381 379 381 98 100 98 100 151 153> 344 33<291 293 388 390 388 390 291 293> 470 21G<621 623 600 602 487 489> 621 40<454 456 329 331 98 100> 631 30<151 153 98 100 600 602>
Fore
622 470 m 1xf6
 601 470 l 1
 594 502 l 2
 578 572 527 621 455 621 c 2
 330 621 l 2
 304 621 292 592 292 570 c 2
 292 377 l 1
 389 377 l 2
 438 377 488 418 488 470 c 2
 488 488 l 1
 512 488 l 1
 512 234 l 1
 488 234 l 1
 488 252 l 2
 488 307 438 344 389 344 c 2
 292 344 l 1
 292 67 l 2
 292 49 309 30 327 30 c 2
 380 30 l 1
 380 0 l 1
 99 0 l 1
 99 30 l 1
 152 30 l 2
 170 30 188 49 188 67 c 2
 188 594 l 2
 188 612 170 631 152 631 c 2xee
 99 631 l 1
 99 661 l 1xf6
 601 661 l 1xee
 622 470 l 1xf6
EndSplineSet
EndChar
StartChar: G
Encoding: 71 71 39
Width: 868
Flags: W
HStem: 339 24<764 766 719 721 551 553 520 522 520 522 764 766>
Fore
765 339 m 1xe0
 720 339 l 2
 697 339 690 313 690 295 c 2
 690 68 l 1
 639 82 l 1
 590 20 503.986 0 428 -6 c 0
 260 -18 111 165.003 113 332 c 0
 113 492 270.03 670 420 664 c 0
 496 662 530 651 585 602 c 1
 626 658 l 1
 655 658 l 1
 668 440 l 1
 648 440 l 1
 620 542 530 657 415 639 c 0
 291.403 619 218 464 220 324 c 0
 224 180.014 288 11 444 19 c 0
 507.967 23 550 38 585 91 c 1
 585 295 l 2
 585 316 578 339 552 339 c 2
 521 339 l 1
 521 363 l 1
 765 363 l 1
 765 339 l 1xe0
EndSplineSet
EndChar
StartChar: H
Encoding: 72 72 40
Width: 903
Flags: W
HStem: 0 30<801 803 520 522 520 522 573 575 326 328 378 380 378 380 98 100 98 100 151 153 748 750 801 803> 332 29<608 610 291 293 291 293 608 610> 631 30<151 153 98 100 98 100 378 380 378 380 326 328 573 575 520 522 520 522 801 803 801 803 748 750>
Fore
802 0 m 1xf8
 521 0 l 1
 521 30 l 1
 574 30 l 2
 592 30 609 50 609 67 c 2
 609 332 l 1
 292 332 l 1
 292 67 l 2
 292 48 308 30 327 30 c 2
 379 30 l 1
 379 0 l 1
 99 0 l 1
 99 30 l 1
 152 30 l 2
 170 30 187 50 187 67 c 2
 187 594 l 2
 187 611 170 631 152 631 c 2
 99 631 l 1
 99 661 l 1
 379 661 l 1
 379 631 l 1
 327 631 l 2
 308 631 292 613 292 594 c 2
 292 361 l 1
 609 361 l 1
 609 594 l 2
 609 611 592 631 574 631 c 2
 521 631 l 1
 521 661 l 1
 802 661 l 1
 802 631 l 1
 749 631 l 2
 730 631 714 613 714 594 c 2
 714 67 l 2
 714 48 730 30 749 30 c 2
 802 30 l 1
 802 0 l 1xf8
EndSplineSet
EndChar
StartChar: I
Encoding: 73 73 41
Width: 480
Flags: W
HStem: 0 30<378 380 98 100 98 100 151 153 326 328 378 380> 631 30<151 153 98 100 98 100 378 380 378 380 326 328>
Fore
379 0 m 1xe0
 99 0 l 1
 99 30 l 1
 152 30 l 2
 170 30 187 50 187 67 c 2
 187 594 l 2
 187 611 170 631 152 631 c 2
 99 631 l 1
 99 661 l 1
 379 661 l 1
 379 631 l 1
 327 631 l 2
 308 631 292 613 292 594 c 2
 292 67 l 2
 292 48 308 30 327 30 c 2
 379 30 l 1
 379 0 l 1xe0
EndSplineSet
EndChar
StartChar: J
Encoding: 74 74 42
Width: 505
Flags: W
HStem: -106 129<146 148 108 110> 631 30<425 427 372 374 197 199 144 146 144 146 425 427>
Fore
426 631 m 1xf0
 373 631 l 2
 354 631 338 613 338 594 c 2
 338 133 l 2
 338 19 283 -106 147 -106 c 0
 99 -106 56 -84 56 -36 c 0
 56 -12 84 23 109 23 c 0
 136 23 162 -12 162 -30 c 0
 162 -59 139 -70 116 -76 c 1
 123 -82 141.263 -93 158 -85 c 0
 227 -59 233 11 233 71 c 2
 233 594 l 2
 233 611 216 631 198 631 c 2
 145 631 l 1
 145 661 l 1
 426 661 l 1
 426 631 l 1xf0
EndSplineSet
EndChar
StartChar: K
Encoding: 75 75 43
Width: 862
Flags: W
HStem: 0 30<778 780 533 535 325 327 378 380 378 380 98 100 98 100 150 152> 631 30<150 152 98 100 98 100 378 380 378 380 325 327 463 465 705 707>
Fore
779 0 m 1xe0
 534 0 l 1
 534 31 l 1
 564 31 l 2
 589 31 578 58 570 71 c 1
 372 360 l 1
 292 280 l 1
 292 67 l 2
 292 49 307 30 326 30 c 2
 379 30 l 1
 379 0 l 1
 99 0 l 1
 99 30 l 1
 151 30 l 2
 170 30 187 49 187 67 c 2
 187 594 l 2
 187 612 170 631 151 631 c 2
 99 631 l 1
 99 661 l 1
 379 661 l 1
 379 631 l 1
 326 631 l 2
 307 631 292 612 292 594 c 2
 292 314 l 1
 488 514 l 2
 522 548 576 630 483 630 c 2
 464 630 l 1
 464 661 l 1
 706 661 l 1
 706 630 l 1
 600 606 519 515 447 438 c 1
 690 69 l 2
 698 57 726 31 742 31 c 2
 779 31 l 1
 779 0 l 1xe0
EndSplineSet
MinimumDistance: x3,32 
EndChar
StartChar: L
Encoding: 76 76 44
Width: 755
Flags: W
HStem: 0 30<609 611 98 100 98 100 151 153> 631 30<151 153 98 100 98 100 379 381 379 381 326 328>
Fore
660 179 m 1xe0
 610 0 l 1
 99 0 l 1
 99 30 l 1
 152 30 l 2
 180 30 188 59 188 82 c 2
 188 594 l 2
 188 612 170 631 152 631 c 2
 99 631 l 1
 99 661 l 1
 380 661 l 1
 380 631 l 1
 327 631 l 2
 308 631 293 612 293 594 c 2
 293 79 l 2
 293 56 305 29 331 29 c 2
 451 29 l 2
 531 29 618 103 639 179 c 1
 660 179 l 1xe0
EndSplineSet
EndChar
StartChar: M
Encoding: 77 77 45
Width: 1070
Flags: W
HStem: 0 31<968 970 687 689 545 547 460 462 291 293 328 330 328 330 87 89 87 89 136 138> 631 30<165 167 112 114 112 114 313 315 778 780 968 970 968 970 915 917>
Fore
969 0 m 1xf0
 688 0 l 1
 688 30 l 1
 741 30 l 2
 759 30 777 49 777 67 c 2
 777 607 l 1
 546 0 l 1
 461 0 l 1
 227 594 l 1
 227 123 l 2
 227 87 248 31 292 31 c 2
 329 31 l 1
 329 0 l 1
 88 0 l 1
 88 31 l 1
 137 31 l 2
 180 31 201 88 201 123 c 2
 201 594 l 2
 201 611 184 631 166 631 c 2
 113 631 l 1
 113 661 l 1
 314 661 l 1
 550 62 l 1
 779 661 l 1
 969 661 l 1
 969 631 l 1
 916 631 l 2
 897 631 882 612 882 594 c 2
 882 67 l 2
 882 49 897 30 916 30 c 2
 969 30 l 1
 969 0 l 1xf0
EndSplineSet
EndChar
StartChar: N
Encoding: 78 78 46
Width: 888
Flags: W
HStem: 0 31<706 708 614 616 291 293 329 331 329 331 87 89 87 89 136 138> 631 30<165 167 113 115 113 115 297 299 578 580 819 821>
Fore
820 630 m 1xf0
 772 630 l 2
 727 630 707 575 707 538 c 2
 707 0 l 1
 615 0 l 1
 227 598 l 1
 227 123 l 2
 227 88 249 31 292 31 c 2
 330 31 l 1
 330 0 l 1
 88 0 l 1
 88 31 l 1
 137 31 l 2
 180 31 202 88 202 123 c 2
 202 594 l 2
 202 612 184 631 166 631 c 2
 114 631 l 1
 114 661 l 1
 298 661 l 1
 681 80 l 1
 681 538 l 2
 681 575 663 630 617 630 c 2
 579 630 l 1
 579 661 l 1
 820 661 l 1
 820 630 l 1xf0
EndSplineSet
EndChar
StartChar: O
Encoding: 79 79 47
Width: 958
Flags: W
HStem: -21 21<481 483 480 482> 650 21<480 482 481 483>
Fore
482 -21 m 0xc0
 238.75 -21 114.75 142.388 114.75 321.582 c 0
 114.75 495.385 235.25 671 481 671 c 0
 725.5 671 846 493.22 846 317.832 c 0
 846 147.222 720.5 -21 482 -21 c 0xc0
481 0 m 0
 641.748 0 722.25 160.495 722.25 322.238 c 0
 722.25 490.492 641.248 650 482 650 c 0
 323.502 650 245.498 488.024 245.498 326.538 c 0
 245.498 155.898 336 0 481 0 c 0
EndSplineSet
EndChar
StartChar: P
Encoding: 80 80 48
Width: 715
Flags: W
HStem: 0 30<326 328 378 380 378 380 98 100 98 100 151 153> 363 26<399 401 291 293 291 293 390 392> 632 29<98 100 391 393 291 293> 638 23<151 153 98 100 414 416>
Fore
611.333 549.667 m 0xd8
 629.333 392.189 495.202 363 400 363 c 2
 292 363 l 1
 292 67 l 2
 292 48 308 30 327 30 c 2
 379 30 l 1
 379 0 l 1
 99 0 l 1
 99 30 l 1
 152 30 l 2
 170 30 187 50 187 67 c 2
 187 600 l 2
 187 618 171 638 152 638 c 2
 99 638 l 1
 99 661 l 1xe8
 415 661 l 2xd8
 485.87 661 597.333 672 611.333 549.667 c 0xd8
512 542.667 m 0
 512 606 449.986 632 392 632 c 2xe8
 292 632 l 1
 292 389 l 1
 391 389 l 2
 475.123 389 514 417.392 512 542.667 c 0
EndSplineSet
EndChar
StartChar: Q
Encoding: 81 81 49
Width: 948
Flags: W
HStem: 645 21<463 465 463 465>
Fore
683 27 m 1x80
 683 -35 641.97 -96 575 -100 c 0
 483 -106 423 -14 359 -10 c 0
 336.022 -8 313 -4 307 -35 c 1
 355 22 429 -108 313 -108 c 0
 292 -108 264 -80 264 -61 c 0
 264 -26 303 -4 335 6 c 1
 200.619 38.2881 117.98 195.622 117.98 349 c 0
 117.98 509.996 217.392 666 464 666 c 0
 704.224 666 833.714 502.524 833.714 337 c 0
 833.714 182.004 737.432 21.5381 527 -15 c 1
 550 -22 574 -27 602 -27 c 0
 633 -27 675 -8 675 27 c 1
 683 27 l 1x80
480 2 m 1
 626.442 11.4316 701.37 163.462 701.37 317 c 0
 701.37 480.55 623.814 645 464 645 c 0
 310.702 645 228.904 493.412 228.904 335 c 0
 228.904 200.6 277.914 63.292 383 17 c 1
 418 25 447 13 480 2 c 1
EndSplineSet
EndChar
StartChar: R
Encoding: 82 82 50
Width: 852
Flags: W
HStem: 0 24<773 775 760 762 773 775> 0 30<659 661 326 328 378 380 378 380 98 100 98 100 151 153> 363 33<398 400 291 293 291 293 405 407> 625 36<98 100 406 408 291 293> 631 30<151 153 98 100 441 443>
Fore
774 0 m 1xa4
 660 0 l 2x6c
 617 0 595 22 575 57 c 2
 399 363 l 1
 292 363 l 1
 292 67 l 2
 292 48 308 30 327 30 c 2
 379 30 l 1
 379 0 l 1
 99 0 l 1
 99 30 l 1
 152 30 l 2
 170 30 187 50 187 67 c 2
 187 593 l 2
 187 611 171 631 152 631 c 2
 99 631 l 1
 99 661 l 1x34
 442 661 l 2xac
 512.319 661 624.333 666 638.333 551.667 c 0
 654.333 412.771 588.556 374.41 507 365 c 1
 680 72 l 2
 698 40 724 24 761 24 c 2
 774 24 l 1
 774 0 l 1xa4
528 542.333 m 0
 528 604 465.062 625 407 625 c 2x34
 292 625 l 1
 292 396 l 1
 406 396 l 2
 490.033 396 530 415.315 528 542.333 c 0
EndSplineSet
EndChar
StartChar: S
Encoding: 83 83 51
Width: 734
Flags: W
HStem: -10 26<388 390 410 412> 651 23<356 358 372 374>
Fore
616 174 m 0xf0
 616 97 535 -10 389 -10 c 0
 307 -10 288 30 218 40 c 0
 211 42 177 7 170 -2 c 1
 153 -2 l 1
 142 215 l 1
 162 215 l 1
 191 107 296 16 411 16 c 0
 483 16 513 51 513 131 c 0
 513 320 135 289.002 133 490 c 0
 131 596 252 674 357 674 c 0
 465 674 468 623 521 633 c 0
 534.964 635 561 664 569 676 c 1
 586 676 l 1
 600 452 l 1
 580 452 l 1
 554 548 482 651 373 651 c 0
 301 651 244 596 244 525 c 0
 244 372.011 616 380 616 174 c 0xf0
EndSplineSet
EndChar
StartChar: T
Encoding: 84 84 52
Width: 895
Flags: W
HStem: 0 30<529 531 582 584 582 584 301 303 301 303 354 356> 624 37<611 613 531 533 352 354 311 313 149 151 759 761>
Fore
817 484 m 1xe0
 791 483 l 1
 770 565 693 624 612 624 c 2
 532 624 l 2
 507 624 495 595 495 574 c 2
 495 67 l 2
 495 48 511 30 530 30 c 2
 583 30 l 1
 583 0 l 1
 302 0 l 1
 302 30 l 1
 355 30 l 2
 373 30 390 50 390 67 c 2
 390 574 l 2
 390 597 379 624 353 624 c 2
 312 624 l 2
 222 624 139 579 120 483 c 1
 92 484 l 1
 150 661 l 1
 760 661 l 1
 817 484 l 1xe0
EndSplineSet
EndChar
StartChar: U
Encoding: 85 85 53
Width: 827
Flags: W
HStem: -14 25<420 422 417 419> 631 30<748 750 695 697 127 129 74 76 74 76 355 357 355 357 302 304 574 576 522 524 522 524 748 750>
Fore
749 631 m 1xf0
 696 631 l 2
 677 631 661 613 661 594 c 2
 661 220 l 2
 661 104 529 -16 421 -14 c 0
 275.014 -10 163 20 163 181 c 2
 163 594 l 2
 163 611 146 631 128 631 c 2
 75 631 l 1
 75 661 l 1
 356 661 l 1
 356 631 l 1
 303 631 l 2
 284 631 268 613 268 594 c 2
 268 132 l 2
 268 54 335 11 418 11 c 0
 516 11 611 107 611 209 c 2
 611 594 l 2
 611 612 594 631 575 631 c 2
 523 631 l 1
 523 661 l 1
 749 661 l 1
 749 631 l 1xf0
EndSplineSet
EndChar
StartChar: V
Encoding: 86 86 54
Width: 762
Flags: MW
HStem: 0 21G<407 409 327 329> 630 31<728 730 716 718 60 62 47 49 47 49 284 286 284 286 239 241 528 530 503 505 503 505 728 730>
Fore
729 630 m 5xc0
 717 630 l 2
 664 630 612 553 594 508 c 1
 408 0 l 1
 328 0 l 1
 116 583 l 1
 107 609 90 630 61 630 c 2
 48 630 l 1
 48 661 l 1
 285 661 l 1
 285 630 l 1
 240 630 l 2
 211 630 218 599 224 581 c 1
 409 73 l 1
 567 500 l 2
 588 557 618 630 529 630 c 2
 504 630 l 1
 504 661 l 1
 729 661 l 1
 729 630 l 5xc0
EndSplineSet
EndChar
StartChar: W
Encoding: 87 87 55
Width: 1135
Flags: W
HStem: 0 21G<777 779 698 700 407 409 327 329> 630 31<1101 1103 1082 1084 60 62 47 49 47 49 288 290 288 290 243 245 430 432 417 419 417 419 655 657 655 657 617 619 898 900 873 875 873 875 1101 1103>
Fore
1102 630 m 1xc0
 1083 630 l 2
 1022 630 987 564 968 513 c 2
 778 0 l 1
 699 0 l 1
 699 0 555 411 553 411 c 1
 408 0 l 1
 328 0 l 1
 116 583 l 1
 107 609 90 630 61 630 c 2
 48 630 l 1
 48 661 l 1
 289 661 l 1
 289 630 l 1
 244 630 l 2
 215 630 222 599 228 581 c 1
 410 79 l 1
 539 439 l 1
 487 583 l 2
 478 609 459 630 431 630 c 2
 418 630 l 1
 418 661 l 1
 656 661 l 1
 656 630 l 1
 618 630 l 2
 590 630 587 602 595 581 c 2
 782 82 l 1
 937 500 l 2
 951 539 964 630 899 630 c 2
 874 630 l 1
 874 661 l 1
 1102 661 l 1
 1102 630 l 1xc0
EndSplineSet
MinimumDistance: x19,24 x28,1 x9,14 
EndChar
StartChar: X
Encoding: 88 88 56
Width: 806
Flags: W
HStem: 0 22<715 717> 0 28<455 457 455 457 500 502 274 276 287 289 287 289 74 76 74 76 90 92> 0 22<678 680 715 717> 630 31<719 721 698 700 118 120 355 357 355 357 310 312 519 521 494 496 494 496 719 721>
Fore
720 630 m 1x30
 699 630 l 2
 639 630 594.791 566.128 561 522 c 2
 444 366 l 1
 445 366 623 72 623 72 c 2
 630.125 59.0781 664 22 679 22 c 2
 716 22 l 1x30
 716 0 l 1x90
 456 0 l 1x50
 456 28 l 1
 501 28 l 2
 524 28 520.047 65.0293 512 78 c 2
 385 289 l 1
 280 151 l 2
 249.758 108.151 210 28 275 28 c 2
 288 28 l 1
 288 0 l 1
 75 0 l 1
 75 28 l 1
 91 28 l 2
 153 28 202.355 90.7861 236 136 c 2
 370 314 l 1
 200 585 l 2
 190.234 602.14 169 636 146 636 c 2
 119 636 l 1
 119 661 l 1
 356 661 l 1
 356 630 l 1
 311 630 l 2
 280 630 293.239 596.146 304 581 c 2
 426 390 l 1
 511 501 l 2
 541.747 542.148 584 630 520 630 c 2
 495 630 l 1
 495 661 l 1
 720 661 l 1
 720 630 l 1x30
EndSplineSet
EndChar
StartChar: Y
Encoding: 89 89 57
Width: 694
Flags: W
HStem: 0 30<400 402 453 455 453 455 172 174 172 174 225 227> 630 31<664 666 629 631 37 39 277 279 277 279 248 250 466 468 440 442 440 442 664 666>
Fore
665 630 m 1xe0
 630 630 l 2
 590 630 527.188 550.864 506 522 c 2
 367 335 l 1
 367 67 l 2
 367 49 382 30 401 30 c 2
 454 30 l 1
 454 0 l 1
 173 0 l 1
 173 30 l 1
 226 30 l 2
 244 30 262 49 262 67 c 2
 262 334 l 1
 113 585 l 2
 99.8174 606.893 73 636 46 636 c 2
 38 636 l 1
 38 661 l 1
 278 661 l 1
 278 630 l 1
 249 630 l 2
 213 630 205.844 611.909 224 581 c 2
 356 357 l 1
 459 501 l 2
 477.887 526.077 545 630 467 630 c 2
 441 630 l 1
 441 661 l 1
 665 661 l 1
 665 630 l 1xe0
EndSplineSet
EndChar
StartChar: Z
Encoding: 90 90 58
Width: 764
Flags: W
HStem: 0 31<596 598 110 112 241 243 425 427> 469 21G<155 157 128 130> 630 31<509 511 339 341 173 175 632 634>
Fore
656 206 m 1xe0
 597 0 l 1
 111 0 l 1
 111 21 l 1
 510 630 l 1
 340 630 l 2
 272 630 189 583 169 515 c 2
 156 469 l 1
 129 469 l 1
 174 661 l 1
 633 661 l 1
 633 639 l 1
 242 31 l 1
 426 31 l 2
 504 31 576 89 609 157 c 2
 631 204 l 1
 656 206 l 1xe0
EndSplineSet
EndChar
StartChar: bracketleft
Encoding: 91 91 59
Width: 181
HStem: -210 36<314 316 74 76 180 182 314 316> 634 36<74 76 314 316 314 316 180 182>
Fore
315 -210 m 1xe0
 75 -210 l 1
 75 670 l 1
 315 670 l 1
 315 634 l 1
 181 634 l 1
 181 -174 l 1
 315 -174 l 1
 315 -210 l 1xe0
EndSplineSet
EndChar
StartChar: backslash
Encoding: 92 92 60
Width: 370
HStem: 561 20G<37 39 93 95>
Fore
406 -19 m 1x80
 350 -19 l 1
 38 581 l 1
 94 581 l 1
 406 -19 l 1x80
EndSplineSet
EndChar
StartChar: bracketright
Encoding: 93 93 61
Width: 327
HStem: -210 36<313 315 73 75 73 75 202 204> 634 36<202 204 73 75 73 75 313 315>
Fore
314 -210 m 1xe0
 74 -210 l 1
 74 -174 l 1
 203 -174 l 1
 203 634 l 1
 74 634 l 1
 74 670 l 1
 314 670 l 1
 314 -210 l 1xe0
EndSplineSet
EndChar
StartChar: asciicircum
Encoding: 94 94 62
Width: 367
Fore
352 368 m 1x00
 306 368 l 1
 202 465 l 1
 191 465 l 1
 88 368 l 1
 38 368 l 1
 183 555 l 1
 208 555 l 1
 352 368 l 1x00
EndSplineSet
EndChar
StartChar: underscore
Encoding: 95 95 63
Width: 359
HStem: -215 55<494 496 -1 1 -1 1 494 496>
Fore
495 -215 m 1x80
 0 -215 l 1
 0 -160 l 1
 495 -160 l 1
 495 -215 l 1x80
EndSplineSet
EndChar
StartChar: quoteleft
Encoding: 96 8216 2052
Width: 220
Fore
3 539 m 1x00
 8 551 12 560 21 572 c 0
 34 591 45 601 65 611 c 0
 78 617 98 620 112 624 c 1
 124 609 l 1
 113 606 107 602 99 595 c 0
 91 587 84 582 83 570 c 0
 81 562 81 555 85 549 c 1
 123 524 117 452 46 456 c 0
 -5 459 -18 510 3 539 c 1x00
EndSplineSet
EndChar
StartChar: a
Encoding: 97 97 65
Width: 664
Flags: W
HStem: -9 47<483 485 271 273 518 520 302 304>
Fore
558 43 m 2xc0
 558 7 512.913 -3 484 -9 c 0
 433 -19 385 18 382 72 c 1
 360 33 318 -9 272 -9 c 0
 195 -9 103 26.0576 109 104 c 0
 119 248 302 215 382 280 c 1
 382 380 l 2
 382 416 348 436 315 436 c 0
 293 436 269 435 249 423 c 1
 252 405 247 397 243 379 c 0
 235 346 226 309 193 309 c 0
 99 309 169 478 393 472 c 0
 419 472 488 456 488 389 c 2
 488 77 l 2
 488 58 501 36 519 38 c 0
 535.971 40 552 65 558 80 c 1
 558 43 l 2xc0
382 124 m 1
 382 245 l 1
 338 210 227 220 215 134 c 0
 201 39.2578 245 38 303 38 c 0
 337 38 368 97 382 124 c 1
EndSplineSet
EndChar
StartChar: b
Encoding: 98 98 66
Width: 732
Flags: W
Fore
632 243 m 0x80
 638 116 485 -5 386 -9 c 0
 337.01 -11 271 3 238 32 c 0
 240 32 159 -9 159 -9 c 1
 159 590 l 1
 114 599 l 1
 114 619 l 1
 265 683 l 1
 265 428 l 1
 296 456 338 468 386 472 c 0
 507.934 480 626 410 632 243 c 0x80
512 239 m 0
 512 398 403.667 454 371.003 444 c 0
 281.938 418 265 386 265 322 c 2
 265 120 l 1
 274 58 304.024 12 386 16 c 0
 467 20 512 123 512 239 c 0
EndSplineSet
EndChar
StartChar: c
Encoding: 99 99 67
Width: 623
Flags: W
HStem: 472 21G<363 365>
Fore
502 104 m 1x80
 475 41 419 -9 347 -9 c 0
 208 -9 103 108.004 103 226 c 0
 103 376 232 472 364 472 c 0
 502 472 548.831 316 455 306 c 0
 416 302 393 353 402 396 c 0
 405 409 415 416 423 426 c 1
 402 447 392.983 446 364 448 c 0
 270 454 230 364 224 276 c 0
 216 169.075 240 63 358 53 c 0
 425.934 47 472 102 502 157 c 1
 502 104 l 1x80
EndSplineSet
EndChar
StartChar: d
Encoding: 100 100 68
Width: 731
Flags: W
Fore
603 45 m 1x80
 474 -9 l 1
 474 21 l 1
 441 1 397.988 -7 356 -9 c 0
 241 -17 115 51.0576 107 228 c 0
 99 390 231 470 356 472 c 0
 402.989 474 443 459 474 432 c 1
 474 589 l 1
 426 599 l 1
 429 621 l 1
 580 680 l 1
 580 82 l 1
 603 72 l 1
 603 45 l 1x80
474 127 m 1
 474 292 l 2
 474 419 453 448 356 448 c 0
 257 446 236 336 230 239 c 0
 226 135.043 255 -4 358 14 c 0
 439 26 464 51 474 127 c 1
EndSplineSet
EndChar
StartChar: e
Encoding: 101 101 69
Width: 649
Flags: W
HStem: -9 115<335 337 342 344> 290 28<535 537 217 219 440 442 222 224> 456 16<348 350 348 350>
Fore
536 290 m 1xf0
 218 290 l 1
 216 276 210 261 210 246 c 0
 210 162 279 106 336 106 c 0
 419 106 492 129 532 205 c 1
 532 92 l 1
 505 35 405 -9 343 -9 c 0
 226 -9 93 80.0771 105 242 c 0
 113 362 223 472 349 472 c 0
 444 472 536 418 536 290 c 1xf0
441 318 m 1
 441 376 417 456 349 456 c 0
 276 456 239 392 223 318 c 1
 441 318 l 1
EndSplineSet
EndChar
StartChar: f
Encoding: 102 102 70
Width: 516
Flags: W
HStem: 0 24<305 307 350 352 350 352 104 106 104 106 148 150> 406 27<280 282 333 335 333 335 280 282 174 176 129 131 129 131 174 176> 665 21G<320 322>
Fore
441 615 m 0xf0
 442 557 341 548 341 628 c 0
 341 636 343 642 347 649 c 1
 323 658 281 652 281 619 c 2
 281 433 l 1
 334 433 l 1
 334 406 l 1
 281 406 l 1
 281 51 l 2
 281 38 292 24 306 24 c 2
 351 24 l 1
 351 0 l 1
 105 0 l 1
 105 24 l 1
 149 24 l 2
 162 24 175 38 175 51 c 2
 175 406 l 1
 130 406 l 1
 130 433 l 1
 175 433 l 1
 175 570 l 2
 175 624 267 665 321 665 c 0
 382 665 440 647 441 615 c 0xf0
EndSplineSet
EndChar
StartChar: g
Encoding: 103 103 71
Width: 650
Flags: W
HStem: -212 31<312 314 312 314> 158 18<299 301 299 301> 453 13<299 301 299 301>
Fore
529 -57 m 0xf8
 529 -162.995 426 -212 313 -212 c 0
 219 -212 92 -189.979 96 -94 c 0
 98 -48 164 1 202 17 c 1
 164 30 133 77 133 106 c 0
 133 151 190 167 237 172 c 1
 166.35 173.121 120.35 247.379 120.35 322 c 0
 120.35 398.736 170.375 466 300 466 c 0
 381 466 404 445 428 419 c 1
 428 445.442 428 461 428 461 c 2
 430.064 517.739 467.537 521.531 491.333 521.531 c 0
 514.942 521.531 542.667 500.495 542.667 470.666 c 0
 542.667 414.667 509.333 404.666 482.334 404.666 c 0
 467.702 404.666 451.667 411 446 423.665 c 1
 446 423.665 446 396 446 395 c 0
 458.013 373.999 468.788 341.314 468.788 317 c 0
 468.788 237.598 428.872 158 300 158 c 0
 294 158 288 158 282 159 c 1
 243 156 206 158 206 131 c 0
 206 88 529 86 529 -57 c 0xf8
300 176 m 0
 347.815 176 369 249.531 369 321 c 0
 369 393.5 345.732 453 300 453 c 0
 251.961 453 224.998 390.832 224.998 318 c 0
 224.998 247.561 248.534 176 300 176 c 0
455 -91 m 0
 455 -42 328 -17 231 10 c 1
 194 -17 162 -40 164 -94 c 0
 166 -169.993 238 -181 313 -181 c 0
 390 -181 455 -168 455 -91 c 0
EndSplineSet
EndChar
StartChar: h
Encoding: 104 104 72
Width: 762
Flags: W
HStem: 0 24<665 667 419 421 419 421 464 466 306 308 351 353 351 353 105 107 105 107 149 151 620 622 665 667>
Fore
666 0 m 1xe0
 420 0 l 1
 420 24 l 1
 465 24 l 2
 478 24 490 38 490 51 c 2
 490 358 l 2
 490 401 452 441 410 437 c 0
 361.041 433 308 396 282 366 c 1
 282 51 l 2
 282 38 293 24 307 24 c 2
 352 24 l 1
 352 0 l 1
 106 0 l 1
 106 24 l 1
 150 24 l 2
 163 24 176 38 176 51 c 2
 176 561 l 1
 121 577 l 1
 121 598 l 1
 282 665 l 1
 282 402 l 1
 313 435 369.082 466 424 472 c 0
 476 480 596 453 596 387 c 2
 596 51 l 2
 596 39 608 24 621 24 c 2
 666 24 l 1
 666 0 l 1xe0
EndSplineSet
EndChar
StartChar: i
Encoding: 105 105 73
Width: 456
Flags: W
HStem: 0 24<352 354 105 107 105 107 150 152 307 309 352 354>
Fore
226.834 644.916 m 0xc0
 255.404 644.916 287.8 629.718 287.8 586 c 0
 287.8 544.372 256.874 528.702 229.034 528.702 c 0
 201.438 528.702 171 544.692 171 586 c 0
 171 627.42 199.988 644.916 226.834 644.916 c 0xc0
353 0 m 1
 106 0 l 1
 106 24 l 1
 151 24 l 2
 164 24 177 38 177 51 c 2
 177 372 l 1
 124 390 l 1
 124 407 l 1
 282 474 l 1
 282 51 l 2
 282 38 295 24 308 24 c 2
 353 24 l 1
 353 0 l 1
EndSplineSet
EndChar
StartChar: j
Encoding: 106 106 74
Width: 412
Flags: W
HStem: -150 18<116 118 93 95>
Fore
214.334 639.916 m 0xc0
 242.904 639.916 275.3 624.718 275.3 581 c 0
 275.3 539.372 244.374 523.702 216.534 523.702 c 0
 188.938 523.702 158.5 539.692 158.5 581 c 0
 158.5 622.42 187.488 639.916 214.334 639.916 c 0xc0
269 -35 m 2
 269 -118 171.964 -150 117 -150 c 0
 62.8174 -150 37.7393 -124.978 37.7393 -93.2178 c 0
 37.7393 -63.3154 59.2334 -38.9707 89.0078 -38.9707 c 0
 109.709 -38.9707 131.531 -61.2764 131.531 -85.6416 c 0
 131.531 -108.425 110.256 -124.488 94 -132 c 1
 105 -132 123 -130 133 -125 c 0
 155 -113 163 -94 163 -69 c 2
 163 383 l 1
 123 396 l 1
 123 417 l 1
 269 474 l 1
 269 -35 l 2
EndSplineSet
EndChar
StartChar: k
Encoding: 107 107 75
Width: 781
Flags: W
HStem: 0 26<673 675 418 420 418 420 463 465 306 308 351 353 351 353 105 107 105 107 149 151 627 629 673 675> 441 22<407 409 378 380 378 380 653 655 653 655>
Fore
674 0 m 1xe0
 419 0 l 1
 419 26 l 1
 464 26 l 2
 479 26 472 39 468 46 c 2
 349 234 l 1
 282 184 l 1
 282 53 l 2
 282 40 293 26 307 26 c 2
 352 26 l 1
 352 0 l 1
 106 0 l 1
 106 26 l 1
 150 26 l 2
 163 26 176 40 176 53 c 2
 176 566 l 1
 121 581 l 1
 121 603 l 1
 282 670 l 1
 282 217 l 1
 412 340 l 2
 459 385 451 441 408 441 c 2
 379 441 l 1
 379 463 l 1
 654 463 l 1
 654 441 l 1
 605 435 571 415 535 383 c 2
 434 297 l 1
 595 46 l 1
 599 36 617 26 628 26 c 2
 674 26 l 1
 674 0 l 1xe0
EndSplineSet
MinimumDistance: x3,29 
EndChar
StartChar: l
Encoding: 108 108 76
Width: 455
Flags: W
HStem: 0 24<351 353 105 107 105 107 150 152 306 308 351 353>
Fore
352 0 m 1xc0
 106 0 l 1
 106 24 l 1
 151 24 l 2
 164 24 176 39 176 51 c 2
 176 566 l 1
 121 581 l 1
 121 603 l 1
 282 670 l 1
 282 51 l 2
 282 38 294 24 307 24 c 2
 352 24 l 1
 352 0 l 1xc0
EndSplineSet
EndChar
StartChar: m
Encoding: 109 109 77
Width: 1061
Flags: HWO
HStem: 0 24<965 967 717 719 717 719 761 763 608 610 653 655 653 655 407 409 407 409 452 454 297 299 341 343 341 343 95 97 95 97 140 142 920 922 965 967>
VStem: 166 106<369 371 50 52 50 52 369 371 473 475 402 404> 478 106<370 372 50 52 50 52 359 361 403 405> 788 108<50 52 359 361 396 398 50 52>
Fore
966 0 m 1xf0
 718 0 l 1
 718 24 l 1
 762 24 l 2
 775 24 788 38 788 51 c 2
 788 360 l 2
 788 403 748 439 708 439 c 0
 660.83 439 612 400 584 371 c 1
 584 51 l 2
 584 39 596 24 609 24 c 2
 654 24 l 1
 654 0 l 1
 408 0 l 1
 408 24 l 1
 453 24 l 2
 466 24 478 38 478 51 c 2
 478 360 l 2
 478 403 442.5 439 400 439 c 0
 350.837 439 299 399 272 370 c 1
 272 51 l 2
 272 38 285 24 298 24 c 2
 342 24 l 1
 342 0 l 1
 96 0 l 1
 96 24 l 1
 141 24 l 2
 155 24 166 38 166 51 c 2
 166 370 l 1
 112 385 l 1
 112 407 l 1
 272 474 l 1
 272 403 l 1
 304 435 359 472 414 472 c 0
 466.345 472 573.5 462 584 404 c 1
 616 436 673 472 726 472 c 0
 786.531 472 896 455 896 389 c 2
 896 51 l 2
 896 38 908 24 921 24 c 2
 966 24 l 1
 966 0 l 1xf0
EndSplineSet
EndChar
StartChar: n
Encoding: 110 110 78
Width: 750
Flags: W
HStem: 0 24<655 657 409 411 409 411 454 456 297 299 341 343 341 343 95 97 95 97 140 142 610 612 655 657>
Fore
656 0 m 1xe0
 410 0 l 1
 410 24 l 1
 455 24 l 2
 468 24 480 38 480 51 c 2
 480 360 l 2
 480 403 442 443 400 439 c 0
 351.041 435 299 399 272 370 c 1
 272 51 l 2
 272 38 285 24 298 24 c 2
 342 24 l 1
 342 0 l 1
 96 0 l 1
 96 24 l 1
 141 24 l 2
 155 24 166 38 166 51 c 2
 166 370 l 1
 112 385 l 1
 112 407 l 1
 272 474 l 1
 272 403 l 1
 304 435 359.082 466 414 472 c 0
 468 480 586 463 586 397 c 2
 586 51 l 2
 586 39 598 24 611 24 c 2
 656 24 l 1
 656 0 l 1xe0
EndSplineSet
EndChar
StartChar: o
Encoding: 111 111 79
Width: 704
Flags: W
HStem: -9 15<353 355 353 355> 455 17<353 355 353 355>
Fore
354 -9 m 0xc0
 186.574 -9 103.25 111.176 103.25 231.388 c 0
 103.25 353.092 187.426 472 354 472 c 0
 524.03 472 608.5 352.5 608.5 230 c 0
 608.5 110.249 522.97 -9 354 -9 c 0xc0
354 6 m 0
 441.11 6 485.5 117.249 485.5 229 c 0
 485.5 341.5 441.89 455 354 455 c 0
 266.131 455 222 344.5 222 231 c 0
 222 118.583 265.869 6 354 6 c 0
EndSplineSet
EndChar
StartChar: p
Encoding: 112 112 80
Width: 717
Flags: W
HStem: -147 24<275 277 320 322 320 322 74 76 74 76 119 121> 449 23<370 372 349 351>
Fore
617 243 m 0xe0
 623 109.034 472 -5 371 -9 c 0
 325.011 -11 283 2 251 28 c 1
 251 -96 l 2
 251 -109 263 -123 276 -123 c 2
 321 -123 l 1
 321 -147 l 1
 75 -147 l 1
 75 -123 l 1
 120 -123 l 2
 133 -123 145 -108 145 -96 c 2
 145 360 l 1
 102 383 l 1
 102 405 l 1
 251 465 l 1
 251 424 l 1
 290 449 323.957 472 371 472 c 0
 486 472 611 411 617 243 c 0xe0
497 239 m 0
 497 399 364.754 449 350 449 c 0
 300 449 251 391 251 331 c 2
 251 116 l 1
 261 55 291.025 10 371 14 c 0
 451 18 497 123 497 239 c 0
EndSplineSet
EndChar
StartChar: q
Encoding: 113 113 81
Width: 713
Flags: HW
HStem: -165 24<643 645 467 469 598 600 643 645>
Fore
644 -165 m 1xc0
 468 -165 l 1
 468 -165 468 -61 468 21 c 1
 436 1 393.036 -9 351 -9 c 4
 220 -9 102 62 102 228 c 4
 102 384 216 472 351 472 c 4
 399.032 472 471 458 503 429 c 1
 574 474 l 1
 574 -114 l 2
 574 -127 585 -141 599 -141 c 2
 644 -141 l 1
 644 -165 l 1xc0
468 115 m 4
 468 116 468 307 468 307 c 2
 468 422 445 448 351 448 c 4
 256 448 225 336 225 239 c 4
 225 137.822 252 16 353 16 c 4
 427.727 16 468 56 468 115 c 4
EndSplineSet
EndChar
StartChar: r
Encoding: 114 114 82
Width: 547
Flags: W
HStem: 0 24<284 286 329 331 329 331 83 85 83 85 128 130>
Fore
472.75 447.75 m 0xc0
 476.75 426.25 464.763 375.25 403.5 381.25 c 0
 380.5 383.25 376.75 390.25 348.75 408.5 c 0
 340.75 413.676 347.579 419.579 348 426 c 1
 315 418 282 397 260 371 c 1
 260 51 l 2
 260 39 272 24 285 24 c 2
 330 24 l 1
 330 0 l 1
 84 0 l 1
 84 24 l 1
 129 24 l 2
 142 24 154 38 154 51 c 2
 154 384 l 1
 114 400 l 1
 114 412 l 1
 260 469 l 1
 260 402 l 1
 285.746 430.933 391.435 472.5 411 474.5 c 0
 436.5 476.5 466.75 484.966 472.75 447.75 c 0xc0
EndSplineSet
EndChar
StartChar: s
Encoding: 115 115 83
Width: 550
Flags: W
Fore
435 119 m 0x00
 435 43 341 5 268 -9 c 0
 225.195 -17 169 8 128 26 c 1
 128 136 l 1
 139 142 l 1
 147 80 207 -9 275 15 c 0
 321.324 31 360 52.0107 358 100 c 0
 354 176 123 158 119 347 c 0
 117 419.993 212.162 462 289 472 c 0
 327 478 380 457 419 440 c 1
 419 330 l 1
 409 324 l 1
 399 380 357 446 296 446 c 0
 249 446 204 428.902 198 383 c 0
 184 296 435 310 435 119 c 0x00
EndSplineSet
EndChar
StartChar: t
Encoding: 116 116 84
Width: 473
Flags: W
HStem: 399 57<140 142 84 86 246 248 339 341 317 319 246 248>
Fore
366 64 m 1xc0
 372.5 42 313 -9 254 -9 c 0
 209 -9 141 35 141 73 c 2
 141 399 l 1
 85 399 l 1
 85 435 l 1
 203 560 l 1
 247 546 l 1
 247 456 l 1
 340 456 l 1
 318 399 l 1
 247 399 l 1
 247 65 l 2
 247 48 270.029 34 287 36 c 0
 327 42 371 65.5 364 83 c 1
 366 64 l 1xc0
EndSplineSet
EndChar
StartChar: u
Encoding: 117 117 85
Width: 747
Flags: W
HStem: 439 24<125 127 80 82 80 82 256 258 453 455 408 410 408 410 584 586>
Fore
643 57 m 1xe0
 479 -9 l 1
 479 65 l 1
 449 28 390 -9 327 -9 c 0
 276 -9 151 -64 151 119 c 2
 151 412 l 2
 151 424 139 439 126 439 c 2
 81 439 l 1
 81 463 l 1
 257 463 l 1
 257 114 l 2
 257 56 296.098 24 342 30 c 0
 396 36 451 70 479 102 c 1
 479 412 l 2
 479 424 467 439 454 439 c 2
 409 439 l 1
 409 463 l 1
 585 463 l 1
 585 96 l 1
 643 80 l 1
 643 57 l 1xe0
EndSplineSet
EndChar
StartChar: v
Encoding: 118 118 86
Width: 634
Flags: W
HStem: 439 24<567 569 540 542 95 97 69 71 69 71 270 272 270 272 242 244 407 409 383 385 383 385 567 569>
Fore
568 439 m 1x80
 541 439 l 2
 515 439 487 411 479 388 c 2
 338 0 l 1
 259 6 l 1
 127 415 l 2
 124 425 107 439 96 439 c 2
 70 439 l 1
 70 463 l 1
 271 463 l 1
 271 439 l 1
 243 439 l 2
 227 439 220 423 225 409 c 1
 336 78 l 1
 435 354 l 1
 444 381 454 439 408 439 c 2
 384 439 l 1
 384 463 l 1
 568 463 l 1
 568 439 l 1x80
EndSplineSet
MinimumDistance: x15,1 x6,11 
EndChar
StartChar: w
Encoding: 119 119 87
Width: 879
Flags: HW
HStem: 439 24<812 814 785 787 94 96 69 71 69 71 278 280 278 280 249 251 343 345 318 320 318 320 518 520 518 520 491 493 655 657 632 634 632 634 812 814>
Fore
813 439 m 1x80
 786 439 l 2
 759 439 732 412 723 388 c 1
 582 0 l 1
 508 6 l 1
 508 6 436 251 436 249 c 1
 336 0 l 1
 259 6 l 1
 126 415 l 2
 122 427 109 439 95 439 c 2
 70 439 l 1
 70 463 l 1
 279 463 l 1
 279 439 l 1
 250 439 l 2
 235 439 228 423 232 409 c 1
 335 87 l 1
 418 288 l 1
 376 415 l 2
 373 425 355 439 344 439 c 2
 319 439 l 1
 319 463 l 1
 519 463 l 1
 519 439 l 1
 492 439 l 2
 476 439 469 423 474 409 c 1
 585 78 l 1
 683 354 l 1
 693 381 704 439 656 439 c 2
 633 439 l 1
 633 463 l 1
 813 463 l 1
 813 439 l 1x80
EndSplineSet
MinimumDistance: x19,24 x9,14 x28,1 
Back
813 439 m 1x80
 786 439 l 2
 759 439 732 412 723 388 c 1
 582 0 l 1
 508 6 l 1
 508 6 436 251 436 249 c 1
 336 0 l 1
 259 6 l 1
 126 415 l 2
 122 427 109 439 95 439 c 2
 70 439 l 1
 70 463 l 1
 279 463 l 1
 279 439 l 1
 250 439 l 2
 235 439 228 423 232 409 c 1
 335 87 l 1
 418 288 l 1
 376 415 l 2
 373 425 355 439 344 439 c 2
 319 439 l 1
 319 463 l 1
 519 463 l 1
 519 439 l 1
 492 439 l 2
 476 439 469 423 474 409 c 1
 585 78 l 1
 683 354 l 1
 693 381 704 439 656 439 c 2
 633 439 l 1
 633 463 l 1
 813 463 l 1
 813 439 l 1x80
EndSplineSet
EndChar
StartChar: x
Encoding: 120 120 88
Width: 661
Flags: W
HStem: -2 28<278 280 80 82 80 82 110 112> 439 24<138 140 113 115 113 115 333 335 333 335 305 307 401 403 377 379 377 379 553 555 553 555 527 529>
Fore
556 0 m 1xc0
 346 0 l 1
 346 24 l 1
 370 24 l 2
 386 24 380 53 376 61 c 1
 376 61 297 195 297 193 c 1
 223 97 l 2
 200 65 227 24 264 24 c 2
 279 24 l 1
 279 -2 l 1
 81 -2 l 1
 81 26 l 1
 111 26 l 2
 144 26 168 55 184 80 c 2
 184 80 285 220 283 220 c 1
 171 415 l 2
 165 426 153 439 139 439 c 2
 114 439 l 1
 114 463 l 1
 334 463 l 1
 334 439 l 1
 306 439 l 2
 291 439 281 422 288 409 c 2
 358 290 l 1
 360 290 416 363 416 363 c 2
 433 383 443 439 402 439 c 2
 378 439 l 1
 378 463 l 1
 554 463 l 1
 554 439 l 1
 528 439 l 2
 503 439 473 409 460 391 c 2
 370 268 l 1
 472 91 l 2
 482 74 511 24 535 24 c 2
 556 24 l 1
 556 0 l 1xc0
EndSplineSet
MinimumDistance: x16,21 
EndChar
StartChar: y
Encoding: 121 121 89
Width: 642
Flags: W
HStem: 439 24<575 577 556 558 111 113 86 88 86 88 295 297 295 297 267 269 422 424 399 401 399 401 575 577>
Fore
576 439 m 1x80
 557 439 l 2
 532 439 499.995 394.456 494 384 c 2
 296 -25 l 2
 286.032 -45.6172 232.75 -96.75 201 -96.75 c 0
 139.807 -96.75 110.269 -61.5664 110.269 -30.8662 c 0
 110.269 -7.8252 126.677 11 161 11 c 0
 192.676 11 204.732 -10.3418 204.732 -28.1221 c 0
 204.732 -48.1914 194.605 -60.6904 180 -68 c 1
 221 -68 255 -49 273 -10 c 2
 275 -7 l 1
 271 -5 l 1
 144 415 l 2
 141 426 124 439 112 439 c 2
 87 439 l 1
 87 463 l 1
 296 463 l 1
 296 439 l 1
 268 439 l 2
 251.67 439 244.754 424.792 250 409 c 2
 340 122 l 1
 450 354 l 2
 465.316 383.732 464.69 439 423 439 c 2
 400 439 l 1
 400 463 l 1
 576 463 l 1
 576 439 l 1x80
EndSplineSet
MinimumDistance: x22,1 x13,18 
EndChar
StartChar: z
Encoding: 122 122 90
Width: 595
Flags: W
HStem: -2 26<221 223 333 335 441 443 92 94> 439 24<494 496 362 364 241 243 147 149>
Fore
495 463 m 1xc0
 222 24 l 1
 334 24 l 2
 392 24 442 82 459 132 c 1
 480 125 l 1
 442 -2 l 1
 93 -2 l 1
 363 439 l 1
 242 439 l 2
 187 439 153 369 147 321 c 1
 125 331 l 1
 148 463 l 1
 495 463 l 1xc0
EndSplineSet
EndChar
StartChar: braceleft
Encoding: 123 123 91
Width: 224
HStem: 620 50<242 244 324 326 324 326 282 284>
Fore
325 -213 m 1xc0
 248 -213 l 2
 212 -213 188 -206 161 -182 c 0
 131 -156 118 -131 118 -91 c 2
 118 81 l 2
 118 123 136 155 90 185 c 0
 74.8809 192.461 65 198 47 199 c 1
 47 243 l 1
 65 249 74.7822 254.231 87 267 c 0
 130 305 118 335 118 380 c 2
 118 552 l 2
 118 590 132 615 161 639 c 0
 187 662 209 670 243 670 c 2
 325 670 l 1
 325 620 l 1
 283 620 l 2
 261 620 250.969 612.969 231 599 c 0
 189 565 208 537 208 495 c 2
 208 359 l 2
 208 320 217 302 186 262 c 0
 173.352 245.708 164 238 144 229 c 1
 162 226 173.427 219.362 186 208 c 0
 219 178 208 157 208 123 c 2
 208 -40 l 2
 208 -83 199 -112 241 -145 c 0
 257.49 -157.666 269 -163 288 -164 c 2
 325 -165 l 1
 325 -213 l 1xc0
EndSplineSet
EndChar
StartChar: bar
Encoding: 124 124 92
Width: 179
Fore
130 76 m 1x80
 47 76 l 1
 47 723 l 1
 130 723 l 1
 130 76 l 1x80
EndSplineSet
EndChar
StartChar: braceright
Encoding: 125 125 93
Width: 204
HStem: 650 20G<44 46 126 128>
Fore
45 -213 m 1xc0
 45 -165 l 1
 82 -164 l 2
 101 -163 112.509 -157.666 129 -145 c 0
 171 -112 162 -83 162 -40 c 2
 162 123 l 2
 162 157 151 178 184 208 c 0
 196.573 219.362 208 226 226 229 c 1
 206 238 196.648 245.708 184 262 c 0
 153 302 162 320 162 359 c 2
 162 495 l 2
 162 537 181 565 139 599 c 0
 119.031 612.969 109 620 87 620 c 2
 45 620 l 1
 45 670 l 1
 127 670 l 2
 161 670 181 662 209 639 c 0
 236 615 252 590 252 552 c 2
 252 380 l 2
 252 335 240 305 283 267 c 0
 295.218 254.231 305 249 323 243 c 1
 323 199 l 1
 305 198 293.119 192.461 280 185 c 0
 232 155 252 123 252 81 c 2
 252 -91 l 2
 252 -131 237 -156 209 -182 c 0
 182 -206 158 -213 122 -213 c 2
 45 -213 l 1xc0
EndSplineSet
EndChar
StartChar: asciitilde
Encoding: 126 126 94
Width: 255
HStem: 560 20G<333 335 313 315>
Fore
334 580 m 1x80
 340 528 303.99 469 254 471 c 0
 196 475 184 520 151 518 c 0
 114.014 516 99 509 77 477 c 1
 52 477 l 1
 53 535 104.01 589 155 591 c 0
 194 593 228 542 251 546 c 0
 283.939 550 294 553 314 580 c 1
 334 580 l 1x80
EndSplineSet
EndChar
StartChar: exclamdown
Encoding: 161 161 96
Width: 347
HStem: 406 210<107 109 113 115>
Fore
123 -124 m 0x80
 117 -138 104 -135 98 -124 c 0
 74 -65 47 -36 47 25 c 0x80
 47 160 102 232 102 367 c 0x80
 102 397 122 400 122 367 c 0x80
 122 232 177 160 177 25 c 0
 177 -36 162 -56 123 -124 c 0x80
210 512 m 0
 210 453.808 162.192 406 108 406 c 0
 55.8076 406 18 453.808 18 512 c 0
 18 568.192 59.8076 616 114 616 c 0
 166.192 616 210 568.192 210 512 c 0
EndSplineSet
EndChar
StartChar: cent
Encoding: 162 162 97
Width: 477
HStem: 0 96<206 208 249 251> 435 30<206 208 220 222>
Fore
207 435 m 0xe0
 138 435 108 339 108 257 c 0
 108 213 128 161 158 135 c 0
 162 130 175 127 177 138 c 0
 196 247 209 324 223 416 c 0
 223 422 217 435 207 435 c 0xe0
371 153 m 0
 381 175 404 185 395 151 c 0
 372 60 301 0 207 0 c 0
 199 0 191 1 183 3 c 1
 178 -24 174 -50 169 -77 c 0
 167 -86 142 -91 146 -69 c 1
 159 9 l 1
 78 38 8 135 8 236 c 0
 8 294 51 397 128 432 c 0
 165 448 180 456 221 465 c 0
 222 465 229 468 230 468 c 1
 235 498 l 1
 238 518 268 518 264 497 c 1
 259 466 l 1
 291 461 336 446 367 415 c 0
 378 404 381 393 379 378 c 0
 376 358 361 341 340 341 c 0
 314 341 305 367 292 386 c 0
 285 397 279 411 270 413 c 0
 266 413 252 420 249 407 c 0
 232 304 219 222 202 120 c 0
 199 111 205 103 214 100 c 0
 225 99 238 96 250 96 c 0
 289 96 347 102 371 153 c 0
EndSplineSet
EndChar
StartChar: sterling
Encoding: 163 163 98
Width: 629
HStem: 0 41<450 452 399 401> 0 120<86 88 242 244> 88 32<217 219> 242 31<162 164 139 141 139 141 185 187 298 300 339 341 336 338 289 291>
Fore
218 88 m 0x38
 207 88 199 87 188 86 c 1
 176 69 162 52 146 35 c 0
 128 16 106 0 87 0 c 0x58
 74 0 64 11 64 24 c 0
 64 63 107 75 144 94 c 0
 153 99 162 103 171 107 c 1
 180 135 187 172 196 215 c 0
 199 234 176 242 163 242 c 2
 140 242 l 2
 132 242 124 249 124 257 c 0
 124 266 133 273 140 273 c 2
 186 273 l 2
 206 273 209 284 211 295 c 0
 227 379 249 471 284 545 c 0
 303 585 318 610 356 633 c 0
 387 651 408 659 440 668 c 0
 449 671 468 669 483 662 c 0
 506 652 527 640 527 615 c 0
 527 596 512 579 493 579 c 0
 475 579 467 588 458 610 c 0
 446 640 403 653 379 625 c 0
 337 574 343 458 312 352 c 0
 305 329 299 307 292 286 c 0
 290 280 290 273 299 273 c 2
 340 273 l 2
 352 273 364 269 364 257 c 0
 364 246 351 242 337 242 c 2
 290 242 l 2
 279 242 275 236 272 227 c 0
 259 189 233 153 210 117 c 1
 221 119 230 120 243 120 c 0
 323 120 382 41 451 41 c 0xb8
 468 41 488 48 488 70 c 0
 488 76 487 85 479 91 c 1
 463 100 451 112 451 131 c 0
 451 150 469 163 488 163 c 0
 514 163 532 137 532 110 c 0
 532 60 456 0 400 0 c 0
 319 0 269 88 218 88 c 0x38
EndSplineSet
EndChar
StartChar: fraction
Encoding: 164 8260 2088
Width: 200
HStem: 0 21G<19 21 -11 -9> 645 20G<84 86 119 121>
Fore
85 665 m 1xc0
 120 665 l 1
 20 0 l 1
 -10 0 l 1
 85 665 l 1xc0
EndSplineSet
EndChar
StartChar: yen
Encoding: 165 165 100
Width: 647
HStem: 0 24<378 380 430 432 430 432 148 150 148 150 201 203> 331 38<366 368 501 503 501 503 343 345 236 238 2 4 2 4 217 219 327 329 341 343> 449 38<451 453 501 503 501 503 424 426 170 172 2 4 2 4 148 150 258 260 421 423 395 397 280 282> 636 25<640 642 605 607 13 15 254 256 254 256 226 228 443 445 418 420 418 420 640 642>
Fore
641 636 m 1xf8
 606 636 l 2
 564 636 504.032 557.977 482 528 c 2
 452 487 l 1
 502 487 l 1
 502 449 l 1
 425 449 l 1
 367 369 l 1
 368 369 502 369 502 369 c 1
 502 331 l 1
 344 331 l 1
 344 61 l 2
 344 42 360 24 379 24 c 2
 431 24 l 1
 431 0 l 1
 149 0 l 1
 149 24 l 1
 202 24 l 2
 220 24 237 44 237 61 c 2
 237 331 l 1
 3 331 l 1
 3 369 l 1
 218 369 l 1
 171 449 l 1
 3 449 l 1
 3 487 l 1
 149 487 l 1
 88 591 l 2
 74.929 612.958 48 642 21 642 c 2
 14 642 l 1
 14 661 l 1
 255 661 l 1
 255 636 l 1
 227 636 l 2
 191 636 183.751 617.857 202 587 c 2
 259 487 l 1
 422 487 l 1
 436 507 l 2
 452.663 532.232 522 636 444 636 c 2
 419 636 l 1
 419 661 l 1
 641 661 l 1
 641 636 l 1xf8
396 449 m 2
 281 449 l 1
 328 369 l 1
 342 369 l 1
 342 369 397 449 396 449 c 2
EndSplineSet
EndChar
StartChar: florin
Encoding: 166 402 337
Width: 272
HStem: 412 25<188 190 241 243 241 243 188 190 82 84 37 39 37 39 82 84> 665 21G<232 234>
Fore
315 615 m 0xe0
 316 563 227 548 227 628 c 0
 227 636 229 642 233 649 c 1
 211 658 189 644 189 619 c 2
 189 437 l 1
 242 437 l 1
 242 412 l 1
 189 412 l 1
 189 -60 l 2
 189 -114 93 -155 39 -155 c 0
 0 -155 -42 -137 -43 -105 c 0
 -44 -53 45 -40 45 -118 c 0
 45 -126 43 -132 39 -139 c 1
 61 -148 83 -134 83 -109 c 2
 83 412 l 1
 38 412 l 1
 38 437 l 1
 83 437 l 1
 83 570 l 2
 83 624 179 665 233 665 c 0
 272 665 314 647 315 615 c 0xe0
EndSplineSet
EndChar
StartChar: section
Encoding: 167 167 102
Width: 359
Fore
329 613 m 0x00
 320 539 238 547 243 613 c 0
 244 629 250 643 272 643 c 0
 276 643 280 644 283 643 c 1
 280 659 276 672 259 678 c 0
 247 683 231 687 213 687 c 0
 162 688 145 650 138 600 c 0
 123 486 238 462 238 462 c 1
 313 423 320 274 209 236 c 1
 256 229 314 182 302 104 c 0
 293 45 244 18 226 12 c 0
 198 3 169 -4 119 4 c 0
 69 12 21 45 26 92 c 0
 35 172 117 152 113 92 c 0
 112 76 105 61 83 61 c 0
 79 61 76 61 71 61 c 1
 76 46 79 32 96 26 c 0
 108 21 124 17 142 17 c 0
 192 17 211 54 216 104 c 0
 225 187 188 224 109 246 c 1
 27 294 31 438 132 471 c 1
 94 485 40 523 53 601 c 0
 62 660 112 687 129 694 c 1
 157 702 187 708 237 700 c 0
 287 692 334 660 329 613 c 0x00
175 426 m 0
 107 427 88 288 167 282 c 0
 244 276 238 425 175 426 c 0
EndSplineSet
EndChar
StartChar: currency
Encoding: 168 164 99
Width: 544
HStem: 115 80<224 226 224 226> 435 80<224 226 224 226>
Fore
437 134 m 1xc0
 409 106 l 1
 357 159 l 1
 324 132 280 115 225 115 c 0
 172 115 130 131 98 156 c 1
 49 106 l 1
 22 134 l 1
 22 134 71 183 70 183 c 1
 9 255 10 372 69 445 c 0
 69 446 22 492 22 492 c 1
 49 520 l 1
 96 472 l 1
 128 498 172 515 225 515 c 0
 281 515 326 498 358 469 c 1
 409 520 l 1
 437 492 l 1
 385 441 l 1
 439 369 439 259 383 187 c 1
 437 134 l 1xc0
225 195 m 0
 385 195 385 435 225 435 c 0
 65 435 65 195 225 195 c 0
EndSplineSet
EndChar
StartChar: quotesingle
Encoding: 169 39 7
Width: 174
Fore
161 543 m 1x00
 140 490 95 448 39 436 c 1
 24 455 l 1
 49 461 95 499 74 530 c 1
 25 559 41 653 114 649 c 0
 174 644 187 579 161 543 c 1x00
EndSplineSet
EndChar
StartChar: guillemotleft
Encoding: 171 171 106
Width: 827
Fore
38 312 m 1x00
 38 350 l 1
 453 565 l 1
 453 502 l 1
 123 338 l 1
 123 322 l 1
 453 148 l 1
 453 84 l 1
 38 312 l 1x00
321 312 m 1
 321 350 l 1
 736 565 l 1
 736 502 l 1
 406 338 l 1
 406 322 l 1
 736 148 l 1
 736 84 l 1
 321 312 l 1
EndSplineSet
EndChar
StartChar: guilsinglleft
Encoding: 172 8249 2077
Width: 524
Fore
457 566 m 1x00
 457 503 l 1
 128 338 l 1
 128 323 l 1
 457 149 l 1
 457 85 l 1
 43 313 l 1
 43 351 l 1
 457 566 l 1x00
EndSplineSet
EndChar
StartChar: guilsinglright
Encoding: 173 8250 2078
Width: 572
Fore
80 565 m 1x00
 495 350 l 1
 495 312 l 1
 80 84 l 1
 80 148 l 1
 410 322 l 1
 410 338 l 1
 80 502 l 1
 80 565 l 1x00
EndSplineSet
EndChar
StartChar: fi
Encoding: 174 64257 3464
Width: 524
Flags: W
HStem: 0 24<465 467 11 13 11 13 56 58 420 422 465 467 212 214 260 262> 410 23<81 83 36 38 36 38 81 83 187 189 232 234 285 287 187 189> 671 21G<265 267>
Fore
466 0 m 1xf8
 12 0 l 1
 12 24 l 1
 57 24 l 2
 70 24 82 39 82 51 c 2
 82 410 l 1
 37 410 l 1
 37 433 l 1
 82 433 l 1
 82 575 l 2
 82 650 212 671 266 671 c 0
 306 671 398 683 399 620 c 0
 399.492 589.467 375.5 574.216 351 574.216 c 4
 325.755 574.216 300 592.457 300 629 c 0
 300 637 301 642 305 650 c 1
 289 653 280 655 263 653 c 0
 229 650 188 646 188 611 c 2
 188 433 l 1
 233 433 l 1
 396 474 l 1
 396 51 l 2
 396 39 408 24 421 24 c 2
 466 24 l 1
 466 0 l 1xf8
286 51 m 2
 286 410 l 1
 188 410 l 1
 188 51 l 2
 188 38 200 24 213 24 c 2
 261 24 l 2
 274 24 286 38 286 51 c 2
EndSplineSet
EndChar
StartChar: fl
Encoding: 175 64258 3465
Width: 539
Flags: W
HStem: 0 22<490 492 11 13 11 13 56 58 446 448 490 492 212 214 289 291> 412 25<81 83 36 38 36 38 81 83 314 316 187 189 314 316 187 189> 671 21G<266 268>
Fore
491 0 m 1xf8
 12 0 l 1
 12 22 l 1
 57 22 l 2
 70 22 82 37 82 49 c 2
 82 412 l 1
 37 412 l 1
 37 437 l 1
 82 437 l 1
 82 575 l 2
 82 650 212 671 267 671 c 0
 292 671 349 667 370 643 c 1
 421 665 l 1
 421 49 l 2
 421 36 434 22 447 22 c 2
 491 22 l 1
 491 0 l 1xf8
315 437 m 1
 315 596 l 1
 299 609 296 632 305 650 c 1
 289 653 280 655 263 653 c 0
 229 650 188 642 188 607 c 2
 188 437 l 1
 315 437 l 1
315 49 m 2
 315 412 l 1
 188 412 l 1
 188 49 l 2
 188 37 200 22 213 22 c 2
 290 22 l 2
 304 22 315 36 315 49 c 2
EndSplineSet
EndChar
StartChar: endash
Encoding: 177 8211 2047
Width: 501
HStem: 197 57<-1 1 454 456 454 456 -1 1>
Fore
0 254 m 1x80
 455 254 l 1
 455 197 l 1
 0 197 l 1
 0 254 l 1x80
EndSplineSet
EndChar
StartChar: dagger
Encoding: 178 8224 2060
Width: 373
Fore
185 487 m 1x80
 180 538 114 654 192 654 c 0
 271 654 206 536 200 487 c 1
 263 492 355 564 354 480 c 0
 352 397 262 469 199 473 c 1
 201 402 248 367 248 296 c 0
 248 238 210 -13 194 -13 c 0
 193 -13 194 -13 190 -13 c 0
 174 -13 133 226 133 284 c 0
 133 355 183 406 185 473 c 1
 122 470 31 397 29 480 c 0
 28 564 122 491 185 487 c 1x80
EndSplineSet
EndChar
StartChar: daggerdbl
Encoding: 179 8225 2061
Width: 373
Fore
184 109 m 1x00
 180 161 128 276 191 276 c 0
 254 276 206 158 200 109 c 1
 263 114 353 160 354 102 c 0
 356 43 262 91 199 95 c 1
 203 20 256 -72 191 -72 c 0
 127 -72 181 24 185 95 c 1
 122 92 30 44 31 102 c 0
 33 161 122 113 184 109 c 1x00
184 487 m 1
 180 539 128 654 191 654 c 0
 254 654 206 536 200 487 c 1
 263 492 353 538 354 480 c 0
 356 421 262 469 199 473 c 1
 203 398 256 306 191 306 c 0
 127 306 181 402 185 473 c 1
 122 470 30 422 31 480 c 0
 33 539 122 491 184 487 c 1
EndSplineSet
EndChar
StartChar: periodcentered
Encoding: 180 183 118
Width: 247
Flags: W
Fore
48 248 m 0x00
 48 286.64 79.36 318 118 318 c 0
 156.64 318 188 286.64 188 248 c 0
 188 209.36 156.64 178 118 178 c 0
 79.36 178 48 209.36 48 248 c 0x00
EndSplineSet
EndChar
StartChar: paragraph
Encoding: 182 182 117
Width: 702
HStem: 621 40<592 594 496 498 400 402 97 99 639 641 639 641>
Fore
593 621 m 1xe0
 593 -69 l 1
 497 -69 l 1
 497 621 l 1
 401 621 l 1
 401 -69 l 1
 306 -69 l 1
 306 354 l 1
 114 354 l 2
 17 354 -76 403 -67 527 c 0
 -60 624 15 661 98 661 c 2
 640 661 l 1
 640 621 l 1
 593 621 l 1xe0
EndSplineSet
EndChar
StartChar: bullet
Encoding: 183 8226 2062
Width: 208
Fore
104 326 m 0x00
 216 334 228 164 113 156 c 0
 1 148 -11 318 104 326 c 0x00
EndSplineSet
EndChar
StartChar: quotesinglbase
Encoding: 184 8218 2054
Width: 203
Fore
146 5 m 1x00
 142 -9 137 -18 128 -31 c 0
 113 -50 102 -61 80 -72 c 0
 67 -79 59 -82 44 -85 c 1
 31 -69 l 1
 43 -66 49 -62 57 -55 c 0
 67 -47 73 -41 75 -28 c 0
 76 -20 78 -13 73 -6 c 1
 32 19 46 96 107 92 c 0
 157 89 169 35 146 5 c 1x00
EndSplineSet
EndChar
StartChar: quotedblright
Encoding: 186 8221 2057
Width: 315
Fore
151 543 m 1x00
 146 530 142 520 132 508 c 0
 117 488 107 478 85 467 c 0
 72 460 64 457 49 454 c 1
 36 469 l 1
 47 472 54 476 62 483 c 0
 72 491 78 498 80 510 c 0
 81 519 83 525 78 532 c 1
 37 557 51 635 112 631 c 0
 162 628 173 573 151 543 c 1x00
274 543 m 1
 269 530 265 520 255 508 c 0
 240 488 230 478 208 467 c 0
 194 460 187 457 172 454 c 1
 159 469 l 1
 170 472 176 476 185 483 c 0
 194 491 201 498 202 510 c 0
 204 519 206 525 201 532 c 1
 160 557 174 635 235 631 c 0
 285 628 296 573 274 543 c 1
EndSplineSet
EndChar
StartChar: guillemotright
Encoding: 187 187 122
Width: 827
Fore
736 312 m 1x00
 321 84 l 1
 321 148 l 1
 651 322 l 1
 651 338 l 1
 321 502 l 1
 321 565 l 1
 736 350 l 1
 736 312 l 1x00
453 312 m 1
 38 84 l 1
 38 148 l 1
 368 322 l 1
 368 338 l 1
 38 502 l 1
 38 565 l 1
 453 350 l 1
 453 312 l 1
EndSplineSet
EndChar
StartChar: ellipsis
Encoding: 188 8230 2066
Width: 1100
Flags: W
Fore
-339.5 110.5 m 0x00
 -339.5 168.416 -301.916 216 -250 216 c 0
 -196.084 216 -148.5 168.416 -148.5 110.5 c 0
 -148.5 54.584 -192.084 7 -244 7 c 0
 -297.916 7 -339.5 54.584 -339.5 110.5 c 0x00
376.5 110.5 m 0
 376.5 168.416 414.084 216 468 216 c 0
 519.916 216 567.5 168.416 567.5 110.5 c 0
 567.5 54.584 525.916 7 472 7 c 0
 420.084 7 376.5 54.584 376.5 110.5 c 0
1100.5 110.5 m 0
 1100.5 168.416 1138.08 216 1190 216 c 0
 1243.92 216 1291.5 168.416 1291.5 110.5 c 0
 1291.5 54.584 1247.92 7 1196 7 c 0
 1142.08 7 1100.5 54.584 1100.5 110.5 c 0
EndSplineSet
EndChar
StartChar: perthousand
Encoding: 189 8240 2068
Width: 1674
Flags: W
HStem: -5 14<1367 1369 1367 1369 797 799 797 799> 282 13<259 261 259 261> 400 17<1367 1369 1367 1369 797 799 797 799> 687 17<259 261 259 261>
Fore
1265 204 m 4xffc0
 1265 96 1300 9 1368 9 c 4
 1436 9 1472 96 1472 204 c 4
 1472 312 1436 400 1368 400 c 4
 1300 400 1265 312 1265 204 c 4xffc0
1161 206 m 4
 1161 323 1253 417 1368 417 c 4
 1483 417 1578 323 1578 206 c 4
 1578 89 1483 -5 1368 -5 c 4
 1253 -5 1161 89 1161 206 c 4
257 3 m 4
 468 278 625 483 798 710 c 4
 812 730 843 719 823 693 c 4
 613 416 495 261 279 -14 c 4
 262 -37 242 -19 257 3 c 4
695 204 m 4
 695 96 730 9 798 9 c 4
 866 9 902 96 902 204 c 4
 902 312 866 400 798 400 c 4
 730 400 695 312 695 204 c 4
589 206 m 4
 589 323 683 417 798 417 c 4
 913 417 1006 323 1006 206 c 4
 1006 89 913 -5 798 -5 c 4
 683 -5 589 89 589 206 c 4
157 491 m 4
 157 383 192 295 260 295 c 4
 328 295 364 383 364 491 c 4
 364 599 328 687 260 687 c 4
 192 687 157 599 157 491 c 4
53 493 m 4
 53 609 145 704 260 704 c 4
 375 704 470 609 470 493 c 4
 470 376 375 282 260 282 c 4
 145 282 53 376 53 493 c 4
EndSplineSet
EndChar
StartChar: questiondown
Encoding: 191 191 126
Width: 431
HStem: -61 111<326 328 283 285> 503 189<298 300 298 300>
Fore
386.5 598.5 m 4xe0
 386.5 546.584 346.916 503 299 503 c 4
 249.084 503 209.5 546.584 209.5 598.5 c 4
 209.5 650.416 249.084 692 299 692 c 4
 346.916 692 386.5 650.416 386.5 598.5 c 4xe0
267 302 m 0
 277 374 280 387 290 463 c 0
 293 483 311 482 313 462 c 0
 319 394 326 344 336 266 c 0
 338 238 347 200 322 195 c 0
 232 178 116 169 116 82 c 0
 116 31 161 8 206 8 c 0
 256 8 289 50 327 50 c 0
 354 50 373 29 373 5 c 0
 373 -38 328 -61 284 -61 c 0
 191 -61 93 4 93 102 c 0
 94 189 172 241 242 270 c 0
 256 275 265 285 267 302 c 0
EndSplineSet
EndChar
StartChar: grave
Encoding: 193 96 64
Width: 93
Fore
222 628 m 1x00
 175 628 l 1
 47 737 l 1
 137 737 l 1
 222 628 l 1x00
EndSplineSet
EndChar
StartChar: acute
Encoding: 194 180 115
Width: -275
Fore
245 737 m 1x00
 117 628 l 1
 66 628 l 1
 151 737 l 1
 245 737 l 1x00
EndSplineSet
EndChar
StartChar: circumflex
Encoding: 195 710 613
Width: -497
Fore
89.2 430.199 m 1x00
 178.2 548 l 1
 212.2 548 l 1
 302.8 430.199 l 1
 256.2 430.199 l 1
 208.8 467.199 l 1
 181.4 467.199 l 1
 134.4 430.199 l 1
 89.2 430.199 l 1x00
EndSplineSet
EndChar
StartChar: tilde
Encoding: 196 732 635
Width: 732
Fore
283 704 m 1x00
 284 746 321 785 358 786 c 0
 386 787 408 750 427 752 c 0
 451 754 463 763 477 782 c 1
 486 782 l 1
 489 746 465 703 429 704 c 0
 387 705 381 739 355 739 c 0
 328 738 312 727 297 704 c 1
 283 704 l 1x00
EndSplineSet
EndChar
StartChar: macron
Encoding: 197 175 110
Width: -315
HStem: 585 53<249 251 34 36 34 36 249 251>
Fore
250 585 m 1x80
 35 585 l 1
 35 638 l 1
 250 638 l 1
 250 585 l 1x80
EndSplineSet
EndChar
StartChar: breve
Encoding: 198 728 631
Width: 574
Fore
365 787 m 1x00
 358 730 312 687 258 687 c 0
 203 687 156 731 150 787 c 1
 178 787 l 1
 187 757 212 745 258 745 c 0
 296 745 324 759 337 787 c 1
 365 787 l 1x00
EndSplineSet
EndChar
StartChar: dotaccent
Encoding: 199 729 632
Width: 262
Fore
168 583 m 0x00
 168 532 89 532 89 583 c 0
 89 635 168 635 168 583 c 0x00
EndSplineSet
EndChar
StartChar: dieresis
Encoding: 200 168 103
Width: 0
Flags: W
Fore
265.998 613 m 0x00
 301.022 613 311.998 588.024 311.998 567 c 0
 311.998 545.976 301.022 521 265.998 521 c 0
 231.974 521 221.498 545.976 221.498 567 c 0
 221.498 588.024 231.974 613 265.998 613 c 0x00
78 613 m 0
 113.024 613 124 588.024 124 567 c 0
 124 545.976 113.024 521 78 521 c 0
 43.9756 521 33.5 545.976 33.5 567 c 0
 33.5 588.024 43.9756 613 78 613 c 0
EndSplineSet
EndChar
StartChar: ring
Encoding: 202 730 633
Width: -244
Fore
83 642 m 0x00
 187 642 185 490 81 487 c 0
 -23 484 -20 645 83 642 c 0x00
83 609 m 0
 26 610 25 524 82 524 c 0
 139 524 139 609 83 609 c 0
EndSplineSet
EndChar
StartChar: cedilla
Encoding: 203 184 119
Width: 0
Fore
373 -96 m 0x80
 377 -192 309 -210 228 -212 c 2
 176 -213 l 1
 176 -179 l 1
 233 -174 l 2
 269 -171 307 -161 307 -117 c 0
 307 -87 275 -72 246 -72 c 2
 208 -72 l 1
 208 -7 l 1
 253 13 l 1
 253 -25 l 1
 281 -25 l 2
 326 -25 372 -56 373 -96 c 0x80
EndSplineSet
EndChar
StartChar: ogonek
Encoding: 206 731 634
Width: 1579
HStem: -20 20G<122 124 168 170>
Fore
123 0 m 1x80
 169 0 l 1
 133 -6 115 -43 119 -80 c 0
 123 -109 150 -116 180 -121 c 0
 217 -127 242 -117 263 -88 c 1
 285 -115 l 1
 261 -154 230 -171 185 -170 c 0
 130 -169 75 -135 75 -80 c 0
 75 -44 91 -17 123 0 c 1x80
EndSplineSet
EndChar
StartChar: caron
Encoding: 207 711 614
Width: -392
HStem: 580 21G<136 138 144 146>
Fore
36 638 m 1x80
 61 638 l 1
 137 580 l 1
 145 580 l 1
 221 638 l 1
 244 638 l 1
 149 544 l 1
 132 544 l 1
 36 638 l 1x80
EndSplineSet
EndChar
StartChar: emdash
Encoding: 208 8212 2048
Width: 1000
HStem: 197 57<34 36 900 902 900 902 34 36>
Fore
35 254 m 1x80
 901 254 l 1
 901 197 l 1
 35 197 l 1
 35 254 l 1x80
EndSplineSet
EndChar
StartChar: AE
Encoding: 225 198 133
Width: 981
Flags: W
HStem: 0 31<854 856 342 344 237 239 275 277 275 277 36 38 36 38 74 76> 0 36<573 575 701 703> 348 32<535 537 635 637 635 637 535 537> 350 24<430 432 298 300 430 432 305 307> 625 36<324 326 701 703 573 575> 631 30<378 380 324 326 863 865>
Fore
908 196 m 1x96
 855 0 l 1
 343 0 l 1
 343 30 l 1
 396 30 l 2
 414 30 431 50 431 67 c 2
 431 350 l 1x95
 299 350 l 1
 197 124 l 2
 184 94 199 31 238 31 c 2
 276 31 l 1
 276 0 l 1
 37 0 l 1
 37 31 l 1
 75 31 l 2
 96 31 126 72 135 89 c 1
 379 631 l 1
 325 631 l 1
 325 661 l 1x0a80
 864 661 l 1x0680
 908 461 l 1
 881 461 l 1
 868 491 l 2
 832 575 798 625 702 625 c 2x6a80
 574 625 l 2
 548 625 536 598 536 575 c 2
 536 380 l 1
 636 380 l 2
 684 380 735 419 735 470 c 2
 735 488 l 1
 759 488 l 1x61
 759 234 l 1
 735 234 l 1x6280
 735 252 l 2
 735 301 683 348 636 348 c 2
 536 348 l 1
 536 86 l 2
 536 63 548 36 574 36 c 2
 702 36 l 2
 795 36 834 83 868 165 c 2
 881 196 l 1
 908 196 l 1x96
431 374 m 1x12
 431 594 l 2x11
 431 604 425 615 418 622 c 1
 306 374 l 1
 431 374 l 1x12
EndSplineSet
MinimumDistance: x14,9 
EndChar
StartChar: ordfeminine
Encoding: 227 170 105
Width: 409
Flags: W
HStem: 120 50<369 371 31 33 31 33 369 371> 197 39<302 304 137 139 159 161> 509 11<185 187> 509 11<167 169>
Fore
368 239 m 2xd8
 368 207 325 199 303 197 c 0
 265 193 217 216 215 254 c 1
 202 226 169 197 138 197 c 0
 76 197 23 219 25 274 c 0
 28 357 159 361 215 398 c 1
 215 467 l 2
 215 493 191 509 168 509 c 0
 150 509 112.229 500 98.2285 488 c 1
 102.229 482 103.229 481 101.229 469 c 1
 94.2285 445 74.2285 415 51.2285 415 c 0xe8
 41.8418 415.24 39 421.501 39 431 c 0
 39 473 94.8818 521.519 186 520 c 0
 205 520 319 517 319 471 c 2
 319 252 l 2
 319 238 327 224 341 224 c 0
 352 224 365 244 368 254 c 1
 368 239 l 2xd8
370 120 m 1
 32 120 l 1
 32 170 l 1
 370 170 l 1
 370 120 l 1
215 292 m 1
 215 368 l 1
 176 360 111 340 108 297 c 0
 107 271 130 236 160 236 c 0
 181 236 206 275 215 292 c 1
EndSplineSet
EndChar
StartChar: Lslash
Encoding: 232 321 256
Width: 599
HStem: 0 30<532 534 27 29 27 29 80 82> 631 30<80 82 27 29 27 29 308 310 308 310 255 257>
Fore
583 179 m 1xe0
 533 0 l 1
 28 0 l 1
 28 30 l 1
 81 30 l 2
 109 30 117 59 117 82 c 2
 117 423 l 1
 45 405 l 1
 45 454 l 1
 117 472 l 1
 117 594 l 2
 117 612 99 631 81 631 c 2
 28 631 l 1
 28 661 l 1
 309 661 l 1
 309 631 l 1
 256 631 l 2
 237 631 222 612 222 594 c 2
 222 493 l 1
 294 509 l 1
 294 460 l 1
 222 444 l 1
 222 79 l 2
 222 56 234 29 260 29 c 2
 380 29 l 2
 466 29 545 99 568 179 c 1
 583 179 l 1xe0
EndSplineSet
EndChar
StartChar: Oslash
Encoding: 233 216 151
Width: 758
HStem: -21 21<358 360 357 359> 650 21<357 359 358 360>
Fore
549 727 m 1xc0
 516 649 l 1
 654.378 591.459 723.245 457.835 723.004 324.428 c 0
 722.632 151.464 601.526 -21 359 -21 c 0
 311 -21 267 -18 226 -12 c 1
 186 -103 l 1
 99 -103 l 1
 155 23 l 1
 46.7692 87.959 -8.5686 204.356 -8.5686 321.116 c 0
 -8.5686 495.088 112.311 671 358 671 c 0
 385 671 412 672 440 674 c 1
 462 727 l 1
 549 727 l 1xc0
494 600 m 1
 244 30 l 1
 277 11 315 0 358 0 c 0
 516.484 0 597.314 158.35 597.314 318.854 c 0
 597.314 426.494 564.048 537.43 494 600 c 1
427 645 m 1
 405 649 383 650 359 650 c 0
 203.598 650 121.74 493.274 121.74 333.246 c 0
 121.74 245.206 141.484 156.472 186 92 c 1
 427 645 l 1
EndSplineSet
EndChar
StartChar: OE
Encoding: 234 338 273
Width: 1135
Flags: W
HStem: 0 34<993.447 995.447 717.447 719.447 843.447 845.447> 348 32<679.447 681.447 777.447 779.447 777.447 779.447 679.447 681.447> 627 34<437.447 439.447 843.447 845.447 715.447 717.447> 642 19<1002.45 1004.45 440.447 442.447>
Fore
1047.45 196 m 5xe0
 994.447 0 l 5
 823.447 0 606.447 -2 438.447 -2 c 4
 173.479 -2 49.3535 170.062 49.3535 339 c 4
 49.3535 501.523 184.396 661 438.447 661 c 6
 1003.45 661 l 5xd0
 1047.45 461 l 5
 1023.45 461 l 5
 1009.45 491 l 6
 973.447 569 938.447 627 844.447 627 c 6xe0
 716.447 627 l 6
 690.447 627 680.447 600 680.447 577 c 6
 680.447 380 l 5
 778.447 380 l 6
 826.447 380 876.447 421 876.447 470 c 6
 876.447 488 l 5
 902.447 488 l 5
 902.447 230 l 5
 876.447 230 l 5
 876.447 248 l 6
 876.447 298 828.447 348 778.447 348 c 6
 680.447 348 l 5
 680.447 255 680.447 76 680.447 76 c 5
 681.447 56 696.447 34 718.447 34 c 6
 844.447 34 l 6
 934.447 34 975.447 89 1009.45 165 c 6
 1023.45 196 l 5
 1047.45 196 l 5xe0
577.447 91 m 5
 577.447 568 l 5
 545.447 610 495.447 642 441.447 642 c 4xd0
 267.151 642 171 483.908 171 327 c 4
 171 172.405 254.337 19 438.447 19 c 4
 458.447 19 478.447 24 495.447 28 c 5
 528.447 40 555.447 62 577.447 91 c 5
EndSplineSet
EndChar
StartChar: ordmasculine
Encoding: 235 186 121
Width: 449
Flags: W
HStem: 132 38<421 423 32 34 32 34 421 423> 197 11<223 225 223 225> 522 12<223 225 223 225>
Fore
224 197 m 0xe0
 90 197 23 281.25 23 365.5 c 0
 23 449.75 90 534 224 534 c 0
 358 534 425 449.75 425 365.5 c 0
 425 281.25 358 197 224 197 c 0xe0
422 132 m 1
 33 132 l 1
 33 170 l 1
 422 170 l 1
 422 132 l 1
224 208 m 0
 285.5 208 316.25 286.5 316.25 365 c 0
 316.25 443.5 285.5 522 224 522 c 0
 162.5 522 131.75 443.5 131.75 365 c 0
 131.75 286.5 162.5 208 224 208 c 0
EndSplineSet
EndChar
StartChar: ae
Encoding: 241 230 165
Width: 678
HStem: -9 51<174 176 193 195> -9 99<445 447 452 454> 284 34<637 639 365 367 553 555 365 367> 450 22<243 245 465 467 465 467>
Fore
638 284 m 1x78
 366 284 l 1
 364 270 363 261 363 246 c 0
 363 142 394 90 446 90 c 0
 536.006 90 586 102 618 157 c 1
 618 94 l 1
 585 27 527 -9 453 -9 c 0
 381 -9 325 24 293 87 c 1
 275 43 225 -9 175 -9 c 0xb8
 82 -9 22 8 22 98 c 0
 22 210 178 267 262 265 c 1x72
 262 377 l 2
 262 414 229 433 195 433 c 0
 174 433 146 431 125 418 c 1
 128 400 127 390 123 372 c 0
 115 339 106 307 73 308 c 0
 52.4495 308.298 46 323.184 46 344.165 c 0
 46 392 119.716 474.809 244 472 c 0
 269 472 315 459 323 406 c 1
 358 446 406 472 466 472 c 0
 558 472 650 380 638 284 c 1x78
554 318 m 1
 556 371 533 450 466 450 c 0
 394 450 371 390 366 318 c 1
 554 318 l 1
281 114 m 1
 273 139 261 158 262 215 c 1xb4
 262 215 262 293 262 250 c 1xb6
 253 247 244 243 232 238 c 0
 180 214 134 190 128 134 c 0
 124 82.0384 144 42 194 42 c 0
 240.011 42 269 78 281 114 c 1
EndSplineSet
EndChar
StartChar: dotlessi
Encoding: 245 305 240
Width: 456
Flags: W
HStem: 0 24<277 279 30 32 30 32 75 77 232 234 277 279>
Fore
278 0 m 1xc0
 31 0 l 1
 31 24 l 1
 76 24 l 2
 89 24 102 38 102 51 c 2
 102 372 l 1
 49 390 l 1
 49 407 l 1
 207 474 l 1
 207 51 l 2
 207 38 220 24 233 24 c 2
 278 24 l 1
 278 0 l 1xc0
EndSplineSet
EndChar
StartChar: lslash
Encoding: 248 322 257
Width: 216
HStem: 0 24<231 233 276 278 276 278 30 32 30 32 75 77>
Fore
278 464 m 1xc0
 207 445 l 1
 207 51 l 2
 207 38 219 24 232 24 c 2
 277 24 l 1
 277 0 l 1
 31 0 l 1
 31 24 l 1
 76 24 l 2
 89 24 101 39 101 51 c 2
 101 423 l 1
 31 405 l 1
 31 454 l 1
 101 472 l 1
 101 566 l 1
 46 581 l 1
 46 603 l 1
 207 670 l 1
 207 494 l 1
 278 513 l 1
 278 464 l 1xc0
EndSplineSet
EndChar
StartChar: oslash
Encoding: 249 248 183
Width: 471
HStem: -9 15<257 259 257 259> 455 17<257 259 257 259>
Fore
468 599 m 1xc0
 393 445 l 1
 472.732 400.634 513.068 316.034 513.068 231.756 c 0
 513.068 111.446 428.135 -9 258 -9 c 0
 237 -9 217 -13 195 -17 c 1
 144 -125 l 1
 59 -125 l 1
 123 14 l 1
 47.2363 59.318 8.4034 143.158 8.4034 227.5 c 0
 8.4034 348.026 89.599 472 258 472 c 0
 278 472 300 472 322 474 c 1
 383 599 l 1
 468 599 l 1xc0
308 444 m 1
 292 452 276 455 258 455 c 0
 167.744 455 124.71 338.792 124.71 226.572 c 0
 124.71 175.329 135.196 124.33 154 84 c 1
 308 444 l 1
360 374 m 1
 206 11 l 1
 222 6 239 6 258 6 c 0
 344.911 6 388.446 117.466 388.446 229.482 c 0
 388.446 281.504 378.621 332.95 360 374 c 1
EndSplineSet
EndChar
StartChar: oe
Encoding: 250 339 274
Width: 885
Flags: W
HStem: -9 15<280.17 282.17 280.17 282.17> -9 108<634.17 636.17 641.17 643.17> 290 28<822.17 824.17 503.17 505.17 721.17 723.17 508.17 510.17> 455 17<280.17 282.17 617.17 619.17 280.17 282.17>
Fore
823.17 290 m 5x70
 504.17 290 l 5
 503.17 276 502.17 261 502.17 246 c 4
 503.17 149 563.17 100 635.17 99 c 4
 711.17 98 772.17 130 807.17 197 c 5
 807.17 119 l 5
 774.17 52 716.17 -9 642.17 -9 c 4
 568.17 -9 504.17 -15 447.17 52 c 5
 402.17 0 357.17 -9 281.17 -9 c 4xb0
 114.162 -9 36 114.945 36 237 c 4
 36 355.426 121.147 472 281.17 472 c 4
 360.17 472 399.17 459 443.17 399 c 5
 486.17 459 537.17 472 618.17 472 c 4
 702.17 472 833.17 370 823.17 290 c 5x70
722.17 318 m 5
 722.17 374 684.17 456 618.17 456 c 4
 545.17 456 525.17 392 509.17 318 c 5
 722.17 318 l 5
281.17 6 m 4
 371.14 6 412.315 124.675 412.315 240 c 4
 412.315 349.022 366.201 455 281.17 455 c 4
 192.517 455 149.178 341.077 149.178 228 c 4
 149.178 116.588 193.823 6 281.17 6 c 4
EndSplineSet
EndChar
StartChar: germandbls
Encoding: 251 223 158
Width: 634
Flags: W
HStem: 0 24<196 198 20 22 20 22 65 67> 410 29<90 92 45 47 45 47 90 92> 647 22<277 279 310 312>
Fore
454 143 m 0xf4
 454 254 397 299 317 299 c 1
 317 328 l 1
 391 343 421 400.972 421 474 c 0
 421 570 392 647 278 647 c 0
 235 647 197 613 197 570 c 2
 197 0 l 1
 21 0 l 1
 21 24 l 1
 66 24 l 2
 79 24 91 38 91 51 c 2xec
 91 410 l 1
 46 410 l 1
 46 439 l 1
 91 439 l 1
 91 534 l 2
 91 639 205.005 667 311 669 c 0
 479.996 671.32 571 580.26 571 496 c 0
 571 437.996 538.173 383.798 479.996 367 c 1
 478.996 354 l 1
 568.104 309.656 604.694 235.11 604.694 173 c 0
 604.694 80.4315 492.32 -6 344 -6 c 0
 233.678 -6 220 71.921 220 111 c 0
 220 170 259.924 184.106 277.5 184.106 c 0
 304.559 184.106 338.072 153.204 335 113 c 0
 333 82.0161 302 65 275 70 c 1
 284.018 44.7943 307.742 16.2246 340.5 16.2246 c 0
 365.752 16.2246 454 58.767 454 143 c 0xf4
EndSplineSet
EndChar
StartChar: Euro
Encoding: 256 8364 159
Width: 658
Flags: W
HStem: -10 28<382 384 382 384> 284 30<181 183 518 520 503 505 184 186 57 59 -2 0 13 15 55 57> 366 30<185 187 558 560 543 545 182 184 56 58 -2 0 13 15 59 61> 652 27<382 384 382 384>
Fore
593 591 m 1xf0
 609.174 600.02 566 572 566 572 c 1
 520 628 457 652 383 652 c 0
 245 652 207 480 186 396 c 1
 559 396 l 1
 544 366 l 1
 183 366 l 1
 182 349 182 331 182 314 c 1
 519 314 l 1
 504 284 l 1
 185 284 l 1
 198 216 230 18 383 18 c 0
 466 18 538 52 581 111 c 1
 598 97 603 91 603 91 c 1
 553 30 480 -10 383 -10 c 0
 156 -10 82 118 58 284 c 1
 -1 284 l 1
 14 314 l 1
 56 314 l 1
 55 331 55 349 57 366 c 1
 -1 366 l 1
 14 396 l 1
 60 396 l 1
 81 545 206 679 383 679 c 0
 473 679 543 644 593 591 c 1xf0
EndSplineSet
EndChar
StartChar: brokenbar
Encoding: 257 166 101
Width: 201
Fore
126 398 m 1x80
 47 398 l 1
 47 723 l 1
 126 723 l 1
 126 398 l 1x80
126 -19 m 1
 47 -19 l 1
 47 331 l 1
 126 331 l 1
 126 -19 l 1
EndSplineSet
EndChar
StartChar: multiply
Encoding: 260 215 150
Width: 326
Fore
268 200 m 1x00
 230 162 l 1
 149 242 l 1
 67 161 l 1
 29 199 l 1
 111 279 l 1
 29 358 l 1
 67 396 l 1
 149 317 l 1
 230 397 l 1
 268 358 l 1
 187 281 l 1
 268 200 l 1x00
EndSplineSet
EndChar
StartChar: mu
Encoding: 263 181 116
Width: 671
HStem: -4 29<280 282 279 281>
Fore
667 150 m 1x80
 635 87 594 -16 503 2 c 0
 476 7 392 22 381 62 c 1
 354 25 326 -4 281 -4 c 0
 216 -4 191 46 176 75 c 1
 149 -109 l 1
 141 -165 30 -132 33 -109 c 1
 113 416 l 1
 119 457 237 483 225 406 c 1
 195 197 l 1
 194 146 l 1
 193 88 222 26 280 25 c 0
 325 24 365 61 372 97 c 1
 433 425 l 1
 441 473 544 464 535 416 c 1
 487 117 l 1
 482 87 506 67 533 55 c 0
 589 31 627 132 643 164 c 1
 667 150 l 1x80
EndSplineSet
EndChar
StartChar: thorn
Encoding: 265 254 189
Width: 598
HStem: -147 24<234 236 279 281 279 281 33 35 33 35 78 80> 544 24<78 80 33 35 33 35 279 281 279 281 234 236>
Fore
576 243 m 0xe0
 582 109.034 452 -5 352 -9 c 0
 306.011 -11 242 2 210 28 c 1
 210 -96 l 2
 210 -109 222 -123 235 -123 c 2
 280 -123 l 1
 280 -147 l 1
 34 -147 l 1
 34 -123 l 1
 79 -123 l 2
 92 -123 104 -108 104 -96 c 2
 104 517 l 2
 104 529 92 544 79 544 c 2
 34 544 l 1
 34 568 l 1
 280 568 l 1
 280 544 l 1
 235 544 l 2
 222 544 210 530 210 517 c 2
 210 424 l 1
 254 453 299 468 352 472 c 0
 474 480 570 408 576 243 c 0xe0
456 239 m 0
 456 406 340 457.75 340.75 447.75 c 0
 234 423.75 210 385.824 210 325 c 2
 210 122 l 1
 230 61.8145 272.025 10 352 14 c 0
 430 18 456 123 456 239 c 0
EndSplineSet
EndChar
StartChar: eth
Encoding: 266 240 175
Width: 478
HStem: 493 43<455 457 390 392 284 286 206 208 207 209 266 268 373 375 455 457>
Fore
456 493 m 1x80
 391 493 l 1
 422 388 411 252 381 167 c 0
 335 39 231 -2 132 3 c 0
 -39 10 -10 189 25 280 c 0
 57 362 236 482 302 395 c 1
 304 445 298 457 285 493 c 1
 282 493 207 493 207 493 c 1
 208 536 l 1
 267 536 l 1
 255 576 177 635 134 616 c 2
 110 605 l 1
 115 631 l 1
 148 641 l 2
 220 663 357 598 374 536 c 1
 456 536 l 1
 456 493 l 1x80
267 386 m 0
 164 413 51 51 127 35 c 0
 222 15 378 357 267 386 c 0
EndSplineSet
EndChar
StartChar: logicalnot
Encoding: 274 172 107
Width: 638
HStem: 210 60<534 536 34 36 34 36 594 596>
Fore
595 40 m 1xc0
 535 40 l 1
 535 210 l 1
 35 210 l 1
 35 270 l 1
 595 270 l 1
 595 40 l 1xc0
EndSplineSet
EndChar
StartChar: Thorn
Encoding: 276 222 157
Width: 623
HStem: -213 30<257 259 309 311 309 311 29 31 29 31 82 84> 118 37<394 396 222 224 222 224 321 323> 382 42<222 224 409 411 322 324 222 224> 632 30<82 84 29 31 29 31 309 311 309 311 257 259>
Fore
557 294 m 0xf8
 566 170 487 118 395 118 c 2
 223 118 l 1
 223 -146 l 2
 223 -165 239 -183 258 -183 c 2
 310 -183 l 1
 310 -213 l 1
 30 -213 l 1
 30 -183 l 1
 83 -183 l 2
 101 -183 118 -163 118 -146 c 0
 118 6 118 537 118 595 c 0
 118 612 101 632 83 632 c 2
 30 632 l 1
 30 662 l 1
 310 662 l 1
 310 632 l 1
 258 632 l 2
 239 632 223 614 223 595 c 2
 223 424 l 1
 410 424 l 2
 485 424 550 393 557 294 c 0xf8
443 292 m 0
 443 355 384 382 323 382 c 2
 223 382 l 1
 223 155 l 1
 322 155 l 2
 404 155 444 192 443 292 c 0
EndSplineSet
EndChar
StartChar: onequarter
Encoding: 277 188 123
Width: 455
HStem: 0 21G<150 152 120 122> 58 54<433 435 404 406 349 351 189 191 404 406 433 435 349 351 261 263> 406 12<158 160 32 34 32 34 57 59 134 136 158 160> 645 20G<215 217 250 252> 651 20G<68 70 48 50>
Fore
159 406 m 1xee
 33 406 l 1
 33 418 l 1
 58 418 l 2
 65 418 69 425 69 430 c 2
 69 671 l 1
 49 671 l 1
 49 680 l 1
 122 697 l 1
 122 430 l 2
 122 424 129 418 135 418 c 2
 159 418 l 1
 159 406 l 1xee
434 58 m 1
 405 58 l 1
 405 3 l 1
 350 3 l 1
 350 58 l 1
 190 58 l 1
 362 294 l 1
 405 294 l 1
 405 112 l 1
 434 112 l 1
 434 58 l 1
350 112 m 1
 350 230 l 1
 262 112 l 1
 350 112 l 1
216 665 m 1xf6
 251 665 l 1
 151 0 l 1
 121 0 l 1
 216 665 l 1xf6
EndSplineSet
EndChar
StartChar: threequarters
Encoding: 280 190 125
Width: 488
HStem: 0 21G<233 235 203 205> 58 54<529 531 500 502 445 447 283 285 500 502 529 531 443 445 357 359> 645 20G<298 300 333 335>
Fore
151 476 m 0xf0
 152 517 107 554 80 554 c 2
 70 554 l 1
 70 569 l 1
 76 570 81 571 86 575 c 0
 111 587 121 609 120 636 c 0
 114 678 34 675 34 633 c 1
 25 633 l 1
 25 675 64 694 101 692 c 0
 160 690 205 644 149 599 c 0
 145 595 141 591 136 588 c 1
 137 582 l 1
 138 580 139 577 143 576 c 0
 257 531 212 405 82 401 c 0
 53 400 21 426 23 457 c 0
 27 505 76 496 76 461 c 0
 74 444 66 439 50 438 c 1
 55 430 58 426 68 420 c 1
 86 404 146 424 151 476 c 0xf0
530 58 m 1
 501 58 l 1
 501 3 l 1
 446 3 l 1
 446 58 l 1
 284 58 l 1
 458 294 l 1
 501 294 l 1
 501 112 l 1
 530 112 l 1
 530 58 l 1
444 112 m 1
 444 230 l 1
 358 112 l 1
 444 112 l 1
299 665 m 1
 334 665 l 1
 234 0 l 1
 204 0 l 1
 299 665 l 1
EndSplineSet
EndChar
StartChar: degree
Encoding: 286 176 111
Width: 222
Fore
83 713 m 0x00
 191 711 189 553 81 550 c 0
 -27 547 -24 714 83 713 c 0x00
83 668 m 0
 38 667 37 601 82 599 c 0
 127 599 127 666 83 668 c 0
EndSplineSet
EndChar
StartChar: onehalf
Encoding: 287 189 124
Width: 385
HStem: 0 21G<156 158 126 128> 1 62<421 423 254 256 293 295 420 422> 406 12<152 154 26 28 26 28 51 53 128 130 152 154> 645 20G<221 223 256 258> 651 20G<62 64 42 44>
Fore
153 406 m 1x2c
 27 406 l 1
 27 418 l 1
 52 418 l 2
 59 418 63 425 63 430 c 2
 63 671 l 1
 43 671 l 1
 43 680 l 1
 116 697 l 1
 116 430 l 2
 116 424 123 418 129 418 c 2
 153 418 l 1
 153 406 l 1x2c
435 82 m 1
 422 1 l 1x64
 255 1 l 1
 255 43 l 2
 255 111 358 140 362 220 c 0
 363 247 346 269 319 270 c 0
 286 272 264 247 259 218 c 1
 247 218 l 1
 250 262 286 289 329 291 c 0
 378 292 427 274 426 226 c 0
 425 140 334 121 305 85 c 0
 292 70 299 71 294 63 c 1
 421 63 l 1
 426 82 l 1
 435 82 l 1
222 665 m 1xb4
 257 665 l 1
 157 0 l 1
 127 0 l 1
 222 665 l 1xb4
EndSplineSet
EndChar
StartChar: minus
Encoding: 288 8722 2387
Width: 400
HStem: 201 47<311 313 32 34 32 34 311 313>
Fore
312 201 m 1x80
 33 201 l 1
 33 248 l 1
 312 248 l 1
 312 201 l 1x80
EndSplineSet
EndChar
StartChar: twosuperior
Encoding: 290 178 113
Width: 272
HStem: 406 62<242 244 75 77 115 117 239 241>
Fore
254 487 m 1xc0
 243 406 l 1
 76 406 l 1
 76 448 l 2
 76 517 177 545 182 626 c 0
 182 652 168 674 138 676 c 0
 107 678 85 651 78 623 c 1
 68 623 l 1
 71 668 105 696 150 697 c 0
 197 699 248 680 247 631 c 0
 247 545 155 527 124 490 c 0
 111 477 118 477 116 468 c 1
 240 468 l 1
 245 487 l 1
 254 487 l 1xc0
EndSplineSet
EndChar
StartChar: registered
Encoding: 292 174 109
Width: 529
HStem: 258 70<250 252 250 252> 387 5<377 379 323 325 373 375 377 379> 387 8<342 344 227 229 246 248 246 248 143 145 143 145 162 164> 520 9<247 249 215 217 287 289 215 217 251 253> 618 9<162 164 143 145 143 145 206 208 270 272> 674 69<253 255 253 255>
Fore
254 743 m 0x9e
 578 741 575 254 251 258 c 0
 -73 260 -70 747 254 743 c 0x9e
254 674 m 0
 24 676 20 330 251 328 c 0
 482 326 485 672 254 674 c 0
378 387 m 1xde
 343 387 l 2xbe
 335 387 330 387 324 392 c 0xde
 318 397 316 401 313 407 c 2
 248 520 l 1
 216 520 l 1
 216 409 l 2
 216 405 217 402 220 399 c 0
 222 397 224 395 228 395 c 2xbe
 247 395 l 1
 247 387 l 1
 144 387 l 1
 144 395 l 1
 163 395 l 2
 167 395 170 397 172 399 c 0
 175 402 176 405 176 409 c 2
 176 604 l 2
 176 608 175 610 172 613 c 0
 170 616 167 618 163 618 c 2
 144 618 l 1
 144 627 l 1
 207 627 l 1
 271 627 l 2
 298 627 327 617 330 581 c 0
 333 541 316 524 288 520 c 1
 345 413 l 2
 348 405 360 398 362 397 c 1
 363 395 371 392 374 392 c 2xde
 378 392 l 1
 378 387 l 1xde
296 580 m 0
 296 604 274 616 252 616 c 2
 216 616 l 1
 216 529 l 1
 252 529 l 2
 282 529 296 544 296 580 c 0
EndSplineSet
EndChar
StartChar: copyright
Encoding: 293 169 104
Width: 539
HStem: 258 70<248 250 248 250> 383 11<307 309 241 243> 445 20G<342 344 338 340> 631 5<250 252 325 327 329 331 249 251> 674 69<251 253 251 253>
Fore
252 743 m 0xf8
 576 741 573 254 249 258 c 0
 -75 260 -72 747 252 743 c 0xf8
252 674 m 0
 21 676 18 330 249 328 c 0
 480 326 483 672 252 674 c 0
343 465 m 1
 327 380 l 1
 320 380 l 1
 320 383 320 385 318 388 c 0
 316 392 312 394 308 394 c 0
 286 394 270 377 246 376 c 0
 164 372 131 436 127 500 c 0
 124 560 171 637 251 636 c 0
 290 636 296 613 308 614 c 0
 312 615 313 618 317 620 c 1
 320 624 323 627 326 631 c 1
 330 631 l 1
 335 547 l 1
 329 547 l 1
 328 554 327 557 324 562 c 0
 309 598 287 631 250 631 c 0
 202 631 172 566 171 506 c 0
 170 450 190 383 242 383 c 0
 269 383 304 402 323 431 c 0
 331 443 335 450 339 465 c 1
 343 465 l 1
EndSplineSet
EndChar
StartChar: trademark
Encoding: 295 8482 2195
Width: 699
HStem: 471 21G<530 532 553 555 623 625 644 646> 458 12<176 178 197 199 197 199 85 87 85 87 106 108 644 646 530 532 475 477 440 442 372 374 387 389 387 389 291 293 291 293 310 312> 708 15<209 211 177 179 105 107 89 91 24 26 268 270>
Fore
293 652 m 1x7c
 281 652 l 1
 273 685 242 708 210 708 c 2
 178 708 l 2
 168 708 163 697 163 688 c 2
 163 485 l 2
 163 479 169 470 177 470 c 2
 198 470 l 1
 198 458 l 1
 86 458 l 1
 86 470 l 1
 107 470 l 2
 114 470 121 478 121 485 c 2
 121 688 l 2
 121 697 117 708 106 708 c 2
 90 708 l 2
 54 708 21 690 13 652 c 1
 2 652 l 1
 25 723 l 1
 269 723 l 1
 293 652 l 1x7c
645 458 m 1
 531 458 l 1
 531 471 l 1x9c
 554 471 l 2
 560 471 567 477 567 484 c 2
 567 701 l 1
 476 458 l 1x5c
 441 458 l 1
 347 695 l 1
 347 507 l 2
 347 492 357 470 373 470 c 2
 388 470 l 1
 388 458 l 1
 292 458 l 1
 292 470 l 1
 311 470 l 2
 329 470 337 494 337 507 c 2
 337 696 l 2
 337 701 330 709 323 709 c 2
 302 709 l 1
 302 722 l 1
 382 722 l 1
 476 483 l 1
 568 722 l 1
 645 722 l 1
 645 709 l 1
 624 709 l 2
 615 709 609 703 609 696 c 2
 609 484 l 2
 609 477 615 471 624 471 c 2x9c
 645 471 l 1
 645 458 l 1
EndSplineSet
EndChar
StartChar: plusminus
Encoding: 296 177 112
Width: 361
HStem: 173 53<333 335 32 34 32 34 153 155 208 210 333 335> 301 53<153 155 32 34 32 34 153 155 208 210 333 335 333 335 208 210>
Fore
334 173 m 1xe0
 33 173 l 1
 33 226 l 1
 154 226 l 1
 154 301 l 1
 33 301 l 1
 33 354 l 1
 154 354 l 1
 154 456 l 1
 209 456 l 1
 209 354 l 1
 334 354 l 1
 334 301 l 1
 209 301 l 1
 209 226 l 1
 334 226 l 1
 334 173 l 1xe0
EndSplineSet
EndChar
StartChar: Eth
Encoding: 297 208 143
Width: 758
HStem: 0 30<355 357 22 24 22 24 75 77> 0 36<252 254 346 348> 296 47<110 112 29 31 29 31 110 112 215 217 288 290 288 290 215 217> 625 36<22 24 395 397 252 254> 631 30<455 457> 631 30<75 77 22 24>
Fore
719 347 m 4xa7
 719 192 575 0 356 0 c 2
 23 0 l 1
 23 30 l 1
 76 30 l 2
 94 30 111 50 111 67 c 2
 111 296 l 1
 30 296 l 1
 30 343 l 1
 111 343 l 1
 111 594 l 2
 111 611 94 631 76 631 c 2
 23 631 l 1
 23 661 l 1x33
 456 661 l 2xab
 659 661 719 440.022 719 347 c 4xa7
607 359 m 4
 607 495.195 530 625 396 625 c 2x73
 253 625 l 2
 228 625 216 596 216 575 c 2
 216 343 l 1
 289 343 l 1
 289 296 l 1
 216 296 l 1
 216 86 l 2
 216 65 228 36 253 36 c 2
 347 36 l 2
 510 36 607 198 607 359 c 4
EndSplineSet
EndChar
StartChar: Aring
Encoding: 299 197 132
Width: 845
Flags: W
HStem: 0 31<757 759 505 507 505 507 544 546 245 247 281 283 281 283 36 38 36 38 73 75 738 740 757 759> 310 32<478 480 278 280 467 469 292 294> 750 45<382 384 383 385>
Fore
758 0 m 1xe0
 506 0 l 1
 506 31 l 1
 545 31 l 2
 560 31 570 47 565 61 c 2
 479 310 l 1
 279 310 l 1
 199 111 l 1
 186 78 209 31 246 31 c 2
 282 31 l 1
 282 0 l 1
 37 0 l 1
 37 31 l 1
 74 31 l 2
 104 31 129 65 139 89 c 2
 369 625 l 1
 366 634 l 1
 273 645 281 798 383 795 c 0
 455 794 482 729 462 671 c 1
 676 71 l 2
 684 48 716 31 739 31 c 2
 758 31 l 1
 758 0 l 1xe0
384 750 m 0
 339 751 338 683 383 683 c 0
 428 681 428 750 384 750 c 0
468 342 m 1
 389 575 l 1
 293 342 l 1
 468 342 l 1
EndSplineSet
MinimumDistance: x13,8 x3,20 
EndChar
StartChar: divide
Encoding: 301 247 182
Width: 364
HStem: 254 45<311 313 32 34 32 34 311 313>
Fore
188.024 409.298 m 0x80
 219.86 409.298 232.116 388.59 232.116 368.498 c 0
 232.116 350.114 222.802 327.832 193.282 327.832 c 0
 161.404 327.832 150.82 350.872 150.82 368.884 c 0
 150.82 387.206 160.08 409.298 188.024 409.298 c 0x80
312 254 m 1
 33 254 l 1
 33 299 l 1
 312 299 l 1
 312 254 l 1
177.5 190.5 m 0
 207.8 190.5 216.5 168.3 216.5 150 c 0
 216.5 131.7 207.8 109.5 177.5 109.5 c 0
 146.2 109.5 137 131.7 137 150 c 0
 137 168.3 146.2 190.5 177.5 190.5 c 0
EndSplineSet
EndChar
StartChar: onesuperior
Encoding: 302 185 120
Width: 227
HStem: 406 12<261 263 135 137 135 137 160 162 237 239 261 263> 651 20G<171 173 151 153>
Fore
262 406 m 1xe0
 136 406 l 1
 136 418 l 1
 161 418 l 2
 168 418 172 423 172 430 c 2
 172 671 l 1
 152 671 l 1
 152 680 l 1
 225 697 l 1
 225 430 l 2
 225 425 232 418 238 418 c 2
 262 418 l 1
 262 406 l 1xe0
EndSplineSet
EndChar
StartChar: threesuperior
Encoding: 303 179 114
Width: 267
HStem: 554 15<91 93 79 81 79 81>
Fore
161 476 m 0x80
 164 517 117 554 92 554 c 2
 80 554 l 1
 80 569 l 1
 88 570 91 571 98 575 c 0
 121 587 132 609 130 636 c 0
 127 678 46 675 46 633 c 1
 35 633 l 1
 35 675 76 694 113 692 c 0
 172 690 216 644 161 599 c 0
 155 595 153 591 146 588 c 1
 147 582 l 1
 150 580 150 577 153 576 c 0
 269 531 222 405 94 401 c 0
 63 400 33 426 35 457 c 0
 37 505 88 496 86 461 c 0
 85 444 77 439 60 438 c 1
 65 430 70 426 78 420 c 0
 98 404 158 424 161 476 c 0x80
EndSplineSet
EndChar
StartChar: uniFFFD
Encoding: 0 65533 0
Width: 1000
Fore
634 424 m 0
 631 502 592 547 473 544 c 0
 423 543 374 507 377 456 c 0
 378.912 422.53 397.972 409.17 417.125 409.17 c 0
 438.029 409.17 459.044 425.039 458 448 c 0
 456 475 445 484 416 484 c 1
 430 510 454 523 482 524 c 0
 526 526 564 495 565 427 c 0
 567 315 473 270 467 158 c 0
 466 139 465 127 467 108 c 1
 486 108 l 1
 487 127 488 136 490 155 c 0
 506 273 639 291 634 424 c 0
481.556 68.2048 m 0
 459.674 68.2048 442.125 47.9879 442.125 27.1575 c 0
 442.125 8.182 460.126 -11.7789 482.806 -11.7789 c 0
 504.841 -11.7789 522.435 8.72335 522.435 29.5417 c 0
 522.435 48.8276 506.688 68.2048 481.556 68.2048 c 0
500 -163 m 1
 50 288 l 1
 500 737 l 1
 950 287 l 1
 500 -163 l 1
EndSplineSet
EndChar
StartChar: exclam
Encoding: 33 33 2
Width: 225
VStem: 102 20<170.5 181.452>
Fore
99 672.5 m 0
 105 684.5 118 685.5 124 672.5 c 0
 158 607.5 177 584.5 177 523.5 c 0
 177 388.5 122 316.5 122 181.5 c 0
 122 149.5 102 150.5 102 181.5 c 0
 102 316.5 47 388.5 47 523.5 c 0
 47 584.5 70 610.5 99 672.5 c 0
57.125 47.75 m 0
 57.125 79.3315 82.1685 105 113.375 105 c 0
 144.707 105 170.375 79.3315 170.375 47.75 c 0
 170.375 16.2934 144.957 -9.375 113.75 -9.375 c 0
 82.4184 -9.375 57.125 16.2934 57.125 47.75 c 0
EndSplineSet
EndChar
StartChar: quotedbl
Encoding: 34 34 3
Width: 245
HStem: 641 20G<51.125 104 141 193.875>
Fore
193.875 661 m 1
 179.875 539 l 1
 155 539 l 1
 141 661 l 1
 193.875 661 l 1
104 661 m 1
 90 539 l 1
 65.125 539 l 1
 51.125 661 l 1
 104 661 l 1
EndSplineSet
EndChar
StartChar: numbersign
Encoding: 35 35 4
Width: 494
HStem: 422 203<169 310 340 462>
Fore
462.5 422 m 1
 342.5 422 l 1
 315.5 244.75 l 1
 419.5 244.75 l 1
 419.5 213 l 1
 310.5 213 l 1
 285.5 43 l 1
 253.75 43 l 1
 278.75 213 l 1
 139.75 213 l 1
 114.75 43 l 1
 83 43 l 1
 108 213 l 1
 0 213 l 1
 0 244.75 l 1
 113 244.75 l 1
 139 422 l 1
 43 422 l 1
 43 453.75 l 1
 144 453.75 l 1
 170 625 l 1
 201.75 625 l 1
 175.75 453.75 l 1
 314.75 453.75 l 1
 340.75 625 l 1
 372.5 625 l 1
 346.5 453.75 l 1
 462.5 453.75 l 1
 462.5 422 l 1
310.75 422 m 1
 170.75 422 l 1
 144.75 244.75 l 1
 283.75 244.75 l 1
 310.75 422 l 1
EndSplineSet
EndChar
StartChar: dollar
Encoding: 36 36 5
Width: 578
Fore
207 411.875 m 2
 239.375 611.625 l 1
 242.375 626.625 233.375 626.625 225.375 626.625 c 0
 157.375 626.625 99.75 566.625 99.75 515.625 c 0
 99.75 460.625 139.875 422.875 190 403.875 c 0
 196.875 401.75 206 404.875 207 411.875 c 2
315 382.875 m 1
 348.375 583.625 l 1
 350.375 594.625 346.375 602.625 340.375 605.625 c 0
 319.375 615.625 302.5 620.625 283.375 623.625 c 0
 272.375 624.625 267.375 618.625 265.375 609.625 c 1
 232 406.875 l 1
 231 396.875 238 388.75 243 386.875 c 0
 245.336 386.174 294.59 372.446 296.875 371.875 c 0
 301 370.75 314 370.875 315 382.875 c 1
258.25 35.875 m 0
 270.25 109.875 287.5 203.375 299.375 272.375 c 0
 300.375 280.375 296.375 289.375 291.375 290.375 c 0
 272.375 294.5 252.375 299.375 233.375 305.375 c 0
 227.375 306.5 216.375 301.375 213.375 282.5 c 1
 176.25 63.875 l 1
 173.375 49 170.375 53.875 182.25 48 c 0
 205.25 38 225.25 31 246.25 26 c 0
 252.375 24.875 257.25 27.875 258.25 35.875 c 0
324.375 264.5 m 1
 284.25 32.875 l 2
 283.25 26.875 284.25 20 294.25 19.875 c 0
 302.25 19 310.25 18.875 318.375 18.875 c 0
 387.375 18.875 448.875 85.25 448.875 154.25 c 0
 448.875 215.125 401.375 258.375 344.375 276.375 c 0
 333.375 279.5 324.5 270.375 324.375 264.5 c 1
363.5 677.375 m 1
 366.5 699.375 392.625 696.375 389.625 678.375 c 1
 385.5 652.25 l 1
 384.625 647.25 387.5 643.25 392.5 641.375 c 0
 417.5 634.375 441.5 623.375 467.5 607.375 c 0
 482.5 598.375 491.5 586.375 491.5 569.375 c 0
 491.5 556.375 477.5 540.375 463.5 540.375 c 0
 439.625 540.375 415.375 562.625 388.375 578.625 c 0
 382.375 582.625 372.625 572 369.75 558 c 1
 340.875 375.875 l 1
 339 364.875 347 356.875 354 353.875 c 0
 440 324.875 515.75 284.25 515.75 180.125 c 0
 515.75 75.25 409 5 290 -4 c 0
 281 -5 279 -10 278 -17 c 1
 265 -94 l 2
 262 -112 234 -114 238 -93 c 1
 251 -19 l 2
 252 -13 249 -6 240 -6 c 0
 219 -6 199 -6 179 -4 c 0
 169 -3 166 -8 165 -15 c 1
 151 -94 l 2
 148 -112 121 -114 125 -93 c 1
 139 -10 l 1
 140 -3 137 4 131 5 c 0
 95 13 66 25 34 52 c 0
 25 60 19 74 19 88 c 0
 19 102 32 121 50 121 c 0
 65 121 77.375 102 98.25 90 c 0
 112.25 82.875 127.25 76 139.25 69.875 c 0
 145.25 66 150.25 68.875 151.375 76 c 0
 163.25 145 180.375 235.375 190.375 301.5 c 0
 192.375 311.375 188.375 319.375 182.375 321.5 c 0
 110.375 349.5 52.75 387.5 52.75 484.5 c 0
 52.75 573.625 150.625 641.375 236.5 652.375 c 0
 242.5 653.375 246.5 655.375 247.5 662.375 c 1
 250.5 677.375 l 1
 253.5 699.375 279.5 696.375 276.5 678.375 c 1
 274.5 662.375 l 1
 273.5 658.375 276.5 654.375 280.5 654.375 c 0
 304.625 654.375 326.625 653.375 347.625 650.375 c 0
 354.5 649.375 359.5 652.25 359.625 657.375 c 1
 363.5 677.375 l 1
EndSplineSet
EndChar
StartChar: percent
Encoding: 37 37 6
Width: 1009
HStem: -5 14<714 726> 282 13<217.794 232> 400 17<714 726> 687 17<217.794 232>
Fore
190 3 m 0
 401 278 558 483 729.125 710 c 0
 745 730 776 719 756 693 c 0
 546.125 416 428 261 212 -14 c 0
 193.125 -37 173.125 -19 190 3 c 0
573.625 204 m 0
 573.625 96 646.125 9 714.125 9 c 0
 782.125 9 853.75 96 853.75 204 c 0
 853.75 312 782.125 400 714.125 400 c 0
 646.125 400 573.625 312 573.625 204 c 0
505.25 206 m 0
 505.25 323 599.125 417 714.125 417 c 0
 829.125 417 922.125 323 922.125 206 c 0
 922.125 89 829.125 -5 714.125 -5 c 0
 599.125 -5 505.25 89 505.25 206 c 0
90 491 m 0
 90 383 162.5 295 230.5 295 c 0
 298.5 295 370.125 383 370.125 491 c 0
 370.125 599 298.5 687 230.5 687 c 0
 162.5 687 90 599 90 491 c 0
21.625 493 m 0
 21.625 609 115.5 704 230.5 704 c 0
 345.5 704 438.625 609 438.625 493 c 0
 438.625 376 345.5 282 230.5 282 c 0
 115.5 282 21.625 376 21.625 493 c 0
EndSplineSet
EndChar
